<svg width="1279" height="219" xmlns="http://www.w3.org/2000/svg" xmlns:xlink="http://www.w3.org/1999/xlink" xml:space="preserve" overflow="hidden"><defs><clipPath id="clip0"><rect x="1450" y="1071" width="1279" height="219"/></clipPath></defs><g clip-path="url(#clip0)" transform="translate(-1450 -1071)"><path d="M2690.15 1168.77C2685.53 1168.77 2682.19 1170.21 2680.12 1173.08 2678.06 1175.96 2677.03 1179.78 2677.03 1184.54L2677.03 1201.05 2702.77 1201.05 2702.77 1184.54C2702.77 1179.78 2701.78 1175.96 2699.8 1173.08 2697.82 1170.21 2694.6 1168.77 2690.15 1168.77ZM2463.29 1168.77C2458.67 1168.77 2455.33 1170.21 2453.27 1173.08 2451.21 1175.96 2450.18 1179.78 2450.18 1184.54L2450.18 1201.05 2475.91 1201.05 2475.91 1184.54C2475.91 1179.78 2474.92 1175.96 2472.94 1173.08 2470.96 1170.21 2467.75 1168.77 2463.29 1168.77ZM2609.06 1148.32 2636.28 1148.32 2636.28 1288.03 2609.06 1288.03ZM2690.15 1146.35C2703.68 1146.35 2713.53 1149.96 2719.72 1157.19 2725.91 1164.42 2729 1174.36 2729 1187.01L2729 1220.76 2677.03 1220.76 2677.03 1251.81C2677.03 1256.57 2678.14 1260.39 2680.37 1263.27 2682.6 1266.14 2686.02 1267.58 2690.64 1267.58 2695.1 1267.58 2698.31 1266.18 2700.29 1263.39 2702.27 1260.6 2703.26 1256.74 2703.26 1251.81L2703.26 1232.84 2729 1232.84 2729 1249.34C2729 1261.99 2725.91 1271.93 2719.72 1279.16 2713.53 1286.39 2703.68 1290 2690.15 1290 2683.38 1290 2677.44 1288.97 2672.33 1286.92 2667.21 1284.87 2663.01 1281.95 2659.71 1278.17 2656.41 1274.39 2653.93 1269.92 2652.28 1264.74 2650.63 1259.57 2649.81 1253.86 2649.81 1247.62L2649.81 1188.73C2649.81 1176.08 2653.11 1165.86 2659.71 1158.05 2666.31 1150.25 2676.45 1146.35 2690.15 1146.35ZM2568.47 1146.35C2577.05 1146.35 2583.61 1149.14 2588.15 1154.73 2592.68 1160.31 2594.95 1169.27 2594.95 1181.59L2594.95 1288.03 2567.73 1288.03 2567.73 1182.82C2567.73 1178.55 2566.94 1175.1 2565.38 1172.47 2563.81 1169.84 2560.63 1168.53 2555.85 1168.53 2551.06 1168.53 2547.81 1169.84 2546.07 1172.47 2544.34 1175.1 2543.48 1178.55 2543.48 1182.82L2543.48 1288.03 2516.25 1288.03 2516.25 1148.32 2543.48 1148.32 2543.48 1162.61 2543.97 1162.61C2545.62 1158.51 2548.3 1154.77 2552.01 1151.4 2555.73 1148.03 2561.21 1146.35 2568.47 1146.35ZM2463.29 1146.35C2476.82 1146.35 2486.68 1149.96 2492.87 1157.19 2499.05 1164.42 2502.15 1174.36 2502.15 1187.01L2502.15 1220.76 2450.18 1220.76 2450.18 1251.81C2450.18 1256.57 2451.29 1260.39 2453.52 1263.27 2455.75 1266.14 2459.17 1267.58 2463.79 1267.58 2468.24 1267.58 2471.46 1266.18 2473.44 1263.39 2475.42 1260.6 2476.41 1256.74 2476.41 1251.81L2476.41 1232.84 2502.15 1232.84 2502.15 1249.34C2502.15 1261.99 2499.05 1271.93 2492.87 1279.16 2486.68 1286.39 2476.82 1290 2463.29 1290 2456.53 1290 2450.59 1288.97 2445.48 1286.92 2440.36 1284.87 2436.15 1281.95 2432.85 1278.17 2429.55 1274.39 2427.08 1269.92 2425.43 1264.74 2423.78 1259.57 2422.95 1253.86 2422.95 1247.62L2422.95 1188.73C2422.95 1176.08 2426.25 1165.86 2432.85 1158.05 2439.45 1150.25 2449.6 1146.35 2463.29 1146.35ZM2025.45 1143.89 2025.45 1209.67 2035.85 1209.67C2045.09 1209.67 2049.71 1205.07 2049.71 1195.88L2049.71 1157.44C2049.71 1148.4 2045.09 1143.89 2035.85 1143.89ZM2609.06 1120.97 2636.28 1120.97 2636.28 1142.16 2609.06 1142.16ZM2090.04 1120.97 2122.96 1120.97 2141.27 1215.09 2141.52 1215.09 2157.85 1120.97 2193.49 1120.97 2193.49 1288.03 2167.75 1288.03 2167.75 1179.61 2167.01 1179.61 2147.95 1288.03 2134.84 1288.03 2113.8 1179.61 2113.31 1179.61 2113.31 1288.03 2090.04 1288.03ZM1997.24 1120.97 2039.06 1120.97C2053.25 1120.97 2063.28 1124.3 2069.13 1130.95 2074.99 1137.6 2077.92 1146.76 2077.92 1158.42L2077.92 1193.66C2077.92 1205.32 2074.99 1214.52 2069.13 1221.25 2063.28 1227.99 2053.25 1231.36 2039.06 1231.36L2025.45 1231.36 2025.45 1288.03 1997.24 1288.03ZM1901 1120.97 1929.21 1120.97 1929.21 1194.4 1959.9 1120.97 1987.62 1120.97 1954.95 1196.12 1988.36 1288.03 1958.66 1288.03 1929.21 1206.72 1929.21 1288.03 1901 1288.03ZM2369.53 1119C2377.28 1119 2383.76 1120.03 2388.95 1122.08 2394.15 1124.13 2398.28 1127.01 2401.33 1130.7 2404.38 1134.4 2406.57 1138.83 2407.89 1144.01 2409.21 1149.18 2409.87 1154.81 2409.87 1160.89L2409.87 1175.67 2384.13 1175.67 2384.13 1158.67C2384.13 1153.41 2383.06 1149.39 2380.91 1146.6 2378.77 1143.8 2375.14 1142.41 2370.02 1142.41 2364.91 1142.41 2361.2 1144.01 2358.89 1147.21 2356.58 1150.42 2355.42 1154.56 2355.42 1159.66L2355.42 1249.34C2355.42 1254.44 2356.54 1258.58 2358.76 1261.79 2360.99 1264.99 2364.5 1266.59 2369.28 1266.59 2378.52 1266.59 2383.14 1261.25 2383.14 1250.58L2383.14 1221.01 2369.78 1221.01 2369.78 1198.83 2409.87 1198.83 2409.87 1288.03 2389.57 1288.03 2389.57 1269.8C2387.76 1276.04 2384.75 1280.97 2380.54 1284.58 2376.33 1288.19 2370.35 1290 2362.6 1290 2356.49 1290 2351.21 1288.85 2346.76 1286.55 2342.31 1284.25 2338.63 1281.09 2335.75 1277.06 2332.86 1273.04 2330.72 1268.28 2329.31 1262.77 2327.91 1257.27 2327.21 1251.32 2327.21 1244.91L2327.21 1164.09C2327.21 1157.52 2328.03 1151.48 2329.68 1145.98 2331.33 1140.48 2333.85 1135.71 2337.23 1131.69 2340.61 1127.67 2344.99 1124.54 2350.35 1122.33 2355.71 1120.11 2362.1 1119 2369.53 1119ZM2249.23 1119C2256.98 1119 2263.46 1120.03 2268.65 1122.08 2273.85 1124.13 2277.98 1127.01 2281.03 1130.7 2284.08 1134.4 2286.27 1138.83 2287.59 1144.01 2288.91 1149.18 2289.57 1154.81 2289.57 1160.89L2289.57 1175.67 2263.83 1175.67 2263.83 1158.67C2263.83 1153.41 2262.76 1149.39 2260.61 1146.6 2258.47 1143.8 2254.84 1142.41 2249.72 1142.41 2244.61 1142.41 2240.9 1144.01 2238.59 1147.21 2236.28 1150.42 2235.12 1154.56 2235.12 1159.66L2235.12 1249.34C2235.12 1254.44 2236.23 1258.58 2238.46 1261.79 2240.69 1264.99 2244.19 1266.59 2248.98 1266.59 2258.22 1266.59 2262.84 1261.25 2262.84 1250.58L2262.84 1221.01 2249.47 1221.01 2249.47 1198.83 2289.57 1198.83 2289.57 1288.03 2269.27 1288.03 2269.27 1269.8C2267.46 1276.04 2264.45 1280.97 2260.24 1284.58 2256.03 1288.19 2250.05 1290 2242.3 1290 2236.19 1290 2230.91 1288.85 2226.46 1286.55 2222 1284.25 2218.33 1281.09 2215.45 1277.06 2212.56 1273.04 2210.41 1268.28 2209.01 1262.77 2207.61 1257.27 2206.91 1251.32 2206.91 1244.91L2206.91 1164.09C2206.91 1157.52 2207.73 1151.48 2209.38 1145.98 2211.03 1140.48 2213.55 1135.71 2216.93 1131.69 2220.31 1127.67 2224.69 1124.54 2230.05 1122.33 2235.41 1120.11 2241.8 1119 2249.23 1119Z" fill="#595959" fill-rule="evenodd"/><path d="M1486.41 1149.83C1484.39 1150.04 1482.38 1150.87 1480.47 1152.55 1476.41 1156.12 1475.66 1162.13 1480.23 1165.66 1489.11 1172.52 1498.33 1178.88 1507.88 1184.74 1511.53 1186.97 1518.22 1191.06 1522.1 1190.96 1526.64 1190.85 1522.82 1183.48 1521.88 1181.87 1516.74 1173.1 1509.36 1165.93 1502.58 1158.46 1498.65 1154.12 1492.47 1149.19 1486.41 1149.83ZM1486.64 1135.2C1495.87 1134.14 1505.35 1134.61 1513.77 1136 1517.35 1136.6 1520.17 1137.36 1522.25 1138.3 1530.49 1142.03 1534.69 1149.77 1534.35 1159.3 1534.11 1165.72 1535.44 1171.97 1538.19 1177.77 1538.25 1177.91 1538.33 1177.91 1538.4 1177.78 1539.93 1175.3 1541.75 1173.04 1543.87 1171.01 1549.35 1165.74 1555.01 1160.68 1560.85 1155.84 1560.91 1155.79 1560.98 1155.78 1561.04 1155.81 1578.41 1164.77 1597.44 1167.7 1616.81 1166.77 1635.76 1165.84 1654.17 1162.24 1672.05 1155.94 1672.19 1155.89 1672.32 1155.91 1672.43 1156 1692.46 1170.74 1718.58 1168.76 1740.4 1159.7 1759.83 1151.64 1780.4 1145.98 1802.32 1140.54 1803.38 1140.28 1804.92 1140.46 1806.08 1140.97 1812.7 1143.88 1819.64 1145.25 1826.92 1145.08 1827.81 1145.06 1829.26 1145.74 1829.89 1146.53 1835.87 1154.05 1816.02 1158.54 1811.88 1159.6 1795.78 1163.74 1780.52 1174.06 1767.01 1183.47 1742.17 1200.77 1717.02 1218.96 1690.82 1232.61 1676.46 1240.1 1661.49 1246.09 1645.92 1250.57 1645.86 1250.59 1645.82 1250.66 1645.84 1250.73 1645.85 1250.76 1645.86 1250.78 1645.89 1250.8 1650 1253.93 1653.94 1257.24 1657.7 1260.75 1660.55 1263.41 1662.69 1266.33 1664.14 1269.51 1667.85 1277.69 1660.57 1281.89 1654.14 1284.09 1643.64 1287.7 1632.35 1288.94 1621.89 1289.83 1619.43 1290.04 1616.93 1290.06 1614.37 1289.87 1605.09 1289.18 1573.75 1286.68 1571.01 1275.27 1569.09 1267.22 1581.99 1257.22 1587.52 1252.8 1587.6 1252.73 1587.61 1252.62 1587.55 1252.54 1587.52 1252.51 1587.49 1252.49 1587.45 1252.48 1576.31 1250.11 1565.65 1245.75 1556.41 1239.19 1548.03 1233.22 1541.11 1227.12 1535.78 1218.13 1535.7 1217.99 1535.59 1217.9 1535.45 1217.84 1531.82 1216.29 1529.92 1217.66 1527.24 1219.9 1520.99 1225.13 1507.21 1221.65 1503.02 1215.07 1500.59 1211.24 1501.34 1206.18 1504.49 1203.07 1506.08 1201.51 1508.18 1200.52 1510.77 1200.11 1510.85 1200.09 1510.9 1200.02 1510.88 1199.95 1510.88 1199.91 1510.86 1199.88 1510.83 1199.86 1507.45 1197.69 1504.47 1196.38 1500.03 1194.5 1490.57 1190.49 1480.78 1187.25 1471.05 1183.99 1467.17 1182.68 1464.45 1181.59 1462.89 1180.7 1455.29 1176.38 1448.91 1167.65 1450.16 1158.44 1451 1152.2 1455.86 1146.86 1460.97 1143.6 1468.42 1138.86 1477.41 1136.26 1486.64 1135.2ZM1616.57 1071.04C1620.52 1070.64 1624.58 1073.15 1627.94 1079.11 1633.28 1088.61 1638.23 1107.15 1630.34 1116.59 1630.25 1116.7 1630.2 1116.82 1630.19 1116.96 1629.95 1120.78 1630.46 1122.99 1633.23 1125.6 1641.64 1133.52 1651.5 1140.22 1660.67 1147.25 1660.83 1147.37 1660.81 1147.46 1660.62 1147.52 1632.75 1156.41 1598.61 1159.29 1571.07 1147.81 1570.9 1147.74 1570.89 1147.65 1571.03 1147.54 1580.37 1139.97 1589.71 1133.31 1599.05 1127.56 1603.08 1125.08 1604.87 1121.52 1604.41 1116.87 1604.4 1116.72 1604.34 1116.58 1604.24 1116.46 1596.62 1107.28 1601.12 1089.93 1605.93 1080.42 1608.81 1074.76 1612.63 1071.44 1616.57 1071.04Z" fill="#595959" fill-rule="evenodd"/></g></svg>