<svg width="1282" height="321" xmlns="http://www.w3.org/2000/svg" xmlns:xlink="http://www.w3.org/1999/xlink" xml:space="preserve" overflow="hidden"><defs><clipPath id="clip0"><rect x="1452" y="103" width="1282" height="321"/></clipPath></defs><g clip-path="url(#clip0)" transform="translate(-1452 -103)"><path d="M2692.15 200.063C2687.53 200.063 2684.19 201.509 2682.12 204.401 2680.06 207.292 2679.03 211.133 2679.03 215.925L2679.03 232.53 2704.77 232.53 2704.77 215.925C2704.77 211.133 2703.78 207.292 2701.8 204.401 2699.82 201.509 2696.6 200.063 2692.15 200.063ZM2465.29 200.063C2460.67 200.063 2457.33 201.509 2455.27 204.401 2453.21 207.292 2452.18 211.133 2452.18 215.925L2452.18 232.53 2477.91 232.53 2477.91 215.925C2477.91 211.133 2476.92 207.292 2474.95 204.401 2472.96 201.509 2469.75 200.063 2465.29 200.063ZM2611.06 179.493 2638.28 179.493 2638.28 320.017 2611.06 320.017ZM2692.15 177.51C2705.68 177.51 2715.53 181.145 2721.72 188.415 2727.91 195.685 2731 205.681 2731 218.403L2731 252.357 2679.03 252.357 2679.03 283.585C2679.03 288.376 2680.14 292.218 2682.37 295.109 2684.6 298.001 2688.02 299.447 2692.64 299.447 2697.1 299.447 2700.31 298.042 2702.29 295.233 2704.27 292.425 2705.26 288.542 2705.26 283.585L2705.26 264.501 2731 264.501 2731 281.107C2731 293.829 2727.91 303.825 2721.72 311.095 2715.53 318.365 2705.68 322 2692.15 322 2685.38 322 2679.44 320.967 2674.33 318.902 2669.21 316.837 2665.01 313.904 2661.71 310.104 2658.41 306.304 2655.93 301.801 2654.28 296.596 2652.63 291.392 2651.81 285.65 2651.81 279.372L2651.81 220.138C2651.81 207.416 2655.11 197.131 2661.71 189.283 2668.31 181.434 2678.45 177.51 2692.15 177.51ZM2570.47 177.51C2579.05 177.51 2585.61 180.319 2590.15 185.936 2594.68 191.554 2596.95 200.559 2596.95 212.951L2596.95 320.017 2569.73 320.017 2569.73 214.19C2569.73 209.894 2568.94 206.424 2567.38 203.781 2565.81 201.137 2562.63 199.815 2557.85 199.815 2553.06 199.815 2549.81 201.137 2548.07 203.781 2546.34 206.424 2545.48 209.894 2545.48 214.19L2545.48 320.017 2518.25 320.017 2518.25 179.493 2545.48 179.493 2545.48 193.867 2545.97 193.867C2547.62 189.737 2550.3 185.978 2554.01 182.591 2557.73 179.204 2563.21 177.51 2570.47 177.51ZM2465.29 177.51C2478.82 177.51 2488.68 181.145 2494.87 188.415 2501.05 195.685 2504.15 205.681 2504.15 218.403L2504.15 252.357 2452.18 252.357 2452.18 283.585C2452.18 288.376 2453.29 292.218 2455.52 295.109 2457.75 298.001 2461.17 299.447 2465.79 299.447 2470.24 299.447 2473.46 298.042 2475.44 295.233 2477.42 292.425 2478.41 288.542 2478.41 283.585L2478.41 264.501 2504.15 264.501 2504.15 281.107C2504.15 293.829 2501.05 303.825 2494.87 311.095 2488.68 318.365 2478.82 322 2465.29 322 2458.53 322 2452.59 320.967 2447.48 318.902 2442.36 316.837 2438.15 313.904 2434.85 310.104 2431.55 306.304 2429.08 301.801 2427.43 296.596 2425.78 291.392 2424.95 285.65 2424.95 279.372L2424.95 220.138C2424.95 207.416 2428.25 197.131 2434.85 189.283 2441.45 181.434 2451.6 177.51 2465.29 177.51ZM2027.45 175.032 2027.45 241.205 2037.85 241.205C2047.09 241.205 2051.71 236.578 2051.71 227.326L2051.71 188.663C2051.71 179.575 2047.09 175.032 2037.85 175.032ZM2611.06 151.983 2638.28 151.983 2638.28 173.297 2611.06 173.297ZM2092.04 151.983 2124.96 151.983 2143.27 246.657 2143.52 246.657 2159.85 151.983 2195.49 151.983 2195.49 320.017 2169.75 320.017 2169.75 210.968 2169.01 210.968 2149.95 320.017 2136.84 320.017 2115.8 210.968 2115.31 210.968 2115.31 320.017 2092.04 320.017ZM1999.24 151.983 2041.06 151.983C2055.25 151.983 2065.28 155.329 2071.13 162.02 2076.99 168.712 2079.92 177.923 2079.92 189.654L2079.92 225.095C2079.92 236.826 2076.99 246.079 2071.13 252.853 2065.28 259.627 2055.25 263.014 2041.06 263.014L2027.45 263.014 2027.45 320.017 1999.24 320.017ZM1903 151.983 1931.21 151.983 1931.21 225.839 1961.9 151.983 1989.62 151.983 1956.95 227.574 1990.36 320.017 1960.66 320.017 1931.21 238.23 1931.21 320.017 1903 320.017ZM2371.53 150C2379.28 150 2385.76 151.033 2390.95 153.098 2396.15 155.163 2400.28 158.055 2403.33 161.772 2406.38 165.49 2408.57 169.951 2409.89 175.156 2411.21 180.36 2411.87 186.019 2411.87 192.132L2411.87 207.003 2386.13 207.003 2386.13 189.902C2386.13 184.615 2385.06 180.567 2382.91 177.758 2380.77 174.949 2377.14 173.545 2372.02 173.545 2366.91 173.545 2363.2 175.156 2360.89 178.378 2358.58 181.599 2357.42 185.771 2357.42 190.893L2357.42 281.107C2357.42 286.229 2358.54 290.401 2360.76 293.623 2362.99 296.844 2366.5 298.455 2371.28 298.455 2380.52 298.455 2385.14 293.086 2385.14 282.346L2385.14 252.605 2371.78 252.605 2371.78 230.3 2411.87 230.3 2411.87 320.017 2391.57 320.017 2391.57 301.677C2389.76 307.956 2386.75 312.913 2382.54 316.547 2378.33 320.182 2372.35 322 2364.6 322 2358.49 322 2353.21 320.843 2348.76 318.53 2344.31 316.217 2340.63 313.037 2337.75 308.988 2334.86 304.94 2332.72 300.149 2331.31 294.614 2329.91 289.079 2329.21 283.089 2329.21 276.645L2329.21 195.355C2329.21 188.745 2330.03 182.673 2331.68 177.139 2333.33 171.603 2335.85 166.812 2339.23 162.764 2342.61 158.716 2346.99 155.576 2352.35 153.346 2357.71 151.115 2364.1 150 2371.53 150ZM2251.23 150C2258.98 150 2265.46 151.033 2270.65 153.098 2275.85 155.163 2279.98 158.055 2283.03 161.772 2286.08 165.49 2288.27 169.951 2289.59 175.156 2290.91 180.36 2291.57 186.019 2291.57 192.132L2291.57 207.003 2265.83 207.003 2265.83 189.902C2265.83 184.615 2264.76 180.567 2262.61 177.758 2260.47 174.949 2256.84 173.545 2251.72 173.545 2246.61 173.545 2242.9 175.156 2240.59 178.378 2238.28 181.599 2237.12 185.771 2237.12 190.893L2237.12 281.107C2237.12 286.229 2238.23 290.401 2240.46 293.623 2242.69 296.844 2246.19 298.455 2250.98 298.455 2260.22 298.455 2264.84 293.086 2264.84 282.346L2264.84 252.605 2251.47 252.605 2251.47 230.3 2291.57 230.3 2291.57 320.017 2271.27 320.017 2271.27 301.677C2269.46 307.956 2266.45 312.913 2262.24 316.547 2258.03 320.182 2252.05 322 2244.3 322 2238.19 322 2232.91 320.843 2228.46 318.53 2224 316.217 2220.33 313.037 2217.45 308.988 2214.56 304.94 2212.41 300.149 2211.01 294.614 2209.61 289.079 2208.91 283.089 2208.91 276.645L2208.91 195.355C2208.91 188.745 2209.73 182.673 2211.38 177.139 2213.03 171.603 2215.55 166.812 2218.93 162.764 2222.31 158.716 2226.69 155.576 2232.05 153.346 2237.41 151.115 2243.8 150 2251.23 150Z" fill-rule="evenodd"/><path d="M2581.96 376.387C2581.67 376.754 2581.3 377.12 2580.86 377.487 2580.42 377.853 2579.81 378.274 2579.04 378.751 2578.27 379.228 2577.25 379.777 2575.96 380.4 2574.68 381.023 2573.05 381.775 2571.07 382.655 2569.38 383.461 2567.89 384.194 2566.61 384.854 2565.33 385.514 2564.25 386.265 2563.37 387.108 2562.48 387.951 2561.79 388.977 2561.27 390.187 2560.76 391.397 2560.39 392.881 2560.17 394.641L2559.62 399.808C2559.18 403.621 2559.72 406.443 2561.22 408.276 2562.72 410.108 2565.05 411.025 2568.21 411.025 2571.07 411.025 2573.58 410.127 2575.74 408.33 2577.91 406.535 2579.17 403.877 2579.54 400.358ZM2461.62 376.387C2461.33 376.754 2460.96 377.12 2460.52 377.487 2460.08 377.853 2459.48 378.274 2458.71 378.751 2457.94 379.228 2456.91 379.777 2455.63 380.4 2454.34 381.023 2452.71 381.775 2450.73 382.655 2449.04 383.461 2447.56 384.194 2446.28 384.854 2444.99 385.514 2443.91 386.265 2443.03 387.108 2442.15 387.951 2441.45 388.977 2440.94 390.187 2440.43 391.397 2440.06 392.881 2439.84 394.641L2439.29 399.808C2438.85 403.621 2439.38 406.443 2440.88 408.276 2442.39 410.108 2444.72 411.025 2447.87 411.025 2450.73 411.025 2453.24 410.127 2455.41 408.33 2457.57 406.535 2458.84 403.877 2459.2 400.358ZM2403.17 376.387C2402.88 376.754 2402.51 377.12 2402.07 377.487 2401.63 377.853 2401.03 378.274 2400.26 378.751 2399.49 379.228 2398.46 379.777 2397.18 380.4 2395.9 381.023 2394.26 381.775 2392.28 382.655 2390.6 383.461 2389.11 384.194 2387.83 384.854 2386.54 385.514 2385.46 386.265 2384.58 387.108 2383.7 387.951 2383 388.977 2382.49 390.187 2381.98 391.397 2381.61 392.881 2381.39 394.641L2380.84 399.808C2380.4 403.621 2380.93 406.443 2382.44 408.276 2383.94 410.108 2386.27 411.025 2389.42 411.025 2392.28 411.025 2394.79 410.127 2396.96 408.33 2399.12 406.535 2400.39 403.877 2400.75 400.358ZM2272.58 354.835C2265.91 354.835 2262.13 358.72 2261.25 366.491L2259.93 378.806 2280.83 378.806 2282.04 367.26C2282.41 363.228 2281.8 360.149 2280.23 358.023 2278.65 355.897 2276.1 354.835 2272.58 354.835ZM1959.71 354.835C1953.03 354.835 1949.26 358.72 1948.38 366.491L1947.06 378.806 1967.96 378.806 1969.17 367.26C1969.54 363.228 1968.93 360.149 1967.35 358.023 1965.78 355.897 1963.23 354.835 1959.71 354.835ZM2310.07 354.834C2303.61 354.834 2299.95 358.426 2299.07 365.61L2295.66 399.698C2295.29 403.363 2295.88 406.186 2297.42 408.165 2298.96 410.144 2301.38 411.134 2304.68 411.134 2307.83 411.134 2310.44 409.998 2312.49 407.725 2314.54 405.453 2315.79 402.191 2316.23 397.939L2319.53 366.82C2319.97 362.935 2319.24 359.966 2317.33 357.913 2315.42 355.861 2313 354.834 2310.07 354.834ZM2664.31 351.756 2668.71 351.756 2662.22 414.103 2657.82 414.103ZM2602.89 351.756 2607.29 351.756 2613.34 401.128 2613.45 401.128 2630.29 351.756 2634.58 351.756 2612.24 416.413C2611.29 419.198 2610.13 421.159 2608.78 422.296 2607.42 423.432 2605.24 424 2602.23 424L2598.6 424 2599.04 420.481 2602.01 420.481C2604.14 420.481 2605.59 420.096 2606.36 419.327 2607.13 418.557 2607.84 417.182 2608.5 415.203L2611.03 407.945 2610.04 407.945ZM2189.84 351.756 2194.25 351.756 2187.75 414.103 2183.35 414.103ZM2721 351.206C2730.53 351.206 2734.82 355.751 2733.87 364.841L2733.32 370.119 2729.14 370.119 2729.69 364.841C2730.06 361.322 2729.51 358.775 2728.04 357.199 2726.57 355.622 2724.22 354.835 2721 354.835 2717.77 354.835 2715.39 355.568 2713.85 357.034 2712.31 358.5 2711.39 360.553 2711.1 363.192L2710.88 365.171C2710.66 367.443 2710.97 369.459 2711.81 371.219 2712.65 372.978 2714.4 374.994 2717.04 377.267L2723.64 382.875C2726.86 385.66 2728.99 388.299 2730.02 390.792 2731.05 393.284 2731.38 396.143 2731.01 399.369L2730.79 401.458C2730.35 405.783 2729.05 409.064 2726.88 411.299 2724.72 413.535 2721.22 414.653 2716.38 414.653 2711.32 414.653 2707.67 413.352 2705.43 410.75 2703.19 408.147 2702.29 404.61 2702.73 400.139L2703.39 393.981 2707.57 393.981 2706.91 400.248C2706.55 403.621 2707.12 406.26 2708.62 408.166 2710.12 410.071 2712.71 411.025 2716.38 411.025 2719.9 411.025 2722.39 410.2 2723.86 408.55 2725.32 406.901 2726.24 404.5 2726.61 401.348L2726.83 399.369C2727.12 396.73 2726.85 394.439 2726 392.496 2725.16 390.553 2723.34 388.373 2720.56 385.953L2713.96 380.236C2711.17 377.816 2709.19 375.434 2708.02 373.088 2706.84 370.742 2706.44 367.993 2706.8 364.841L2707.02 362.862C2707.46 359.27 2708.8 356.429 2711.04 354.34 2713.28 352.25 2716.6 351.206 2721 351.206ZM2688.6 351.206C2693.66 351.206 2697.25 352.525 2699.38 355.164 2701.51 357.804 2702.31 361.652 2701.8 366.71L2701.36 370.889 2697.07 370.889 2697.51 366.491C2697.87 362.678 2697.34 359.783 2695.91 357.804 2694.48 355.824 2692.01 354.835 2688.49 354.835 2681.81 354.835 2678.03 358.72 2677.15 366.491L2673.74 398.929C2673.38 402.741 2674.04 405.71 2675.72 407.836 2677.41 409.961 2679.98 411.025 2683.43 411.025 2686.73 411.025 2689.26 410.182 2691.02 408.495 2692.78 406.809 2693.84 404.134 2694.21 400.468L2694.87 393.431 2699.16 393.431 2698.39 400.468C2697.87 405.307 2696.39 408.88 2693.93 411.189 2691.48 413.499 2687.94 414.653 2683.32 414.653 2678.33 414.653 2674.64 413.169 2672.26 410.2 2669.87 407.231 2668.98 403.144 2669.56 397.939L2672.86 366.71C2673.38 361.652 2674.99 357.804 2677.7 355.164 2680.42 352.525 2684.05 351.206 2688.6 351.206ZM2574.92 351.206C2579.83 351.206 2583.26 352.507 2585.2 355.109 2587.15 357.712 2587.86 361.359 2587.35 366.051L2582.4 414.103 2578 414.103 2578.66 407.945 2578.44 407.945C2577.41 409.852 2575.98 411.446 2574.15 412.729 2572.31 414.012 2570 414.653 2567.22 414.653 2563.11 414.653 2559.95 413.462 2557.75 411.079 2555.55 408.697 2554.71 404.977 2555.22 399.918L2555.77 394.641C2556.07 392.221 2556.6 390.205 2557.37 388.593 2558.14 386.98 2559.15 385.624 2560.39 384.524 2561.64 383.424 2563.09 382.471 2564.74 381.665 2566.39 380.859 2568.28 380.016 2570.41 379.136 2574.88 377.303 2578.02 375.746 2579.81 374.463 2581.61 373.18 2582.58 371.695 2582.73 370.009L2583.06 365.831C2583.43 362.312 2583.02 359.6 2581.85 357.694 2580.68 355.788 2578.33 354.835 2574.81 354.835 2571.51 354.835 2569.09 355.696 2567.55 357.419 2566.01 359.141 2565.09 361.652 2564.8 364.951L2564.14 370.889 2559.95 370.889 2560.5 364.731C2561.02 360.479 2562.43 357.162 2564.74 354.78 2567.05 352.397 2570.44 351.206 2574.92 351.206ZM2542.74 351.206C2546.62 351.206 2549.59 352.489 2551.65 355.055 2553.7 357.62 2554.44 361.579 2553.85 366.93L2549.01 414.103 2544.61 414.103 2549.56 366.93C2550 362.972 2549.54 359.966 2548.18 357.913 2546.83 355.861 2544.5 354.835 2541.2 354.835 2537.9 354.835 2535.22 356.063 2533.16 358.518 2531.11 360.974 2529.9 364.071 2529.53 367.81L2524.69 414.103 2520.29 414.103 2526.78 351.756 2531.18 351.756 2530.41 358.793 2530.52 358.793C2531.4 356.887 2532.83 355.146 2534.81 353.57 2536.8 351.994 2539.44 351.206 2542.74 351.206ZM2454.58 351.206C2459.5 351.206 2462.93 352.507 2464.87 355.109 2466.81 357.712 2467.53 361.359 2467.01 366.051L2462.06 414.103 2457.66 414.103 2458.32 407.945 2458.1 407.945C2457.08 409.852 2455.65 411.446 2453.81 412.729 2451.98 414.012 2449.67 414.653 2446.88 414.653 2442.77 414.653 2439.62 413.462 2437.42 411.079 2435.22 408.697 2434.37 404.977 2434.89 399.918L2435.44 394.641C2435.73 392.221 2436.26 390.205 2437.03 388.593 2437.8 386.98 2438.81 385.624 2440.06 384.524 2441.31 383.424 2442.75 382.471 2444.41 381.665 2446.06 380.859 2447.94 380.016 2450.07 379.136 2454.55 377.303 2457.68 375.746 2459.48 374.463 2461.27 373.18 2462.25 371.695 2462.39 370.009L2462.72 365.831C2463.09 362.312 2462.69 359.6 2461.51 357.694 2460.34 355.788 2457.99 354.835 2454.47 354.835 2451.17 354.835 2448.75 355.696 2447.21 357.419 2445.67 359.141 2444.75 361.652 2444.46 364.951L2443.8 370.889 2439.62 370.889 2440.17 364.731C2440.68 360.479 2442.09 357.162 2444.41 354.78 2446.72 352.397 2450.11 351.206 2454.58 351.206ZM2396.13 351.206C2401.05 351.206 2404.48 352.507 2406.42 355.109 2408.36 357.712 2409.08 361.359 2408.57 366.051L2403.61 414.103 2399.21 414.103 2399.87 407.945 2399.65 407.945C2398.63 409.852 2397.2 411.446 2395.36 412.729 2393.53 414.012 2391.22 414.653 2388.43 414.653 2384.32 414.653 2381.17 413.462 2378.97 411.079 2376.77 408.697 2375.93 404.977 2376.44 399.918L2376.99 394.641C2377.28 392.221 2377.82 390.205 2378.58 388.593 2379.36 386.98 2380.36 385.624 2381.61 384.524 2382.86 383.424 2384.31 382.471 2385.96 381.665 2387.61 380.859 2389.5 380.016 2391.62 379.136 2396.1 377.303 2399.23 375.746 2401.03 374.463 2402.83 373.18 2403.8 371.695 2403.95 370.009L2404.27 365.831C2404.64 362.312 2404.24 359.6 2403.06 357.694 2401.89 355.788 2399.54 354.835 2396.02 354.835 2392.72 354.835 2390.3 355.696 2388.76 357.419 2387.22 359.141 2386.3 361.652 2386.01 364.951L2385.35 370.889 2381.17 370.889 2381.72 364.731C2382.23 360.479 2383.65 357.162 2385.96 354.78 2388.27 352.397 2391.66 351.206 2396.13 351.206ZM2272.8 351.206C2277.64 351.206 2281.22 352.617 2283.53 355.439 2285.84 358.262 2286.7 362.239 2286.11 367.37L2284.57 382.325 2259.49 382.325 2257.84 398.159C2257.4 402.338 2258.09 405.527 2259.93 407.726 2261.76 409.925 2264.48 411.025 2268.07 411.025 2271.52 411.025 2274.05 410.071 2275.66 408.166 2277.27 406.26 2278.3 403.291 2278.74 399.259L2279.29 393.431 2283.47 393.431 2282.81 399.369C2282.23 404.647 2280.78 408.514 2278.47 410.969 2276.16 413.426 2272.65 414.653 2267.96 414.653 2262.9 414.653 2259.08 413.187 2256.52 410.255 2253.95 407.322 2252.96 403.217 2253.55 397.939L2256.85 366.491C2257.36 361.505 2258.96 357.712 2261.63 355.109 2264.31 352.507 2268.03 351.206 2272.8 351.206ZM2212.15 351.206C2221.69 351.206 2225.98 355.751 2225.02 364.841L2224.47 370.119 2220.29 370.119 2220.84 364.841C2221.21 361.322 2220.66 358.775 2219.19 357.199 2217.73 355.622 2215.38 354.835 2212.15 354.835 2208.92 354.835 2206.54 355.568 2205 357.034 2203.46 358.5 2202.54 360.553 2202.25 363.192L2202.03 365.171C2201.81 367.443 2202.12 369.459 2202.96 371.219 2203.81 372.978 2205.55 374.994 2208.19 377.267L2214.79 382.875C2218.02 385.66 2220.15 388.299 2221.17 390.792 2222.2 393.284 2222.53 396.143 2222.16 399.369L2221.94 401.458C2221.5 405.783 2220.2 409.064 2218.04 411.299 2215.87 413.535 2212.37 414.653 2207.53 414.653 2202.47 414.653 2198.82 413.352 2196.58 410.75 2194.35 408.147 2193.45 404.61 2193.89 400.139L2194.55 393.981 2198.73 393.981 2198.07 400.248C2197.7 403.621 2198.27 406.26 2199.77 408.166 2201.28 410.071 2203.86 411.025 2207.53 411.025 2211.05 411.025 2213.54 410.2 2215.01 408.55 2216.48 406.901 2217.4 404.5 2217.76 401.348L2217.98 399.369C2218.28 396.73 2218 394.439 2217.16 392.496 2216.31 390.553 2214.5 388.373 2211.71 385.953L2205.11 380.236C2202.32 377.816 2200.34 375.434 2199.17 373.088 2198 370.742 2197.59 367.993 2197.96 364.841L2198.18 362.862C2198.62 359.27 2199.96 356.429 2202.19 354.34 2204.43 352.25 2207.75 351.206 2212.15 351.206ZM2167.46 351.206C2176.99 351.206 2181.28 355.751 2180.33 364.841L2179.78 370.119 2175.6 370.119 2176.15 364.841C2176.51 361.322 2175.96 358.775 2174.5 357.199 2173.03 355.622 2170.68 354.835 2167.46 354.835 2164.23 354.835 2161.84 355.568 2160.3 357.034 2158.76 358.5 2157.85 360.553 2157.55 363.192L2157.33 365.171C2157.11 367.443 2157.42 369.459 2158.27 371.219 2159.11 372.978 2160.85 374.994 2163.49 377.267L2170.1 382.875C2173.32 385.66 2175.45 388.299 2176.48 390.792 2177.5 393.284 2177.83 396.143 2177.47 399.369L2177.25 401.458C2176.81 405.783 2175.5 409.064 2173.34 411.299 2171.18 413.535 2167.68 414.653 2162.83 414.653 2157.77 414.653 2154.12 413.352 2151.89 410.75 2149.65 408.147 2148.75 404.61 2149.19 400.139L2149.85 393.981 2154.03 393.981 2153.37 400.248C2153.01 403.621 2153.57 406.26 2155.08 408.166 2156.58 410.071 2159.17 411.025 2162.83 411.025 2166.35 411.025 2168.85 410.2 2170.32 408.55 2171.78 406.901 2172.7 404.5 2173.07 401.348L2173.29 399.369C2173.58 396.73 2173.3 394.439 2172.46 392.496 2171.62 390.553 2169.8 388.373 2167.02 385.953L2160.41 380.236C2157.63 377.816 2155.65 375.434 2154.47 373.088 2153.3 370.742 2152.9 367.993 2153.26 364.841L2153.48 362.862C2153.92 359.27 2155.26 356.429 2157.5 354.34 2159.74 352.25 2163.05 351.206 2167.46 351.206ZM2133.07 351.206C2142.61 351.206 2146.9 355.751 2145.95 364.841L2145.4 370.119 2141.22 370.119 2141.77 364.841C2142.13 361.322 2141.58 358.775 2140.11 357.199 2138.65 355.622 2136.3 354.835 2133.07 354.835 2129.85 354.835 2127.46 355.568 2125.92 357.034 2124.38 358.5 2123.47 360.553 2123.17 363.192L2122.95 365.171C2122.73 367.443 2123.04 369.459 2123.89 371.219 2124.73 372.978 2126.47 374.994 2129.11 377.267L2135.71 382.875C2138.94 385.66 2141.07 388.299 2142.1 390.792 2143.12 393.284 2143.45 396.143 2143.09 399.369L2142.87 401.458C2142.43 405.783 2141.12 409.064 2138.96 411.299 2136.8 413.535 2133.29 414.653 2128.45 414.653 2123.39 414.653 2119.74 413.352 2117.51 410.75 2115.27 408.147 2114.37 404.61 2114.81 400.139L2115.47 393.981 2119.65 393.981 2118.99 400.248C2118.62 403.621 2119.19 406.26 2120.7 408.166 2122.2 410.071 2124.79 411.025 2128.45 411.025 2131.97 411.025 2134.47 410.2 2135.93 408.55 2137.4 406.901 2138.32 404.5 2138.68 401.348L2138.9 399.369C2139.2 396.73 2138.92 394.439 2138.08 392.496 2137.24 390.553 2135.42 388.373 2132.63 385.953L2126.03 380.236C2123.25 377.816 2121.26 375.434 2120.09 373.088 2118.92 370.742 2118.51 367.993 2118.88 364.841L2119.1 362.862C2119.54 359.27 2120.88 356.429 2123.12 354.34 2125.35 352.25 2128.67 351.206 2133.07 351.206ZM1999.51 351.206C2003.4 351.206 2006.37 352.489 2008.42 355.055 2010.47 357.62 2011.21 361.579 2010.62 366.93L2005.78 414.103 2001.38 414.103 2006.33 366.93C2006.77 362.972 2006.31 359.966 2004.95 357.913 2003.6 355.861 2001.27 354.835 1997.97 354.835 1994.67 354.835 1991.99 356.063 1989.94 358.518 1987.88 360.974 1986.67 364.071 1986.31 367.81L1981.47 414.103 1977.06 414.103 1983.56 351.756 1987.96 351.756 1987.19 358.793 1987.3 358.793C1988.18 356.887 1989.61 355.146 1991.59 353.57 1993.57 351.994 1996.21 351.206 1999.51 351.206ZM1959.93 351.206C1964.77 351.206 1968.35 352.617 1970.66 355.439 1972.97 358.262 1973.83 362.239 1973.24 367.37L1971.7 382.325 1946.62 382.325 1944.97 398.159C1944.53 402.338 1945.22 405.527 1947.06 407.726 1948.89 409.925 1951.6 411.025 1955.2 411.025 1958.65 411.025 1961.18 410.071 1962.79 408.166 1964.4 406.26 1965.43 403.291 1965.87 399.259L1966.42 393.431 1970.6 393.431 1969.94 399.369C1969.35 404.647 1967.91 408.514 1965.59 410.969 1963.28 413.426 1959.78 414.653 1955.09 414.653 1950.03 414.653 1946.21 413.187 1943.65 410.255 1941.08 407.322 1940.09 403.217 1940.67 397.939L1943.98 366.491C1944.49 361.505 1946.08 357.712 1948.76 355.109 1951.44 352.507 1955.16 351.206 1959.93 351.206ZM2504.92 346.367 2491.6 390.901 2509.32 390.901 2505.03 346.367ZM2099.21 346.367 2085.9 390.901 2103.62 390.901 2099.32 346.367ZM2033.89 346.367 2020.58 390.901 2038.29 390.901 2034 346.367ZM2350.06 343.288 2342.91 410.364 2352.92 410.364C2357.54 410.364 2360.92 409.155 2363.04 406.736 2365.17 404.317 2366.42 401.201 2366.79 397.389L2370.97 357.693C2371.19 355.714 2371.17 353.845 2370.91 352.085 2370.65 350.326 2370.09 348.786 2369.21 347.467 2368.33 346.147 2367.1 345.121 2365.52 344.388 2363.94 343.655 2361.91 343.288 2359.41 343.288ZM2665.63 339.55 2670.03 339.55 2669.59 343.948 2665.19 343.948ZM2644.53 339.55 2648.82 339.55 2647.5 351.755 2656.64 351.755 2656.31 355.164 2647.17 355.164 2642 404.096C2641.78 406.222 2642 407.835 2642.66 408.935 2643.32 410.035 2644.83 410.584 2647.17 410.584L2650.47 410.584 2650.14 414.103 2646.73 414.103C2642.77 414.103 2640.19 413.205 2638.98 411.409 2637.77 409.613 2637.34 407.029 2637.71 403.657L2642.88 355.164 2637.82 355.164 2638.26 351.755 2643.21 351.755ZM2596.87 339.55 2601.27 339.55 2593.46 414.103 2589.06 414.103ZM2502.83 339.55 2508.55 339.55 2516.14 414.103 2511.63 414.103 2509.76 394.64 2490.5 394.64 2484.78 414.103 2480.38 414.103ZM2421.05 339.55 2425.34 339.55 2424.02 351.755 2433.16 351.755 2432.83 355.164 2423.69 355.164 2418.52 404.096C2418.3 406.222 2418.52 407.835 2419.18 408.935 2419.84 410.035 2421.35 410.584 2423.69 410.584L2426.99 410.584 2426.66 414.103 2423.25 414.103C2419.29 414.103 2416.71 413.205 2415.5 411.409 2414.29 409.613 2413.86 407.029 2414.23 403.657L2419.4 355.164 2414.34 355.164 2414.78 351.755 2419.73 351.755ZM2345.88 339.55 2360.18 339.55C2363.41 339.55 2366.07 340.044 2368.16 341.034 2370.25 342.024 2371.88 343.38 2373.06 345.103 2374.23 346.825 2375 348.841 2375.37 351.15 2375.73 353.46 2375.77 355.971 2375.48 358.683L2371.41 397.169C2371.11 399.588 2370.56 401.842 2369.76 403.932 2368.95 406.021 2367.83 407.817 2366.4 409.32 2364.97 410.823 2363.17 411.995 2361.01 412.839 2358.85 413.682 2356.3 414.103 2353.36 414.103L2338.07 414.103ZM2322.39 339.55 2326.68 339.55 2318.98 414.103 2314.69 414.103 2315.35 406.956 2315.24 406.956C2314.36 408.935 2313 410.713 2311.17 412.289 2309.34 413.865 2306.73 414.653 2303.36 414.653 2299.47 414.653 2296.35 413.407 2294.01 410.914 2291.66 408.422 2290.74 404.61 2291.26 399.478L2294.78 365.06C2295.36 360.222 2296.94 356.704 2299.51 354.504 2302.07 352.305 2305.19 351.206 2308.86 351.206 2312.23 351.206 2314.82 351.939 2316.62 353.405 2318.41 354.871 2319.64 356.557 2320.3 358.463L2320.41 358.463ZM2238.83 339.55 2243.12 339.55 2241.8 351.755 2250.93 351.755 2250.6 355.164 2241.47 355.164 2236.3 404.096C2236.08 406.222 2236.3 407.835 2236.96 408.935 2237.62 410.035 2239.12 410.584 2241.47 410.584L2244.77 410.584 2244.44 414.103 2241.03 414.103C2237.07 414.103 2234.49 413.205 2233.28 411.409 2232.06 409.613 2231.64 407.029 2232.01 403.657L2237.18 355.164 2232.12 355.164 2232.56 351.755 2237.51 351.755ZM2191.16 339.55 2195.57 339.55 2195.13 343.948 2190.72 343.948ZM2097.12 339.55 2102.85 339.55 2110.44 414.103 2105.93 414.103 2104.06 394.64 2084.8 394.64 2079.08 414.103 2074.68 414.103ZM2057.08 339.55 2061.59 339.55 2053.78 414.103 2049.27 414.103ZM2031.8 339.55 2037.52 339.55 2045.11 414.103 2040.6 414.103 2038.73 394.64 2019.48 394.64 2013.76 414.103 2009.36 414.103ZM1924.31 339C1927.39 339 1929.9 339.421 1931.85 340.264 1933.79 341.108 1935.29 342.299 1936.36 343.838 1937.42 345.378 1938.1 347.21 1938.39 349.336 1938.69 351.462 1938.69 353.808 1938.39 356.374L1937.73 362.311 1933.55 362.311 1934.32 355.714C1934.54 353.808 1934.56 352.048 1934.38 350.436 1934.19 348.823 1933.73 347.449 1933 346.312 1932.27 345.176 1931.19 344.296 1929.76 343.673 1928.32 343.05 1926.47 342.739 1924.2 342.739 1922.15 342.739 1920.39 343.068 1918.92 343.728 1917.45 344.388 1916.22 345.304 1915.23 346.477 1914.24 347.65 1913.49 349.024 1912.98 350.601 1912.46 352.177 1912.1 353.881 1911.88 355.714L1907.7 396.399C1907.48 398.379 1907.49 400.248 1907.75 402.007 1908.01 403.767 1908.54 405.306 1909.35 406.626 1910.15 407.945 1911.29 408.99 1912.76 409.76 1914.22 410.529 1916.02 410.914 1918.15 410.914 1922.18 410.914 1925.1 409.723 1926.89 407.34 1928.69 404.958 1929.77 401.934 1930.14 398.269L1931.9 380.785 1921.78 380.785 1922.11 377.046 1936.52 377.046 1932.56 414.103 1928.71 414.103 1929.48 407.176C1928.6 409.228 1927.22 410.987 1925.35 412.454 1923.48 413.92 1920.72 414.653 1917.05 414.653 1914.26 414.653 1911.93 414.14 1910.06 413.113 1908.19 412.087 1906.71 410.713 1905.61 408.99 1904.51 407.267 1903.75 405.233 1903.35 402.887 1902.95 400.541 1902.89 398.049 1903.19 395.41L1907.26 356.044C1907.55 353.625 1908.08 351.371 1908.85 349.281 1909.62 347.192 1910.69 345.378 1912.04 343.838 1913.4 342.299 1915.09 341.108 1917.1 340.264 1919.12 339.421 1921.52 339 1924.31 339Z" fill-rule="evenodd"/><path d="M1488.51 181.827C1486.48 182.04 1484.47 182.872 1482.55 184.551 1478.48 188.123 1477.73 194.135 1482.31 197.663 1491.21 204.519 1500.45 210.877 1510.03 216.737 1513.69 218.973 1520.4 223.061 1524.29 222.964 1528.84 222.849 1525.01 215.476 1524.07 213.87 1518.91 205.103 1511.51 197.932 1504.72 190.456 1500.77 186.12 1494.58 181.188 1488.51 181.827ZM1488.74 167.199C1497.99 166.137 1507.5 166.608 1515.94 168.004 1519.53 168.598 1522.36 169.364 1524.44 170.302 1532.71 174.028 1536.92 181.773 1536.57 191.303 1536.33 197.724 1537.67 203.969 1540.42 209.773 1540.49 209.909 1540.56 209.911 1540.64 209.782 1542.17 207.3 1544 205.042 1546.12 203.008 1551.61 197.739 1557.28 192.682 1563.15 187.837 1563.2 187.792 1563.27 187.783 1563.34 187.815 1580.75 196.768 1599.83 199.705 1619.25 198.765 1638.25 197.845 1656.71 194.236 1674.63 187.938 1674.77 187.888 1674.9 187.907 1675.02 187.996 1695.1 202.739 1721.29 200.759 1743.16 191.704 1762.64 183.638 1783.27 177.976 1805.24 172.538 1806.31 172.277 1807.86 172.463 1809.01 172.97 1815.65 175.884 1822.61 177.254 1829.91 177.08 1830.8 177.058 1832.26 177.742 1832.88 178.527 1838.88 186.051 1818.98 190.536 1814.83 191.599 1798.69 195.735 1783.39 206.06 1769.85 215.467 1744.94 232.768 1719.72 250.964 1693.46 264.614 1679.05 272.099 1664.05 278.086 1648.44 282.572 1648.37 282.591 1648.33 282.663 1648.35 282.732 1648.36 282.76 1648.38 282.784 1648.4 282.802 1652.53 285.927 1656.48 289.244 1660.25 292.751 1663.1 295.409 1665.25 298.327 1666.7 301.505 1670.42 309.686 1663.12 313.885 1656.68 316.09 1646.15 319.702 1634.83 320.941 1624.34 321.832 1621.87 322.044 1619.36 322.056 1616.81 321.867 1607.5 321.179 1576.07 318.679 1573.33 307.265 1571.4 299.221 1584.34 289.219 1589.88 284.795 1589.96 284.731 1589.97 284.618 1589.91 284.542 1589.88 284.511 1589.85 284.489 1589.81 284.482 1578.65 282.114 1567.95 277.752 1558.69 271.185 1550.28 265.223 1543.35 259.123 1538 250.126 1537.92 249.994 1537.81 249.899 1537.68 249.84 1534.04 248.287 1532.13 249.659 1529.44 251.9 1523.18 257.13 1509.36 253.65 1505.16 247.066 1502.72 243.238 1503.48 238.179 1506.64 235.074 1508.23 233.513 1510.33 232.524 1512.93 232.107 1513.01 232.093 1513.06 232.021 1513.04 231.947 1513.04 231.912 1513.02 231.88 1512.99 231.859 1509.6 229.685 1506.61 228.375 1502.16 226.497 1492.67 222.488 1482.86 219.255 1473.1 215.987 1469.21 214.685 1466.49 213.589 1464.92 212.702 1457.31 208.375 1450.9 199.652 1452.16 190.439 1453.01 184.199 1457.87 178.862 1463 175.603 1470.47 170.86 1479.48 168.262 1488.74 167.199ZM1619.01 103.042C1622.96 102.639 1627.04 105.146 1630.4 111.112 1635.76 120.608 1640.72 139.148 1632.81 148.59 1632.72 148.699 1632.67 148.823 1632.66 148.961 1632.43 152.78 1632.93 154.99 1635.71 157.596 1644.14 165.516 1654.02 172.216 1663.22 179.245 1663.38 179.369 1663.37 179.462 1663.18 179.523 1635.23 188.414 1601 191.29 1573.38 179.806 1573.22 179.738 1573.21 179.648 1573.34 179.537 1582.71 171.969 1592.08 165.311 1601.44 159.563 1605.48 157.084 1607.27 153.519 1606.82 148.868 1606.8 148.715 1606.74 148.578 1606.64 148.458 1599.01 139.276 1603.51 121.931 1608.34 112.422 1611.23 106.755 1615.06 103.444 1619.01 103.042Z" fill-rule="evenodd"/></g></svg>