<svg width="1282" height="322" xmlns="http://www.w3.org/2000/svg" xmlns:xlink="http://www.w3.org/1999/xlink" xml:space="preserve" overflow="hidden"><defs><clipPath id="clip0"><rect x="1447" y="1387" width="1282" height="322"/></clipPath></defs><g clip-path="url(#clip0)" transform="translate(-1447 -1387)"><path d="M2687.15 1484.06C2682.53 1484.06 2679.19 1485.51 2677.12 1488.4 2675.06 1491.29 2674.03 1495.13 2674.03 1499.93L2674.03 1516.53 2699.77 1516.53 2699.77 1499.93C2699.77 1495.13 2698.78 1491.29 2696.8 1488.4 2694.82 1485.51 2691.6 1484.06 2687.15 1484.06ZM2460.29 1484.06C2455.67 1484.06 2452.33 1485.51 2450.27 1488.4 2448.21 1491.29 2447.18 1495.13 2447.18 1499.93L2447.18 1516.53 2472.91 1516.53 2472.91 1499.93C2472.91 1495.13 2471.92 1491.29 2469.94 1488.4 2467.96 1485.51 2464.75 1484.06 2460.29 1484.06ZM2606.06 1463.49 2633.28 1463.49 2633.28 1604.02 2606.06 1604.02ZM2687.15 1461.51C2700.68 1461.51 2710.53 1465.15 2716.72 1472.42 2722.91 1479.69 2726 1489.68 2726 1502.4L2726 1536.36 2674.03 1536.36 2674.03 1567.59C2674.03 1572.38 2675.14 1576.22 2677.37 1579.11 2679.6 1582 2683.02 1583.45 2687.64 1583.45 2692.1 1583.45 2695.31 1582.04 2697.29 1579.23 2699.27 1576.42 2700.26 1572.54 2700.26 1567.59L2700.26 1548.5 2726 1548.5 2726 1565.11C2726 1577.83 2722.91 1587.83 2716.72 1595.09 2710.53 1602.36 2700.68 1606 2687.15 1606 2680.38 1606 2674.44 1604.97 2669.33 1602.9 2664.21 1600.84 2660.01 1597.9 2656.71 1594.1 2653.41 1590.3 2650.93 1585.8 2649.28 1580.6 2647.63 1575.39 2646.81 1569.65 2646.81 1563.37L2646.81 1504.14C2646.81 1491.42 2650.11 1481.13 2656.71 1473.28 2663.31 1465.43 2673.45 1461.51 2687.15 1461.51ZM2565.47 1461.51C2574.05 1461.51 2580.61 1464.32 2585.15 1469.94 2589.68 1475.55 2591.95 1484.56 2591.95 1496.95L2591.95 1604.02 2564.73 1604.02 2564.73 1498.19C2564.73 1493.89 2563.94 1490.42 2562.38 1487.78 2560.81 1485.14 2557.63 1483.82 2552.85 1483.82 2548.06 1483.82 2544.81 1485.14 2543.07 1487.78 2541.34 1490.42 2540.48 1493.89 2540.48 1498.19L2540.48 1604.02 2513.25 1604.02 2513.25 1463.49 2540.48 1463.49 2540.48 1477.87 2540.97 1477.87C2542.62 1473.74 2545.3 1469.98 2549.01 1466.59 2552.73 1463.2 2558.21 1461.51 2565.47 1461.51ZM2460.29 1461.51C2473.82 1461.51 2483.68 1465.15 2489.87 1472.42 2496.05 1479.69 2499.15 1489.68 2499.15 1502.4L2499.15 1536.36 2447.18 1536.36 2447.18 1567.59C2447.18 1572.38 2448.29 1576.22 2450.52 1579.11 2452.75 1582 2456.17 1583.45 2460.79 1583.45 2465.24 1583.45 2468.46 1582.04 2470.44 1579.23 2472.42 1576.42 2473.41 1572.54 2473.41 1567.59L2473.41 1548.5 2499.15 1548.5 2499.15 1565.11C2499.15 1577.83 2496.05 1587.83 2489.87 1595.09 2483.68 1602.36 2473.82 1606 2460.29 1606 2453.53 1606 2447.59 1604.97 2442.48 1602.9 2437.36 1600.84 2433.15 1597.9 2429.85 1594.1 2426.55 1590.3 2424.08 1585.8 2422.43 1580.6 2420.78 1575.39 2419.95 1569.65 2419.95 1563.37L2419.95 1504.14C2419.95 1491.42 2423.25 1481.13 2429.85 1473.28 2436.45 1465.43 2446.6 1461.51 2460.29 1461.51ZM2022.45 1459.03 2022.45 1525.2 2032.85 1525.2C2042.09 1525.2 2046.71 1520.58 2046.71 1511.33L2046.71 1472.66C2046.71 1463.58 2042.09 1459.03 2032.85 1459.03ZM2606.06 1435.98 2633.28 1435.98 2633.28 1457.3 2606.06 1457.3ZM2087.04 1435.98 2119.96 1435.98 2138.27 1530.66 2138.52 1530.66 2154.85 1435.98 2190.49 1435.98 2190.49 1604.02 2164.75 1604.02 2164.75 1494.97 2164.01 1494.97 2144.95 1604.02 2131.84 1604.02 2110.8 1494.97 2110.31 1494.97 2110.31 1604.02 2087.04 1604.02ZM1994.24 1435.98 2036.06 1435.98C2050.25 1435.98 2060.28 1439.33 2066.13 1446.02 2071.99 1452.71 2074.92 1461.92 2074.92 1473.65L2074.92 1509.1C2074.92 1520.83 2071.99 1530.08 2066.13 1536.85 2060.28 1543.63 2050.25 1547.01 2036.06 1547.01L2022.45 1547.01 2022.45 1604.02 1994.24 1604.02ZM1898 1435.98 1926.21 1435.98 1926.21 1509.84 1956.9 1435.98 1984.62 1435.98 1951.95 1511.57 1985.36 1604.02 1955.66 1604.02 1926.21 1522.23 1926.21 1604.02 1898 1604.02ZM2366.53 1434C2374.28 1434 2380.76 1435.03 2385.95 1437.1 2391.15 1439.16 2395.28 1442.06 2398.33 1445.77 2401.38 1449.49 2403.57 1453.95 2404.89 1459.16 2406.21 1464.36 2406.87 1470.02 2406.87 1476.13L2406.87 1491 2381.13 1491 2381.13 1473.9C2381.13 1468.61 2380.06 1464.57 2377.91 1461.76 2375.77 1458.95 2372.14 1457.54 2367.02 1457.54 2361.91 1457.54 2358.2 1459.16 2355.89 1462.38 2353.58 1465.6 2352.42 1469.77 2352.42 1474.89L2352.42 1565.11C2352.42 1570.23 2353.54 1574.4 2355.76 1577.62 2357.99 1580.84 2361.5 1582.46 2366.28 1582.46 2375.52 1582.46 2380.14 1577.09 2380.14 1566.35L2380.14 1536.61 2366.78 1536.61 2366.78 1514.3 2406.87 1514.3 2406.87 1604.02 2386.57 1604.02 2386.57 1585.68C2384.76 1591.96 2381.75 1596.91 2377.54 1600.55 2373.33 1604.18 2367.35 1606 2359.6 1606 2353.49 1606 2348.21 1604.84 2343.76 1602.53 2339.31 1600.22 2335.63 1597.04 2332.75 1592.99 2329.86 1588.94 2327.72 1584.15 2326.31 1578.61 2324.91 1573.08 2324.21 1567.09 2324.21 1560.65L2324.21 1479.35C2324.21 1472.75 2325.03 1466.67 2326.68 1461.14 2328.33 1455.6 2330.85 1450.81 2334.23 1446.76 2337.61 1442.72 2341.99 1439.58 2347.35 1437.35 2352.71 1435.12 2359.1 1434 2366.53 1434ZM2246.23 1434C2253.98 1434 2260.46 1435.03 2265.65 1437.1 2270.85 1439.16 2274.98 1442.06 2278.03 1445.77 2281.08 1449.49 2283.27 1453.95 2284.59 1459.16 2285.91 1464.36 2286.57 1470.02 2286.57 1476.13L2286.57 1491 2260.83 1491 2260.83 1473.9C2260.83 1468.61 2259.76 1464.57 2257.61 1461.76 2255.47 1458.95 2251.84 1457.54 2246.72 1457.54 2241.61 1457.54 2237.9 1459.16 2235.59 1462.38 2233.28 1465.6 2232.12 1469.77 2232.12 1474.89L2232.12 1565.11C2232.12 1570.23 2233.23 1574.4 2235.46 1577.62 2237.69 1580.84 2241.19 1582.46 2245.98 1582.46 2255.22 1582.46 2259.84 1577.09 2259.84 1566.35L2259.84 1536.61 2246.47 1536.61 2246.47 1514.3 2286.57 1514.3 2286.57 1604.02 2266.27 1604.02 2266.27 1585.68C2264.46 1591.96 2261.45 1596.91 2257.24 1600.55 2253.03 1604.18 2247.05 1606 2239.3 1606 2233.19 1606 2227.91 1604.84 2223.46 1602.53 2219 1600.22 2215.33 1597.04 2212.45 1592.99 2209.56 1588.94 2207.41 1584.15 2206.01 1578.61 2204.61 1573.08 2203.91 1567.09 2203.91 1560.65L2203.91 1479.35C2203.91 1472.75 2204.73 1466.67 2206.38 1461.14 2208.03 1455.6 2210.55 1450.81 2213.93 1446.76 2217.31 1442.72 2221.69 1439.58 2227.05 1437.35 2232.41 1435.12 2238.8 1434 2246.23 1434Z" fill="#D9D9D9" fill-rule="evenodd"/><path d="M2576.96 1661.39C2576.67 1661.75 2576.3 1662.12 2575.86 1662.49 2575.42 1662.85 2574.81 1663.27 2574.04 1663.75 2573.27 1664.23 2572.25 1664.78 2570.96 1665.4 2569.68 1666.02 2568.05 1666.78 2566.07 1667.65 2564.38 1668.46 2562.89 1669.19 2561.61 1669.85 2560.33 1670.51 2559.25 1671.27 2558.37 1672.11 2557.48 1672.95 2556.79 1673.98 2556.27 1675.19 2555.76 1676.4 2555.39 1677.88 2555.17 1679.64L2554.62 1684.81C2554.18 1688.62 2554.72 1691.44 2556.22 1693.28 2557.72 1695.11 2560.05 1696.02 2563.21 1696.02 2566.07 1696.02 2568.58 1695.13 2570.74 1693.33 2572.91 1691.53 2574.17 1688.88 2574.54 1685.36ZM2456.62 1661.39C2456.33 1661.75 2455.96 1662.12 2455.52 1662.49 2455.08 1662.85 2454.48 1663.27 2453.71 1663.75 2452.94 1664.23 2451.91 1664.78 2450.63 1665.4 2449.34 1666.02 2447.71 1666.78 2445.73 1667.65 2444.04 1668.46 2442.56 1669.19 2441.28 1669.85 2439.99 1670.51 2438.91 1671.27 2438.03 1672.11 2437.15 1672.95 2436.45 1673.98 2435.94 1675.19 2435.43 1676.4 2435.06 1677.88 2434.84 1679.64L2434.29 1684.81C2433.85 1688.62 2434.38 1691.44 2435.88 1693.28 2437.39 1695.11 2439.72 1696.02 2442.87 1696.02 2445.73 1696.02 2448.24 1695.13 2450.41 1693.33 2452.57 1691.53 2453.84 1688.88 2454.2 1685.36ZM2398.17 1661.39C2397.88 1661.75 2397.51 1662.12 2397.07 1662.49 2396.63 1662.85 2396.03 1663.27 2395.26 1663.75 2394.49 1664.23 2393.46 1664.78 2392.18 1665.4 2390.9 1666.02 2389.26 1666.78 2387.28 1667.65 2385.6 1668.46 2384.11 1669.19 2382.83 1669.85 2381.54 1670.51 2380.46 1671.27 2379.58 1672.11 2378.7 1672.95 2378 1673.98 2377.49 1675.19 2376.98 1676.4 2376.61 1677.88 2376.39 1679.64L2375.84 1684.81C2375.4 1688.62 2375.93 1691.44 2377.44 1693.28 2378.94 1695.11 2381.27 1696.02 2384.42 1696.02 2387.28 1696.02 2389.79 1695.13 2391.96 1693.33 2394.12 1691.53 2395.39 1688.88 2395.75 1685.36ZM2267.58 1639.83C2260.91 1639.83 2257.13 1643.72 2256.25 1651.49L2254.93 1663.81 2275.83 1663.81 2277.04 1652.26C2277.41 1648.23 2276.8 1645.15 2275.23 1643.02 2273.65 1640.9 2271.1 1639.83 2267.58 1639.83ZM1954.71 1639.83C1948.03 1639.83 1944.26 1643.72 1943.38 1651.49L1942.06 1663.81 1962.96 1663.81 1964.17 1652.26C1964.54 1648.23 1963.93 1645.15 1962.35 1643.02 1960.78 1640.9 1958.23 1639.83 1954.71 1639.83ZM2305.07 1639.83C2298.61 1639.83 2294.95 1643.43 2294.07 1650.61L2290.66 1684.7C2290.29 1688.36 2290.88 1691.19 2292.42 1693.17 2293.96 1695.14 2296.38 1696.13 2299.68 1696.13 2302.83 1696.13 2305.44 1695 2307.49 1692.73 2309.54 1690.45 2310.79 1687.19 2311.23 1682.94L2314.53 1651.82C2314.97 1647.93 2314.24 1644.97 2312.33 1642.91 2310.42 1640.86 2308 1639.83 2305.07 1639.83ZM2659.31 1636.76 2663.71 1636.76 2657.22 1699.1 2652.82 1699.1ZM2597.89 1636.76 2602.29 1636.76 2608.34 1686.13 2608.45 1686.13 2625.29 1636.76 2629.58 1636.76 2607.24 1701.41C2606.29 1704.2 2605.13 1706.16 2603.78 1707.3 2602.42 1708.43 2600.24 1709 2597.23 1709L2593.6 1709 2594.04 1705.48 2597.01 1705.48C2599.14 1705.48 2600.59 1705.1 2601.36 1704.33 2602.13 1703.56 2602.84 1702.18 2603.5 1700.2L2606.03 1692.95 2605.04 1692.95ZM2184.84 1636.76 2189.25 1636.76 2182.75 1699.1 2178.35 1699.1ZM2716 1636.21C2725.53 1636.21 2729.82 1640.75 2728.87 1649.84L2728.32 1655.12 2724.14 1655.12 2724.69 1649.84C2725.06 1646.32 2724.51 1643.77 2723.04 1642.2 2721.57 1640.62 2719.22 1639.83 2716 1639.83 2712.77 1639.83 2710.39 1640.57 2708.85 1642.03 2707.31 1643.5 2706.39 1645.55 2706.1 1648.19L2705.88 1650.17C2705.66 1652.44 2705.97 1654.46 2706.81 1656.22 2707.65 1657.98 2709.4 1659.99 2712.04 1662.27L2718.64 1667.87C2721.87 1670.66 2723.99 1673.3 2725.02 1675.79 2726.05 1678.28 2726.38 1681.14 2726.01 1684.37L2725.79 1686.46C2725.35 1690.78 2724.05 1694.06 2721.88 1696.3 2719.72 1698.54 2716.22 1699.65 2711.38 1699.65 2706.32 1699.65 2702.67 1698.35 2700.43 1695.75 2698.19 1693.15 2697.29 1689.61 2697.73 1685.14L2698.39 1678.98 2702.57 1678.98 2701.92 1685.25C2701.55 1688.62 2702.12 1691.26 2703.62 1693.17 2705.12 1695.07 2707.71 1696.02 2711.38 1696.02 2714.9 1696.02 2717.39 1695.2 2718.86 1693.55 2720.33 1691.9 2721.24 1689.5 2721.61 1686.35L2721.83 1684.37C2722.12 1681.73 2721.85 1679.44 2721 1677.5 2720.16 1675.55 2718.34 1673.37 2715.56 1670.95L2708.96 1665.24C2706.17 1662.82 2704.19 1660.43 2703.02 1658.09 2701.84 1655.74 2701.44 1652.99 2701.8 1649.84L2702.02 1647.86C2702.46 1644.27 2703.8 1641.43 2706.04 1639.34 2708.28 1637.25 2711.6 1636.21 2716 1636.21ZM2683.6 1636.21C2688.66 1636.21 2692.25 1637.53 2694.38 1640.16 2696.51 1642.8 2697.31 1646.65 2696.8 1651.71L2696.36 1655.89 2692.07 1655.89 2692.51 1651.49C2692.87 1647.68 2692.34 1644.78 2690.91 1642.8 2689.48 1640.82 2687.01 1639.83 2683.49 1639.83 2676.81 1639.83 2673.03 1643.72 2672.15 1651.49L2668.74 1683.93C2668.38 1687.74 2669.04 1690.71 2670.72 1692.84 2672.41 1694.96 2674.98 1696.02 2678.43 1696.02 2681.73 1696.02 2684.26 1695.18 2686.02 1693.5 2687.78 1691.81 2688.84 1689.13 2689.21 1685.47L2689.87 1678.43 2694.16 1678.43 2693.39 1685.47C2692.87 1690.31 2691.39 1693.88 2688.93 1696.19 2686.48 1698.5 2682.94 1699.65 2678.32 1699.65 2673.33 1699.65 2669.64 1698.17 2667.26 1695.2 2664.87 1692.23 2663.98 1688.14 2664.56 1682.94L2667.86 1651.71C2668.38 1646.65 2669.99 1642.8 2672.7 1640.16 2675.42 1637.53 2679.05 1636.21 2683.6 1636.21ZM2569.92 1636.21C2574.83 1636.21 2578.26 1637.51 2580.2 1640.11 2582.15 1642.71 2582.86 1646.36 2582.35 1651.05L2577.4 1699.1 2573 1699.1 2573.66 1692.95 2573.44 1692.95C2572.41 1694.85 2570.98 1696.45 2569.15 1697.73 2567.31 1699.01 2565 1699.65 2562.22 1699.65 2558.11 1699.65 2554.95 1698.46 2552.75 1696.08 2550.55 1693.7 2549.71 1689.98 2550.22 1684.92L2550.77 1679.64C2551.07 1677.22 2551.6 1675.21 2552.37 1673.59 2553.14 1671.98 2554.15 1670.62 2555.39 1669.52 2556.64 1668.42 2558.09 1667.47 2559.74 1666.67 2561.39 1665.86 2563.28 1665.02 2565.41 1664.14 2569.88 1662.3 2573.02 1660.75 2574.81 1659.46 2576.61 1658.18 2577.58 1656.7 2577.73 1655.01L2578.06 1650.83C2578.43 1647.31 2578.02 1644.6 2576.85 1642.69 2575.68 1640.79 2573.33 1639.83 2569.81 1639.83 2566.51 1639.83 2564.09 1640.7 2562.55 1642.42 2561.01 1644.14 2560.09 1646.65 2559.8 1649.95L2559.14 1655.89 2554.95 1655.89 2555.5 1649.73C2556.02 1645.48 2557.43 1642.16 2559.74 1639.78 2562.05 1637.4 2565.44 1636.21 2569.92 1636.21ZM2537.74 1636.21C2541.62 1636.21 2544.59 1637.49 2546.65 1640.05 2548.7 1642.62 2549.44 1646.58 2548.85 1651.93L2544.01 1699.1 2539.61 1699.1 2544.56 1651.93C2545 1647.97 2544.54 1644.97 2543.18 1642.91 2541.83 1640.86 2539.5 1639.83 2536.2 1639.83 2532.9 1639.83 2530.22 1641.06 2528.16 1643.52 2526.11 1645.97 2524.9 1649.07 2524.53 1652.81L2519.69 1699.1 2515.29 1699.1 2521.78 1636.76 2526.18 1636.76 2525.41 1643.79 2525.52 1643.79C2526.4 1641.89 2527.83 1640.15 2529.81 1638.57 2531.8 1636.99 2534.44 1636.21 2537.74 1636.21ZM2449.58 1636.21C2454.5 1636.21 2457.93 1637.51 2459.87 1640.11 2461.81 1642.71 2462.53 1646.36 2462.01 1651.05L2457.06 1699.1 2452.66 1699.1 2453.32 1692.95 2453.1 1692.95C2452.08 1694.85 2450.65 1696.45 2448.81 1697.73 2446.98 1699.01 2444.67 1699.65 2441.88 1699.65 2437.77 1699.65 2434.62 1698.46 2432.42 1696.08 2430.22 1693.7 2429.38 1689.98 2429.89 1684.92L2430.44 1679.64C2430.73 1677.22 2431.26 1675.21 2432.03 1673.59 2432.8 1671.98 2433.81 1670.62 2435.06 1669.52 2436.31 1668.42 2437.75 1667.47 2439.41 1666.67 2441.06 1665.86 2442.94 1665.02 2445.07 1664.14 2449.55 1662.3 2452.68 1660.75 2454.48 1659.46 2456.28 1658.18 2457.25 1656.7 2457.39 1655.01L2457.72 1650.83C2458.09 1647.31 2457.69 1644.6 2456.51 1642.69 2455.34 1640.79 2452.99 1639.83 2449.47 1639.83 2446.17 1639.83 2443.75 1640.7 2442.21 1642.42 2440.67 1644.14 2439.75 1646.65 2439.46 1649.95L2438.8 1655.89 2434.62 1655.89 2435.17 1649.73C2435.68 1645.48 2437.09 1642.16 2439.41 1639.78 2441.72 1637.4 2445.11 1636.21 2449.58 1636.21ZM2391.13 1636.21C2396.05 1636.21 2399.48 1637.51 2401.42 1640.11 2403.36 1642.71 2404.08 1646.36 2403.57 1651.05L2398.61 1699.1 2394.21 1699.1 2394.87 1692.95 2394.65 1692.95C2393.63 1694.85 2392.2 1696.45 2390.36 1697.73 2388.53 1699.01 2386.22 1699.65 2383.43 1699.65 2379.32 1699.65 2376.17 1698.46 2373.97 1696.08 2371.77 1693.7 2370.93 1689.98 2371.44 1684.92L2371.99 1679.64C2372.28 1677.22 2372.82 1675.21 2373.59 1673.59 2374.36 1671.98 2375.36 1670.62 2376.61 1669.52 2377.86 1668.42 2379.31 1667.47 2380.96 1666.67 2382.61 1665.86 2384.5 1665.02 2386.62 1664.14 2391.1 1662.3 2394.23 1660.75 2396.03 1659.46 2397.83 1658.18 2398.8 1656.7 2398.95 1655.01L2399.28 1650.83C2399.64 1647.31 2399.24 1644.6 2398.06 1642.69 2396.89 1640.79 2394.54 1639.83 2391.02 1639.83 2387.72 1639.83 2385.3 1640.7 2383.76 1642.42 2382.22 1644.14 2381.3 1646.65 2381.01 1649.95L2380.35 1655.89 2376.17 1655.89 2376.72 1649.73C2377.23 1645.48 2378.65 1642.16 2380.96 1639.78 2383.27 1637.4 2386.66 1636.21 2391.13 1636.21ZM2267.8 1636.21C2272.64 1636.21 2276.22 1637.62 2278.53 1640.44 2280.84 1643.26 2281.7 1647.24 2281.11 1652.37L2279.57 1667.32 2254.49 1667.32 2252.84 1683.16C2252.4 1687.34 2253.09 1690.53 2254.93 1692.73 2256.76 1694.93 2259.48 1696.02 2263.07 1696.02 2266.52 1696.02 2269.05 1695.07 2270.66 1693.17 2272.27 1691.26 2273.3 1688.29 2273.74 1684.26L2274.29 1678.43 2278.47 1678.43 2277.81 1684.37C2277.23 1689.65 2275.78 1693.51 2273.47 1695.97 2271.16 1698.43 2267.65 1699.65 2262.96 1699.65 2257.9 1699.65 2254.08 1698.19 2251.52 1695.26 2248.95 1692.32 2247.96 1688.22 2248.55 1682.94L2251.85 1651.49C2252.36 1646.51 2253.96 1642.71 2256.63 1640.11 2259.31 1637.51 2263.03 1636.21 2267.8 1636.21ZM2207.15 1636.21C2216.69 1636.21 2220.98 1640.75 2220.02 1649.84L2219.47 1655.12 2215.29 1655.12 2215.84 1649.84C2216.21 1646.32 2215.66 1643.77 2214.19 1642.2 2212.73 1640.62 2210.38 1639.83 2207.15 1639.83 2203.92 1639.83 2201.54 1640.57 2200 1642.03 2198.46 1643.5 2197.54 1645.55 2197.25 1648.19L2197.03 1650.17C2196.81 1652.44 2197.12 1654.46 2197.96 1656.22 2198.81 1657.98 2200.55 1659.99 2203.19 1662.27L2209.79 1667.87C2213.02 1670.66 2215.15 1673.3 2216.17 1675.79 2217.2 1678.28 2217.53 1681.14 2217.16 1684.37L2216.94 1686.46C2216.5 1690.78 2215.2 1694.06 2213.04 1696.3 2210.87 1698.54 2207.37 1699.65 2202.53 1699.65 2197.47 1699.65 2193.82 1698.35 2191.58 1695.75 2189.35 1693.15 2188.45 1689.61 2188.89 1685.14L2189.55 1678.98 2193.73 1678.98 2193.07 1685.25C2192.7 1688.62 2193.27 1691.26 2194.77 1693.17 2196.28 1695.07 2198.86 1696.02 2202.53 1696.02 2206.05 1696.02 2208.54 1695.2 2210.01 1693.55 2211.48 1691.9 2212.4 1689.5 2212.76 1686.35L2212.98 1684.37C2213.28 1681.73 2213 1679.44 2212.16 1677.5 2211.31 1675.55 2209.5 1673.37 2206.71 1670.95L2200.11 1665.24C2197.32 1662.82 2195.34 1660.43 2194.17 1658.09 2193 1655.74 2192.59 1652.99 2192.96 1649.84L2193.18 1647.86C2193.62 1644.27 2194.96 1641.43 2197.19 1639.34 2199.43 1637.25 2202.75 1636.21 2207.15 1636.21ZM2162.46 1636.21C2171.99 1636.21 2176.28 1640.75 2175.33 1649.84L2174.78 1655.12 2170.6 1655.12 2171.15 1649.84C2171.51 1646.32 2170.96 1643.77 2169.5 1642.2 2168.03 1640.62 2165.68 1639.83 2162.46 1639.83 2159.23 1639.83 2156.84 1640.57 2155.3 1642.03 2153.76 1643.5 2152.85 1645.55 2152.55 1648.19L2152.33 1650.17C2152.11 1652.44 2152.42 1654.46 2153.27 1656.22 2154.11 1657.98 2155.85 1659.99 2158.49 1662.27L2165.1 1667.87C2168.32 1670.66 2170.45 1673.3 2171.48 1675.79 2172.5 1678.28 2172.83 1681.14 2172.47 1684.37L2172.25 1686.46C2171.81 1690.78 2170.51 1694.06 2168.34 1696.3 2166.18 1698.54 2162.68 1699.65 2157.83 1699.65 2152.77 1699.65 2149.12 1698.35 2146.89 1695.75 2144.65 1693.15 2143.75 1689.61 2144.19 1685.14L2144.85 1678.98 2149.03 1678.98 2148.37 1685.25C2148.01 1688.62 2148.57 1691.26 2150.08 1693.17 2151.58 1695.07 2154.17 1696.02 2157.83 1696.02 2161.35 1696.02 2163.85 1695.2 2165.32 1693.55 2166.78 1691.9 2167.7 1689.5 2168.07 1686.35L2168.29 1684.37C2168.58 1681.73 2168.3 1679.44 2167.46 1677.5 2166.62 1675.55 2164.8 1673.37 2162.02 1670.95L2155.41 1665.24C2152.63 1662.82 2150.65 1660.43 2149.47 1658.09 2148.3 1655.74 2147.9 1652.99 2148.26 1649.84L2148.48 1647.86C2148.92 1644.27 2150.26 1641.43 2152.5 1639.34 2154.74 1637.25 2158.05 1636.21 2162.46 1636.21ZM2128.07 1636.21C2137.61 1636.21 2141.9 1640.75 2140.95 1649.84L2140.4 1655.12 2136.22 1655.12 2136.77 1649.84C2137.13 1646.32 2136.58 1643.77 2135.11 1642.2 2133.65 1640.62 2131.3 1639.83 2128.07 1639.83 2124.85 1639.83 2122.46 1640.57 2120.92 1642.03 2119.38 1643.5 2118.47 1645.55 2118.17 1648.19L2117.95 1650.17C2117.73 1652.44 2118.04 1654.46 2118.89 1656.22 2119.73 1657.98 2121.47 1659.99 2124.11 1662.27L2130.71 1667.87C2133.94 1670.66 2136.07 1673.3 2137.1 1675.79 2138.12 1678.28 2138.45 1681.14 2138.09 1684.37L2137.87 1686.46C2137.43 1690.78 2136.12 1694.06 2133.96 1696.3 2131.8 1698.54 2128.29 1699.65 2123.45 1699.65 2118.39 1699.65 2114.74 1698.35 2112.51 1695.75 2110.27 1693.15 2109.37 1689.61 2109.81 1685.14L2110.47 1678.98 2114.65 1678.98 2113.99 1685.25C2113.62 1688.62 2114.19 1691.26 2115.7 1693.17 2117.2 1695.07 2119.79 1696.02 2123.45 1696.02 2126.97 1696.02 2129.47 1695.2 2130.93 1693.55 2132.4 1691.9 2133.32 1689.5 2133.68 1686.35L2133.9 1684.37C2134.2 1681.73 2133.92 1679.44 2133.08 1677.5 2132.24 1675.55 2130.42 1673.37 2127.63 1670.95L2121.03 1665.24C2118.25 1662.82 2116.26 1660.43 2115.09 1658.09 2113.92 1655.74 2113.51 1652.99 2113.88 1649.84L2114.1 1647.86C2114.54 1644.27 2115.88 1641.43 2118.12 1639.34 2120.35 1637.25 2123.67 1636.21 2128.07 1636.21ZM1994.51 1636.21C1998.4 1636.21 2001.37 1637.49 2003.42 1640.05 2005.47 1642.62 2006.21 1646.58 2005.62 1651.93L2000.78 1699.1 1996.38 1699.1 2001.33 1651.93C2001.77 1647.97 2001.31 1644.97 1999.95 1642.91 1998.6 1640.86 1996.27 1639.83 1992.97 1639.83 1989.67 1639.83 1986.99 1641.06 1984.94 1643.52 1982.88 1645.97 1981.67 1649.07 1981.31 1652.81L1976.47 1699.1 1972.06 1699.1 1978.56 1636.76 1982.96 1636.76 1982.19 1643.79 1982.3 1643.79C1983.18 1641.89 1984.61 1640.15 1986.59 1638.57 1988.57 1636.99 1991.21 1636.21 1994.51 1636.21ZM1954.93 1636.21C1959.77 1636.21 1963.34 1637.62 1965.66 1640.44 1967.97 1643.26 1968.83 1647.24 1968.24 1652.37L1966.7 1667.32 1941.62 1667.32 1939.97 1683.16C1939.53 1687.34 1940.22 1690.53 1942.06 1692.73 1943.89 1694.93 1946.6 1696.02 1950.2 1696.02 1953.64 1696.02 1956.18 1695.07 1957.79 1693.17 1959.4 1691.26 1960.43 1688.29 1960.87 1684.26L1961.42 1678.43 1965.6 1678.43 1964.94 1684.37C1964.35 1689.65 1962.9 1693.51 1960.59 1695.97 1958.28 1698.43 1954.78 1699.65 1950.09 1699.65 1945.03 1699.65 1941.21 1698.19 1938.65 1695.26 1936.08 1692.32 1935.09 1688.22 1935.67 1682.94L1938.98 1651.49C1939.49 1646.51 1941.08 1642.71 1943.76 1640.11 1946.44 1637.51 1950.16 1636.21 1954.93 1636.21ZM2499.92 1631.37 2486.6 1675.9 2504.32 1675.9 2500.03 1631.37ZM2094.21 1631.37 2080.9 1675.9 2098.62 1675.9 2094.32 1631.37ZM2028.89 1631.37 2015.58 1675.9 2033.29 1675.9 2029 1631.37ZM2345.06 1628.29 2337.91 1695.36 2347.92 1695.36C2352.54 1695.36 2355.92 1694.16 2358.04 1691.74 2360.17 1689.32 2361.42 1686.2 2361.79 1682.39L2365.97 1642.69C2366.19 1640.71 2366.17 1638.84 2365.91 1637.09 2365.65 1635.33 2365.09 1633.79 2364.21 1632.47 2363.33 1631.15 2362.1 1630.12 2360.52 1629.39 2358.94 1628.65 2356.91 1628.29 2354.41 1628.29ZM2660.63 1624.55 2665.03 1624.55 2664.59 1628.95 2660.19 1628.95ZM2639.53 1624.55 2643.82 1624.55 2642.5 1636.76 2651.64 1636.76 2651.31 1640.16 2642.17 1640.16 2637 1689.1C2636.78 1691.22 2637 1692.84 2637.66 1693.94 2638.32 1695.03 2639.83 1695.58 2642.17 1695.58L2645.47 1695.58 2645.14 1699.1 2641.73 1699.1C2637.77 1699.1 2635.19 1698.21 2633.98 1696.41 2632.77 1694.61 2632.34 1692.03 2632.71 1688.66L2637.88 1640.16 2632.82 1640.16 2633.26 1636.76 2638.21 1636.76ZM2591.87 1624.55 2596.27 1624.55 2588.46 1699.1 2584.06 1699.1ZM2497.83 1624.55 2503.55 1624.55 2511.14 1699.1 2506.63 1699.1 2504.76 1679.64 2485.5 1679.64 2479.78 1699.1 2475.38 1699.1ZM2416.05 1624.55 2420.34 1624.55 2419.02 1636.76 2428.16 1636.76 2427.83 1640.16 2418.69 1640.16 2413.52 1689.1C2413.3 1691.22 2413.52 1692.84 2414.18 1693.94 2414.84 1695.03 2416.35 1695.58 2418.69 1695.58L2421.99 1695.58 2421.66 1699.1 2418.25 1699.1C2414.29 1699.1 2411.71 1698.21 2410.5 1696.41 2409.29 1694.61 2408.86 1692.03 2409.23 1688.66L2414.4 1640.16 2409.34 1640.16 2409.78 1636.76 2414.73 1636.76ZM2340.88 1624.55 2355.18 1624.55C2358.41 1624.55 2361.07 1625.04 2363.16 1626.03 2365.25 1627.02 2366.88 1628.38 2368.06 1630.1 2369.23 1631.83 2370 1633.84 2370.37 1636.15 2370.73 1638.46 2370.77 1640.97 2370.48 1643.68L2366.41 1682.17C2366.11 1684.59 2365.56 1686.84 2364.76 1688.93 2363.95 1691.02 2362.83 1692.82 2361.4 1694.32 2359.97 1695.82 2358.17 1697 2356.01 1697.84 2353.85 1698.68 2351.3 1699.1 2348.36 1699.1L2333.07 1699.1ZM2317.39 1624.55 2321.68 1624.55 2313.98 1699.1 2309.69 1699.1 2310.35 1691.96 2310.24 1691.96C2309.36 1693.94 2308 1695.71 2306.17 1697.29 2304.34 1698.87 2301.73 1699.65 2298.36 1699.65 2294.47 1699.65 2291.35 1698.41 2289.01 1695.91 2286.66 1693.42 2285.74 1689.61 2286.26 1684.48L2289.78 1650.06C2290.36 1645.22 2291.94 1641.7 2294.51 1639.5 2297.07 1637.31 2300.19 1636.21 2303.86 1636.21 2307.23 1636.21 2309.82 1636.94 2311.62 1638.4 2313.41 1639.87 2314.64 1641.56 2315.3 1643.46L2315.41 1643.46ZM2233.83 1624.55 2238.12 1624.55 2236.8 1636.76 2245.93 1636.76 2245.6 1640.16 2236.47 1640.16 2231.3 1689.1C2231.08 1691.22 2231.3 1692.84 2231.96 1693.94 2232.62 1695.03 2234.12 1695.58 2236.47 1695.58L2239.77 1695.58 2239.44 1699.1 2236.03 1699.1C2232.07 1699.1 2229.49 1698.21 2228.28 1696.41 2227.06 1694.61 2226.64 1692.03 2227.01 1688.66L2232.18 1640.16 2227.12 1640.16 2227.56 1636.76 2232.51 1636.76ZM2186.16 1624.55 2190.57 1624.55 2190.13 1628.95 2185.72 1628.95ZM2092.12 1624.55 2097.85 1624.55 2105.44 1699.1 2100.93 1699.1 2099.06 1679.64 2079.8 1679.64 2074.08 1699.1 2069.68 1699.1ZM2052.08 1624.55 2056.59 1624.55 2048.78 1699.1 2044.27 1699.1ZM2026.8 1624.55 2032.52 1624.55 2040.11 1699.1 2035.6 1699.1 2033.73 1679.64 2014.48 1679.64 2008.76 1699.1 2004.36 1699.1ZM1919.31 1624C1922.39 1624 1924.9 1624.42 1926.85 1625.26 1928.79 1626.11 1930.29 1627.3 1931.36 1628.84 1932.42 1630.38 1933.1 1632.21 1933.39 1634.34 1933.69 1636.46 1933.69 1638.81 1933.39 1641.37L1932.73 1647.31 1928.55 1647.31 1929.32 1640.71C1929.54 1638.81 1929.56 1637.05 1929.38 1635.44 1929.19 1633.82 1928.73 1632.45 1928 1631.31 1927.27 1630.18 1926.19 1629.3 1924.76 1628.67 1923.32 1628.05 1921.47 1627.74 1919.2 1627.74 1917.15 1627.74 1915.39 1628.07 1913.92 1628.73 1912.45 1629.39 1911.22 1630.3 1910.23 1631.48 1909.24 1632.65 1908.49 1634.02 1907.98 1635.6 1907.46 1637.18 1907.1 1638.88 1906.88 1640.71L1902.7 1681.4C1902.48 1683.38 1902.49 1685.25 1902.75 1687.01 1903.01 1688.77 1903.54 1690.31 1904.35 1691.63 1905.15 1692.95 1906.29 1693.99 1907.76 1694.76 1909.22 1695.53 1911.02 1695.91 1913.15 1695.91 1917.18 1695.91 1920.1 1694.72 1921.89 1692.34 1923.69 1689.96 1924.77 1686.93 1925.14 1683.27L1926.9 1665.79 1916.78 1665.79 1917.11 1662.05 1931.52 1662.05 1927.56 1699.1 1923.71 1699.1 1924.48 1692.18C1923.6 1694.23 1922.22 1695.99 1920.35 1697.45 1918.48 1698.92 1915.72 1699.65 1912.05 1699.65 1909.26 1699.65 1906.93 1699.14 1905.06 1698.11 1903.19 1697.09 1901.71 1695.71 1900.61 1693.99 1899.51 1692.27 1898.75 1690.23 1898.35 1687.89 1897.95 1685.54 1897.89 1683.05 1898.19 1680.41L1902.26 1641.04C1902.55 1638.62 1903.08 1636.37 1903.85 1634.28 1904.62 1632.19 1905.69 1630.38 1907.04 1628.84 1908.4 1627.3 1910.09 1626.11 1912.1 1625.26 1914.12 1624.42 1916.52 1624 1919.31 1624Z" fill="#D9D9D9" fill-rule="evenodd"/><path d="M1483.41 1465.83C1481.39 1466.04 1479.38 1466.87 1477.47 1468.55 1473.41 1472.12 1472.66 1478.13 1477.23 1481.66 1486.11 1488.52 1495.33 1494.88 1504.88 1500.74 1508.53 1502.97 1515.22 1507.06 1519.1 1506.96 1523.64 1506.85 1519.82 1499.48 1518.88 1497.87 1513.74 1489.1 1506.36 1481.93 1499.58 1474.46 1495.65 1470.12 1489.47 1465.19 1483.41 1465.83ZM1483.64 1451.2C1492.87 1450.14 1502.35 1450.61 1510.77 1452 1514.35 1452.6 1517.17 1453.36 1519.25 1454.3 1527.49 1458.03 1531.69 1465.77 1531.35 1475.3 1531.11 1481.72 1532.44 1487.97 1535.19 1493.77 1535.25 1493.91 1535.33 1493.91 1535.4 1493.78 1536.93 1491.3 1538.75 1489.04 1540.87 1487.01 1546.35 1481.74 1552.01 1476.68 1557.85 1471.84 1557.91 1471.79 1557.98 1471.78 1558.04 1471.81 1575.41 1480.77 1594.44 1483.7 1613.81 1482.77 1632.76 1481.84 1651.17 1478.24 1669.05 1471.94 1669.19 1471.89 1669.32 1471.91 1669.43 1472 1689.46 1486.74 1715.58 1484.76 1737.4 1475.7 1756.83 1467.64 1777.4 1461.98 1799.32 1456.54 1800.38 1456.28 1801.92 1456.46 1803.08 1456.97 1809.7 1459.88 1816.64 1461.25 1823.92 1461.08 1824.81 1461.06 1826.26 1461.74 1826.89 1462.53 1832.87 1470.05 1813.02 1474.54 1808.88 1475.6 1792.78 1479.74 1777.52 1490.06 1764.01 1499.47 1739.17 1516.77 1714.02 1534.96 1687.82 1548.61 1673.46 1556.1 1658.49 1562.09 1642.92 1566.57 1642.86 1566.59 1642.82 1566.66 1642.84 1566.73 1642.85 1566.76 1642.86 1566.78 1642.89 1566.8 1647 1569.93 1650.94 1573.24 1654.7 1576.75 1657.55 1579.41 1659.69 1582.33 1661.14 1585.51 1664.85 1593.69 1657.57 1597.88 1651.14 1600.09 1640.64 1603.7 1629.35 1604.94 1618.89 1605.83 1616.43 1606.04 1613.93 1606.06 1611.37 1605.87 1602.09 1605.18 1570.75 1602.68 1568.01 1591.27 1566.09 1583.22 1578.99 1573.22 1584.52 1568.79 1584.6 1568.73 1584.61 1568.62 1584.55 1568.54 1584.52 1568.51 1584.49 1568.49 1584.45 1568.48 1573.31 1566.11 1562.65 1561.75 1553.41 1555.19 1545.03 1549.22 1538.11 1543.12 1532.78 1534.13 1532.7 1533.99 1532.59 1533.9 1532.45 1533.84 1528.82 1532.29 1526.92 1533.66 1524.24 1535.9 1517.99 1541.13 1504.21 1537.65 1500.02 1531.07 1497.59 1527.24 1498.34 1522.18 1501.49 1519.07 1503.08 1517.51 1505.18 1516.52 1507.77 1516.11 1507.85 1516.09 1507.9 1516.02 1507.88 1515.95 1507.88 1515.91 1507.86 1515.88 1507.83 1515.86 1504.45 1513.68 1501.47 1512.38 1497.03 1510.5 1487.57 1506.49 1477.78 1503.25 1468.05 1499.99 1464.17 1498.68 1461.45 1497.59 1459.89 1496.7 1452.29 1492.37 1445.91 1483.65 1447.16 1474.44 1448 1468.2 1452.86 1462.86 1457.97 1459.6 1465.42 1454.86 1474.41 1452.26 1483.64 1451.2ZM1613.57 1387.04C1617.52 1386.64 1621.58 1389.15 1624.94 1395.11 1630.28 1404.61 1635.23 1423.15 1627.34 1432.59 1627.25 1432.7 1627.2 1432.82 1627.19 1432.96 1626.95 1436.78 1627.46 1438.99 1630.23 1441.6 1638.64 1449.52 1648.5 1456.22 1657.67 1463.25 1657.83 1463.37 1657.81 1463.46 1657.62 1463.52 1629.75 1472.41 1595.61 1475.29 1568.07 1463.81 1567.9 1463.74 1567.89 1463.65 1568.03 1463.54 1577.37 1455.97 1586.71 1449.31 1596.05 1443.56 1600.08 1441.08 1601.87 1437.52 1601.41 1432.87 1601.4 1432.71 1601.34 1432.58 1601.24 1432.46 1593.62 1423.28 1598.12 1405.93 1602.93 1396.42 1605.81 1390.76 1609.63 1387.44 1613.57 1387.04Z" fill="#D9D9D9" fill-rule="evenodd"/></g></svg>