<svg width="1279" height="219" xmlns="http://www.w3.org/2000/svg" xmlns:xlink="http://www.w3.org/1999/xlink" xml:space="preserve" overflow="hidden"><defs><clipPath id="clip0"><rect x="2945" y="409" width="1279" height="219"/></clipPath></defs><g clip-path="url(#clip0)" transform="translate(-2945 -409)"><path d="M4185.15 506.772C4180.53 506.772 4177.19 508.21 4175.12 511.084 4173.06 513.959 4172.03 517.778 4172.03 522.542L4172.03 539.05 4197.77 539.05 4197.77 522.542C4197.77 517.778 4196.78 513.959 4194.8 511.084 4192.82 508.21 4189.6 506.772 4185.15 506.772ZM3958.29 506.772C3953.67 506.772 3950.33 508.21 3948.27 511.084 3946.21 513.959 3945.18 517.778 3945.18 522.542L3945.18 539.05 3970.91 539.05 3970.91 522.542C3970.91 517.778 3969.92 513.959 3967.95 511.084 3965.96 508.21 3962.75 506.772 3958.29 506.772ZM4104.06 486.321 4131.28 486.321 4131.28 626.029 4104.06 626.029ZM4185.15 484.35C4198.68 484.35 4208.53 487.964 4214.72 495.191 4220.91 502.419 4224 512.357 4224 525.006L4224 558.762 4172.03 558.762 4172.03 589.808C4172.03 594.572 4173.14 598.391 4175.37 601.266 4177.6 604.14 4181.02 605.578 4185.64 605.578 4190.1 605.578 4193.31 604.182 4195.29 601.389 4197.27 598.597 4198.26 594.736 4198.26 589.808L4198.26 570.836 4224 570.836 4224 587.344C4224 599.993 4220.91 609.931 4214.72 617.158 4208.53 624.386 4198.68 628 4185.15 628 4178.38 628 4172.44 626.973 4167.33 624.92 4162.21 622.867 4158.01 619.951 4154.71 616.173 4151.41 612.395 4148.93 607.919 4147.28 602.744 4145.63 597.57 4144.81 591.862 4144.81 585.62L4144.81 526.731C4144.81 514.082 4148.11 503.857 4154.71 496.054 4161.31 488.252 4171.45 484.35 4185.15 484.35ZM4063.47 484.35C4072.05 484.35 4078.61 487.143 4083.15 492.727 4087.68 498.313 4089.95 507.265 4089.95 519.585L4089.95 626.029 4062.73 626.029 4062.73 520.817C4062.73 516.546 4061.94 513.096 4060.38 510.468 4058.81 507.84 4055.63 506.526 4050.85 506.526 4046.06 506.526 4042.81 507.84 4041.07 510.468 4039.34 513.096 4038.48 516.546 4038.48 520.817L4038.48 626.029 4011.25 626.029 4011.25 486.321 4038.48 486.321 4038.48 500.612 4038.97 500.612C4040.62 496.506 4043.3 492.769 4047.01 489.401 4050.73 486.034 4056.21 484.35 4063.47 484.35ZM3958.29 484.35C3971.82 484.35 3981.68 487.964 3987.87 495.191 3994.05 502.419 3997.15 512.357 3997.15 525.006L3997.15 558.762 3945.18 558.762 3945.18 589.808C3945.18 594.572 3946.29 598.391 3948.52 601.266 3950.75 604.14 3954.17 605.578 3958.79 605.578 3963.24 605.578 3966.46 604.182 3968.44 601.389 3970.42 598.597 3971.41 594.736 3971.41 589.808L3971.41 570.836 3997.15 570.836 3997.15 587.344C3997.15 599.993 3994.05 609.931 3987.87 617.158 3981.68 624.386 3971.82 628 3958.29 628 3951.53 628 3945.59 626.973 3940.48 624.92 3935.36 622.867 3931.15 619.951 3927.85 616.173 3924.55 612.395 3922.08 607.919 3920.43 602.744 3918.78 597.57 3917.95 591.862 3917.95 585.62L3917.95 526.731C3917.95 514.082 3921.25 503.857 3927.85 496.054 3934.45 488.252 3944.6 484.35 3958.29 484.35ZM3520.45 481.886 3520.45 547.674 3530.85 547.674C3540.09 547.674 3544.71 543.075 3544.71 533.876L3544.71 495.438C3544.71 486.403 3540.09 481.886 3530.85 481.886ZM4104.06 458.971 4131.28 458.971 4131.28 480.161 4104.06 480.161ZM3585.04 458.971 3617.96 458.971 3636.27 553.095 3636.52 553.095 3652.85 458.971 3688.49 458.971 3688.49 626.029 3662.75 626.029 3662.75 517.614 3662.01 517.614 3642.95 626.029 3629.84 626.029 3608.8 517.614 3608.31 517.614 3608.31 626.029 3585.04 626.029ZM3492.24 458.971 3534.06 458.971C3548.25 458.971 3558.28 462.298 3564.13 468.95 3569.99 475.603 3572.92 484.761 3572.92 496.423L3572.92 531.659C3572.92 543.321 3569.99 552.52 3564.13 559.255 3558.28 565.99 3548.25 569.357 3534.06 569.357L3520.45 569.357 3520.45 626.029 3492.24 626.029ZM3396 458.971 3424.21 458.971 3424.21 532.398 3454.9 458.971 3482.62 458.971 3449.95 534.122 3483.36 626.029 3453.66 626.029 3424.21 544.717 3424.21 626.029 3396 626.029ZM3864.53 457C3872.28 457 3878.76 458.027 3883.95 460.08 3889.15 462.133 3893.28 465.008 3896.33 468.704 3899.38 472.4 3901.57 476.835 3902.89 482.009 3904.21 487.184 3904.87 492.81 3904.87 498.887L3904.87 513.671 3879.13 513.671 3879.13 496.67C3879.13 491.414 3878.06 487.389 3875.91 484.597 3873.77 481.804 3870.14 480.408 3865.02 480.408 3859.91 480.408 3856.2 482.009 3853.89 485.213 3851.58 488.416 3850.42 492.563 3850.42 497.655L3850.42 587.344C3850.42 592.437 3851.54 596.584 3853.76 599.788 3855.99 602.991 3859.5 604.592 3864.28 604.592 3873.52 604.592 3878.14 599.254 3878.14 588.576L3878.14 559.009 3864.78 559.009 3864.78 536.833 3904.87 536.833 3904.87 626.029 3884.57 626.029 3884.57 607.795C3882.76 614.037 3879.75 618.965 3875.54 622.579 3871.33 626.193 3865.35 628 3857.6 628 3851.49 628 3846.21 626.85 3841.76 624.55 3837.31 622.251 3833.63 619.089 3830.75 615.064 3827.86 611.04 3825.72 606.276 3824.31 600.773 3822.91 595.27 3822.21 589.315 3822.21 582.909L3822.21 502.091C3822.21 495.52 3823.03 489.484 3824.68 483.981 3826.33 478.478 3828.85 473.714 3832.23 469.689 3835.61 465.665 3839.99 462.544 3845.35 460.326 3850.71 458.109 3857.1 457 3864.53 457ZM3744.23 457C3751.98 457 3758.46 458.027 3763.65 460.08 3768.85 462.133 3772.98 465.008 3776.03 468.704 3779.08 472.4 3781.27 476.835 3782.59 482.009 3783.91 487.184 3784.57 492.81 3784.57 498.887L3784.57 513.671 3758.83 513.671 3758.83 496.67C3758.83 491.414 3757.76 487.389 3755.61 484.597 3753.47 481.804 3749.84 480.408 3744.72 480.408 3739.61 480.408 3735.9 482.009 3733.59 485.213 3731.28 488.416 3730.12 492.563 3730.12 497.655L3730.12 587.344C3730.12 592.437 3731.23 596.584 3733.46 599.788 3735.69 602.991 3739.19 604.592 3743.98 604.592 3753.22 604.592 3757.84 599.254 3757.84 588.576L3757.84 559.009 3744.47 559.009 3744.47 536.833 3784.57 536.833 3784.57 626.029 3764.27 626.029 3764.27 607.795C3762.46 614.037 3759.45 618.965 3755.24 622.579 3751.03 626.193 3745.05 628 3737.3 628 3731.19 628 3725.91 626.85 3721.46 624.55 3717 622.251 3713.33 619.089 3710.45 615.064 3707.56 611.04 3705.41 606.276 3704.01 600.773 3702.61 595.27 3701.91 589.315 3701.91 582.909L3701.91 502.091C3701.91 495.52 3702.73 489.484 3704.38 483.981 3706.03 478.478 3708.55 473.714 3711.93 469.689 3715.31 465.665 3719.69 462.544 3725.05 460.326 3730.41 458.109 3736.8 457 3744.23 457Z" fill="#FFFFFF" fill-rule="evenodd"/><path d="M2981.41 487.827C2979.39 488.04 2977.38 488.872 2975.47 490.551 2971.41 494.123 2970.66 500.134 2975.23 503.663 2984.11 510.519 2993.33 516.877 3002.88 522.737 3006.53 524.973 3013.22 529.061 3017.1 528.964 3021.64 528.849 3017.82 521.476 3016.88 519.87 3011.74 511.103 3004.36 503.931 2997.58 496.456 2993.65 492.12 2987.47 487.188 2981.41 487.827ZM2981.64 473.199C2990.87 472.136 3000.35 472.608 3008.77 474.004 3012.35 474.598 3015.17 475.364 3017.25 476.302 3025.49 480.028 3029.69 487.773 3029.35 497.303 3029.11 503.724 3030.44 509.969 3033.19 515.773 3033.25 515.909 3033.33 515.911 3033.41 515.782 3034.93 513.3 3036.75 511.042 3038.87 509.008 3044.35 503.739 3050.01 498.682 3055.85 493.837 3055.91 493.792 3055.98 493.783 3056.04 493.815 3073.41 502.767 3092.44 505.705 3111.81 504.765 3130.76 503.845 3149.17 500.236 3167.05 493.938 3167.19 493.888 3167.32 493.907 3167.43 493.995 3187.46 508.739 3213.58 506.759 3235.4 497.704 3254.83 489.638 3275.4 483.976 3297.32 478.538 3298.38 478.277 3299.92 478.463 3301.08 478.97 3307.7 481.884 3314.64 483.253 3321.92 483.08 3322.81 483.058 3324.27 483.742 3324.89 484.527 3330.87 492.051 3311.02 496.536 3306.88 497.599 3290.78 501.735 3275.52 512.06 3262.01 521.467 3237.17 538.768 3212.02 556.964 3185.82 570.614 3171.46 578.099 3156.49 584.086 3140.93 588.572 3140.86 588.591 3140.82 588.663 3140.84 588.732 3140.85 588.76 3140.86 588.784 3140.89 588.802 3145 591.927 3148.94 595.243 3152.7 598.751 3155.55 601.409 3157.69 604.327 3159.14 607.505 3162.85 615.686 3155.57 619.885 3149.14 622.09 3138.64 625.702 3127.35 626.941 3116.89 627.832 3114.43 628.044 3111.93 628.056 3109.38 627.867 3100.09 627.179 3068.75 624.679 3066.01 613.265 3064.09 605.221 3076.99 595.219 3082.52 590.795 3082.6 590.731 3082.61 590.617 3082.55 590.542 3082.52 590.511 3082.49 590.489 3082.45 590.482 3071.31 588.114 3060.65 583.752 3051.41 577.185 3043.03 571.223 3036.11 565.123 3030.78 556.126 3030.7 555.994 3030.59 555.898 3030.45 555.84 3026.82 554.287 3024.92 555.659 3022.24 557.9 3015.99 563.13 3002.21 559.65 2998.02 553.066 2995.59 549.238 2996.34 544.179 2999.49 541.074 3001.08 539.513 3003.18 538.524 3005.77 538.106 3005.85 538.093 3005.9 538.021 3005.88 537.947 3005.88 537.912 3005.86 537.88 3005.83 537.859 3002.45 535.685 2999.47 534.375 2995.03 532.497 2985.57 528.488 2975.78 525.255 2966.05 521.987 2962.17 520.685 2959.45 519.589 2957.89 518.701 2950.29 514.375 2943.91 505.652 2945.16 496.439 2946 490.198 2950.86 484.862 2955.97 481.603 2963.42 476.86 2972.41 474.262 2981.64 473.199ZM3111.57 409.042C3115.52 408.639 3119.58 411.145 3122.94 417.112 3128.28 426.608 3133.23 445.148 3125.34 454.59 3125.25 454.699 3125.2 454.823 3125.19 454.961 3124.95 458.78 3125.46 460.989 3128.23 463.596 3136.64 471.516 3146.5 478.216 3155.67 485.245 3155.83 485.369 3155.81 485.462 3155.62 485.523 3127.75 494.414 3093.61 497.29 3066.07 485.806 3065.9 485.738 3065.89 485.648 3066.03 485.537 3075.37 477.969 3084.71 471.311 3094.05 465.563 3098.08 463.084 3099.87 459.519 3099.41 454.868 3099.4 454.715 3099.34 454.578 3099.24 454.458 3091.62 445.276 3096.12 427.93 3100.94 418.422 3103.81 412.755 3107.63 409.444 3111.57 409.042Z" fill="#00338D" fill-rule="evenodd"/></g></svg>