<svg width="1282" height="321" xmlns="http://www.w3.org/2000/svg" xmlns:xlink="http://www.w3.org/1999/xlink" xml:space="preserve" overflow="hidden"><defs><clipPath id="clip0"><rect x="104" y="103" width="1282" height="321"/></clipPath></defs><g clip-path="url(#clip0)" transform="translate(-104 -103)"><path d="M1344.15 200.063C1339.53 200.063 1336.19 201.509 1334.12 204.401 1332.06 207.292 1331.03 211.133 1331.03 215.925L1331.03 232.53 1356.77 232.53 1356.77 215.925C1356.77 211.133 1355.78 207.292 1353.8 204.401 1351.82 201.509 1348.6 200.063 1344.15 200.063ZM1117.29 200.063C1112.67 200.063 1109.33 201.509 1107.27 204.401 1105.21 207.292 1104.18 211.133 1104.18 215.925L1104.18 232.53 1129.91 232.53 1129.91 215.925C1129.91 211.133 1128.92 207.292 1126.94 204.401 1124.96 201.509 1121.75 200.063 1117.29 200.063ZM1263.06 179.493 1290.28 179.493 1290.28 320.017 1263.06 320.017ZM1344.15 177.51C1357.67 177.51 1367.53 181.145 1373.72 188.415 1379.91 195.685 1383 205.681 1383 218.403L1383 252.357 1331.03 252.357 1331.03 283.585C1331.03 288.376 1332.14 292.218 1334.37 295.109 1336.6 298.001 1340.02 299.447 1344.64 299.447 1349.1 299.447 1352.31 298.042 1354.29 295.233 1356.27 292.425 1357.26 288.542 1357.26 283.585L1357.26 264.501 1383 264.501 1383 281.107C1383 293.829 1379.91 303.825 1373.72 311.095 1367.53 318.365 1357.67 322 1344.15 322 1337.38 322 1331.44 320.967 1326.33 318.902 1321.21 316.837 1317.01 313.904 1313.71 310.104 1310.41 306.304 1307.93 301.801 1306.28 296.596 1304.63 291.392 1303.81 285.65 1303.81 279.372L1303.81 220.138C1303.81 207.416 1307.11 197.131 1313.71 189.283 1320.31 181.434 1330.45 177.51 1344.15 177.51ZM1222.47 177.51C1231.05 177.51 1237.61 180.319 1242.15 185.936 1246.68 191.554 1248.95 200.559 1248.95 212.951L1248.95 320.017 1221.73 320.017 1221.73 214.19C1221.73 209.894 1220.94 206.424 1219.38 203.781 1217.81 201.137 1214.63 199.815 1209.85 199.815 1205.06 199.815 1201.81 201.137 1200.07 203.781 1198.34 206.424 1197.48 209.894 1197.48 214.19L1197.48 320.017 1170.25 320.017 1170.25 179.493 1197.48 179.493 1197.48 193.867 1197.97 193.867C1199.62 189.737 1202.3 185.978 1206.01 182.591 1209.73 179.204 1215.21 177.51 1222.47 177.51ZM1117.29 177.51C1130.82 177.51 1140.68 181.145 1146.87 188.415 1153.05 195.685 1156.15 205.681 1156.15 218.403L1156.15 252.357 1104.18 252.357 1104.18 283.585C1104.18 288.376 1105.29 292.218 1107.52 295.109 1109.75 298.001 1113.17 299.447 1117.79 299.447 1122.24 299.447 1125.46 298.042 1127.44 295.233 1129.42 292.425 1130.41 288.542 1130.41 283.585L1130.41 264.501 1156.15 264.501 1156.15 281.107C1156.15 293.829 1153.05 303.825 1146.87 311.095 1140.68 318.365 1130.82 322 1117.29 322 1110.53 322 1104.59 320.967 1099.48 318.902 1094.36 316.837 1090.15 313.904 1086.85 310.104 1083.55 306.304 1081.08 301.801 1079.43 296.596 1077.78 291.392 1076.95 285.65 1076.95 279.372L1076.95 220.138C1076.95 207.416 1080.25 197.131 1086.85 189.283 1093.45 181.434 1103.6 177.51 1117.29 177.51ZM679.453 175.032 679.453 241.205 689.847 241.205C699.087 241.205 703.706 236.578 703.706 227.326L703.706 188.663C703.706 179.575 699.087 175.032 689.847 175.032ZM1263.06 151.983 1290.28 151.983 1290.28 173.297 1263.06 173.297ZM744.045 151.983 776.959 151.983 795.272 246.657 795.52 246.657 811.853 151.983 847.49 151.983 847.49 320.017 821.752 320.017 821.752 210.968 821.009 210.968 801.954 320.017 788.838 320.017 767.802 210.968 767.307 210.968 767.307 320.017 744.045 320.017ZM651.241 151.983 693.065 151.983C707.253 151.983 717.276 155.329 723.133 162.02 728.99 168.712 731.918 177.923 731.918 189.654L731.918 225.095C731.918 236.826 728.99 246.079 723.133 252.853 717.276 259.627 707.253 263.014 693.065 263.014L679.453 263.014 679.453 320.017 651.241 320.017ZM555 151.983 583.213 151.983 583.213 225.839 613.9 151.983 641.617 151.983 608.95 227.574 642.359 320.017 612.662 320.017 583.213 238.23 583.213 320.017 555 320.017ZM1023.53 150C1031.28 150 1037.76 151.033 1042.95 153.098 1048.15 155.163 1052.28 158.055 1055.33 161.772 1058.38 165.49 1060.57 169.951 1061.89 175.156 1063.21 180.36 1063.87 186.019 1063.87 192.132L1063.87 207.003 1038.13 207.003 1038.13 189.902C1038.13 184.615 1037.06 180.567 1034.91 177.758 1032.77 174.949 1029.14 173.545 1024.02 173.545 1018.91 173.545 1015.2 175.156 1012.89 178.378 1010.58 181.599 1009.42 185.771 1009.42 190.893L1009.42 281.107C1009.42 286.229 1010.54 290.401 1012.76 293.623 1014.99 296.844 1018.5 298.455 1023.28 298.455 1032.52 298.455 1037.14 293.086 1037.14 282.346L1037.14 252.605 1023.78 252.605 1023.78 230.3 1063.87 230.3 1063.87 320.017 1043.57 320.017 1043.57 301.677C1041.76 307.956 1038.75 312.913 1034.54 316.547 1030.33 320.182 1024.35 322 1016.6 322 1010.49 322 1005.21 320.843 1000.76 318.53 996.305 316.217 992.635 313.037 989.747 308.988 986.86 304.94 984.715 300.149 983.313 294.614 981.911 289.079 981.209 283.089 981.209 276.645L981.209 195.355C981.209 188.745 982.034 182.673 983.684 177.139 985.334 171.603 987.85 166.812 991.232 162.764 994.614 158.716 998.986 155.576 1004.35 153.346 1009.71 151.115 1016.1 150 1023.53 150ZM903.227 150C910.981 150 917.457 151.033 922.654 153.098 927.851 155.163 931.976 158.055 935.028 161.772 938.08 165.49 940.266 169.951 941.586 175.156 942.906 180.36 943.566 186.019 943.566 192.132L943.566 207.003 917.828 207.003 917.828 189.902C917.828 184.615 916.756 180.567 914.611 177.758 912.466 174.949 908.836 173.545 903.722 173.545 898.607 173.545 894.895 175.156 892.585 178.378 890.276 181.599 889.121 185.771 889.121 190.893L889.121 281.107C889.121 286.229 890.234 290.401 892.462 293.623 894.689 296.844 898.195 298.455 902.98 298.455 912.219 298.455 916.838 293.086 916.838 282.346L916.838 252.605 903.474 252.605 903.474 230.3 943.566 230.3 943.566 320.017 923.272 320.017 923.272 301.677C921.458 307.956 918.447 312.913 914.239 316.547 910.033 320.182 904.052 322 896.298 322 890.193 322 884.914 320.843 880.459 318.53 876.004 316.217 872.334 313.037 869.447 308.988 866.559 304.94 864.414 300.149 863.012 294.614 861.61 289.079 860.909 283.089 860.909 276.645L860.909 195.355C860.909 188.745 861.734 182.673 863.383 177.139 865.033 171.603 867.549 166.812 870.931 162.764 874.313 158.716 878.686 155.576 884.048 153.346 889.41 151.115 895.802 150 903.227 150Z" fill="#00338D" fill-rule="evenodd"/><path d="M1233.96 376.387C1233.67 376.754 1233.3 377.12 1232.86 377.487 1232.42 377.853 1231.81 378.274 1231.04 378.751 1230.27 379.228 1229.25 379.777 1227.96 380.4 1226.68 381.023 1225.05 381.775 1223.07 382.655 1221.38 383.461 1219.89 384.194 1218.61 384.854 1217.33 385.514 1216.25 386.265 1215.37 387.108 1214.48 387.951 1213.79 388.977 1213.27 390.187 1212.76 391.397 1212.39 392.881 1212.17 394.641L1211.62 399.808C1211.18 403.621 1211.72 406.443 1213.22 408.276 1214.72 410.108 1217.05 411.025 1220.21 411.025 1223.07 411.025 1225.58 410.127 1227.74 408.33 1229.91 406.535 1231.17 403.877 1231.54 400.358ZM1113.62 376.387C1113.33 376.754 1112.96 377.12 1112.52 377.487 1112.08 377.853 1111.48 378.274 1110.71 378.751 1109.94 379.228 1108.91 379.777 1107.63 380.4 1106.34 381.023 1104.71 381.775 1102.73 382.655 1101.04 383.461 1099.56 384.194 1098.28 384.854 1096.99 385.514 1095.91 386.265 1095.03 387.108 1094.15 387.951 1093.45 388.977 1092.94 390.187 1092.43 391.397 1092.06 392.881 1091.84 394.641L1091.29 399.808C1090.85 403.621 1091.38 406.443 1092.88 408.276 1094.39 410.108 1096.72 411.025 1099.87 411.025 1102.73 411.025 1105.24 410.127 1107.41 408.33 1109.57 406.535 1110.84 403.877 1111.2 400.358ZM1055.17 376.387C1054.88 376.754 1054.51 377.12 1054.07 377.487 1053.63 377.853 1053.03 378.274 1052.26 378.751 1051.49 379.228 1050.46 379.777 1049.18 380.4 1047.9 381.023 1046.26 381.775 1044.28 382.655 1042.6 383.461 1041.11 384.194 1039.83 384.854 1038.54 385.514 1037.46 386.265 1036.58 387.108 1035.7 387.951 1035 388.977 1034.49 390.187 1033.98 391.397 1033.61 392.881 1033.39 394.641L1032.84 399.808C1032.4 403.621 1032.93 406.443 1034.44 408.276 1035.94 410.108 1038.27 411.025 1041.42 411.025 1044.28 411.025 1046.79 410.127 1048.96 408.33 1051.12 406.535 1052.39 403.877 1052.75 400.358ZM924.58 354.835C917.906 354.835 914.128 358.72 913.248 366.491L911.928 378.806 932.832 378.806 934.042 367.26C934.409 363.228 933.804 360.149 932.227 358.023 930.65 355.897 928.101 354.835 924.58 354.835ZM611.709 354.835C605.034 354.835 601.257 358.72 600.377 366.491L599.056 378.806 619.96 378.806 621.17 367.26C621.537 363.228 620.932 360.149 619.355 358.023 617.778 355.897 615.229 354.835 611.709 354.835ZM962.07 354.834C955.615 354.834 951.948 358.426 951.068 365.61L947.657 399.698C947.29 403.363 947.877 406.186 949.417 408.165 950.958 410.144 953.378 411.134 956.679 411.134 959.833 411.134 962.437 409.998 964.49 407.725 966.544 405.453 967.791 402.191 968.231 397.939L971.532 366.82C971.972 362.935 971.238 359.966 969.331 357.913 967.424 355.861 965.004 354.834 962.07 354.834ZM1316.31 351.756 1320.71 351.756 1314.22 414.103 1309.82 414.103ZM1254.89 351.756 1259.29 351.756 1265.34 401.128 1265.45 401.128 1282.29 351.756 1286.58 351.756 1264.24 416.413C1263.29 419.198 1262.13 421.159 1260.78 422.296 1259.42 423.432 1257.24 424 1254.23 424L1250.6 424 1251.04 420.481 1254.01 420.481C1256.14 420.481 1257.59 420.096 1258.36 419.327 1259.13 418.557 1259.84 417.182 1260.5 415.203L1263.03 407.945 1262.04 407.945ZM841.845 351.756 846.246 351.756 839.754 414.103 835.354 414.103ZM1373 351.206C1382.53 351.206 1386.82 355.751 1385.87 364.841L1385.32 370.119 1381.14 370.119 1381.69 364.841C1382.06 361.322 1381.51 358.775 1380.04 357.199 1378.57 355.622 1376.22 354.835 1373 354.835 1369.77 354.835 1367.39 355.568 1365.85 357.034 1364.31 358.5 1363.39 360.553 1363.1 363.192L1362.88 365.171C1362.66 367.443 1362.97 369.459 1363.81 371.219 1364.65 372.978 1366.4 374.994 1369.04 377.267L1375.64 382.875C1378.87 385.66 1380.99 388.299 1382.02 390.792 1383.05 393.284 1383.38 396.143 1383.01 399.369L1382.79 401.458C1382.35 405.783 1381.05 409.064 1378.88 411.299 1376.72 413.535 1373.22 414.653 1368.38 414.653 1363.32 414.653 1359.67 413.352 1357.43 410.75 1355.19 408.147 1354.29 404.61 1354.73 400.139L1355.39 393.981 1359.57 393.981 1358.92 400.248C1358.55 403.621 1359.12 406.26 1360.62 408.166 1362.12 410.071 1364.71 411.025 1368.38 411.025 1371.9 411.025 1374.39 410.2 1375.86 408.55 1377.33 406.901 1378.24 404.5 1378.61 401.348L1378.83 399.369C1379.12 396.73 1378.85 394.439 1378 392.496 1377.16 390.553 1375.34 388.373 1372.56 385.953L1365.96 380.236C1363.17 377.816 1361.19 375.434 1360.02 373.088 1358.84 370.742 1358.44 367.993 1358.8 364.841L1359.02 362.862C1359.46 359.27 1360.8 356.429 1363.04 354.34 1365.28 352.25 1368.6 351.206 1373 351.206ZM1340.6 351.206C1345.66 351.206 1349.25 352.525 1351.38 355.164 1353.51 357.804 1354.31 361.652 1353.8 366.71L1353.36 370.889 1349.07 370.889 1349.51 366.491C1349.87 362.678 1349.34 359.783 1347.91 357.804 1346.48 355.824 1344.01 354.835 1340.49 354.835 1333.81 354.835 1330.03 358.72 1329.15 366.491L1325.74 398.929C1325.38 402.741 1326.04 405.71 1327.72 407.836 1329.41 409.961 1331.98 411.025 1335.43 411.025 1338.73 411.025 1341.26 410.182 1343.02 408.495 1344.78 406.809 1345.84 404.134 1346.21 400.468L1346.87 393.431 1351.16 393.431 1350.39 400.468C1349.87 405.307 1348.39 408.88 1345.93 411.189 1343.48 413.499 1339.94 414.653 1335.32 414.653 1330.33 414.653 1326.64 413.169 1324.26 410.2 1321.87 407.231 1320.98 403.144 1321.56 397.939L1324.86 366.71C1325.38 361.652 1326.99 357.804 1329.7 355.164 1332.42 352.525 1336.05 351.206 1340.6 351.206ZM1226.92 351.206C1231.83 351.206 1235.26 352.507 1237.2 355.109 1239.15 357.712 1239.86 361.359 1239.35 366.051L1234.4 414.103 1230 414.103 1230.66 407.945 1230.44 407.945C1229.41 409.852 1227.98 411.446 1226.15 412.729 1224.31 414.012 1222 414.653 1219.22 414.653 1215.11 414.653 1211.95 413.462 1209.75 411.079 1207.55 408.697 1206.71 404.977 1207.22 399.918L1207.77 394.641C1208.07 392.221 1208.6 390.205 1209.37 388.593 1210.14 386.98 1211.15 385.624 1212.39 384.524 1213.64 383.424 1215.09 382.471 1216.74 381.665 1218.39 380.859 1220.28 380.016 1222.41 379.136 1226.88 377.303 1230.02 375.746 1231.81 374.463 1233.61 373.18 1234.58 371.695 1234.73 370.009L1235.06 365.831C1235.43 362.312 1235.02 359.6 1233.85 357.694 1232.68 355.788 1230.33 354.835 1226.81 354.835 1223.51 354.835 1221.09 355.696 1219.55 357.419 1218.01 359.141 1217.09 361.652 1216.8 364.951L1216.14 370.889 1211.95 370.889 1212.5 364.731C1213.02 360.479 1214.43 357.162 1216.74 354.78 1219.05 352.397 1222.44 351.206 1226.92 351.206ZM1194.74 351.206C1198.62 351.206 1201.59 352.489 1203.65 355.055 1205.7 357.62 1206.44 361.579 1205.85 366.93L1201.01 414.103 1196.61 414.103 1201.56 366.93C1202 362.972 1201.54 359.966 1200.18 357.913 1198.83 355.861 1196.5 354.835 1193.2 354.835 1189.9 354.835 1187.22 356.063 1185.16 358.518 1183.11 360.974 1181.9 364.071 1181.53 367.81L1176.69 414.103 1172.29 414.103 1178.78 351.756 1183.18 351.756 1182.41 358.793 1182.52 358.793C1183.4 356.887 1184.83 355.146 1186.81 353.57 1188.8 351.994 1191.44 351.206 1194.74 351.206ZM1106.58 351.206C1111.5 351.206 1114.93 352.507 1116.87 355.109 1118.81 357.712 1119.53 361.359 1119.01 366.051L1114.06 414.103 1109.66 414.103 1110.32 407.945 1110.1 407.945C1109.08 409.852 1107.65 411.446 1105.81 412.729 1103.98 414.012 1101.67 414.653 1098.88 414.653 1094.77 414.653 1091.62 413.462 1089.42 411.079 1087.22 408.697 1086.38 404.977 1086.89 399.918L1087.44 394.641C1087.73 392.221 1088.26 390.205 1089.03 388.593 1089.8 386.98 1090.81 385.624 1092.06 384.524 1093.31 383.424 1094.76 382.471 1096.41 381.665 1098.06 380.859 1099.94 380.016 1102.07 379.136 1106.55 377.303 1109.68 375.746 1111.48 374.463 1113.28 373.18 1114.25 371.695 1114.39 370.009L1114.72 365.831C1115.09 362.312 1114.69 359.6 1113.51 357.694 1112.34 355.788 1109.99 354.835 1106.47 354.835 1103.17 354.835 1100.75 355.696 1099.21 357.419 1097.67 359.141 1096.75 361.652 1096.46 364.951L1095.8 370.889 1091.62 370.889 1092.17 364.731C1092.68 360.479 1094.09 357.162 1096.41 354.78 1098.72 352.397 1102.11 351.206 1106.58 351.206ZM1048.13 351.206C1053.05 351.206 1056.48 352.507 1058.42 355.109 1060.36 357.712 1061.08 361.359 1060.57 366.051L1055.61 414.103 1051.21 414.103 1051.87 407.945 1051.65 407.945C1050.63 409.852 1049.2 411.446 1047.36 412.729 1045.53 414.012 1043.22 414.653 1040.43 414.653 1036.32 414.653 1033.17 413.462 1030.97 411.079 1028.77 408.697 1027.93 404.977 1028.44 399.918L1028.99 394.641C1029.28 392.221 1029.82 390.205 1030.59 388.593 1031.36 386.98 1032.36 385.624 1033.61 384.524 1034.86 383.424 1036.31 382.471 1037.96 381.665 1039.61 380.859 1041.5 380.016 1043.62 379.136 1048.1 377.303 1051.23 375.746 1053.03 374.463 1054.83 373.18 1055.8 371.695 1055.95 370.009L1056.28 365.831C1056.64 362.312 1056.24 359.6 1055.06 357.694 1053.89 355.788 1051.54 354.835 1048.02 354.835 1044.72 354.835 1042.3 355.696 1040.76 357.419 1039.22 359.141 1038.31 361.652 1038.01 364.951L1037.35 370.889 1033.17 370.889 1033.72 364.731C1034.23 360.479 1035.65 357.162 1037.96 354.78 1040.27 352.397 1043.66 351.206 1048.13 351.206ZM924.8 351.206C929.641 351.206 933.217 352.617 935.527 355.439 937.838 358.262 938.699 362.239 938.113 367.37L936.573 382.325 911.488 382.325 909.837 398.159C909.397 402.338 910.094 405.527 911.928 407.726 913.761 409.925 916.475 411.025 920.07 411.025 923.517 411.025 926.047 410.071 927.661 408.166 929.274 406.26 930.301 403.291 930.741 399.259L931.292 393.431 935.472 393.431 934.812 399.369C934.225 404.647 932.777 408.514 930.466 410.969 928.156 413.426 924.654 414.653 919.959 414.653 914.898 414.653 911.085 413.187 908.517 410.255 905.95 407.322 904.96 403.217 905.547 397.939L908.847 366.491C909.361 361.505 910.956 357.712 913.633 355.109 916.311 352.507 920.033 351.206 924.8 351.206ZM864.151 351.206C873.687 351.206 877.977 355.751 877.024 364.841L876.474 370.119 872.293 370.119 872.843 364.841C873.21 361.322 872.66 358.775 871.193 357.199 869.726 355.622 867.379 354.835 864.151 354.835 860.924 354.835 858.54 355.568 857 357.034 855.46 358.5 854.543 360.553 854.25 363.192L854.029 365.171C853.809 367.443 854.121 369.459 854.965 371.219 855.808 372.978 857.55 374.994 860.191 377.267L866.792 382.875C870.019 385.66 872.146 388.299 873.173 390.792 874.2 393.284 874.53 396.143 874.163 399.369L873.943 401.458C873.503 405.783 872.201 409.064 870.038 411.299 867.874 413.535 864.372 414.653 859.53 414.653 854.47 414.653 850.82 413.352 848.583 410.75 846.346 408.147 845.448 404.61 845.888 400.139L846.548 393.981 850.729 393.981 850.069 400.248C849.702 403.621 850.271 406.26 851.774 408.166 853.278 410.071 855.863 411.025 859.53 411.025 863.051 411.025 865.545 410.2 867.012 408.55 868.479 406.901 869.396 404.5 869.762 401.348L869.982 399.369C870.276 396.73 870.001 394.439 869.158 392.496 868.314 390.553 866.498 388.373 863.711 385.953L857.11 380.236C854.323 377.816 852.343 375.434 851.169 373.088 849.995 370.742 849.592 367.993 849.959 364.841L850.179 362.862C850.619 359.27 851.957 356.429 854.195 354.34 856.432 352.25 859.75 351.206 864.151 351.206ZM819.455 351.206C828.991 351.206 833.281 355.751 832.328 364.841L831.778 370.119 827.597 370.119 828.147 364.841C828.514 361.322 827.964 358.775 826.497 357.199 825.03 355.622 822.683 354.835 819.455 354.835 816.228 354.835 813.844 355.568 812.304 357.034 810.764 358.5 809.847 360.553 809.554 363.192L809.333 365.171C809.114 367.443 809.425 369.459 810.269 371.219 811.112 372.978 812.854 374.994 815.495 377.267L822.096 382.875C825.323 385.66 827.45 388.299 828.477 390.792 829.504 393.284 829.834 396.143 829.467 399.369L829.247 401.458C828.807 405.783 827.505 409.064 825.342 411.299 823.178 413.535 819.676 414.653 814.834 414.653 809.774 414.653 806.124 413.352 803.888 410.75 801.65 408.147 800.752 404.61 801.192 400.139L801.852 393.981 806.033 393.981 805.373 400.248C805.006 403.621 805.574 406.26 807.078 408.166 808.582 410.071 811.167 411.025 814.834 411.025 818.355 411.025 820.849 410.2 822.316 408.55 823.783 406.901 824.7 404.5 825.067 401.348L825.286 399.369C825.58 396.73 825.305 394.439 824.461 392.496 823.618 390.553 821.802 388.373 819.015 385.953L812.414 380.236C809.627 377.816 807.647 375.434 806.473 373.088 805.299 370.742 804.896 367.993 805.263 364.841L805.483 362.862C805.923 359.27 807.261 356.429 809.499 354.34 811.736 352.25 815.055 351.206 819.455 351.206ZM785.074 351.206C794.609 351.206 798.9 355.751 797.947 364.841L797.396 370.119 793.215 370.119 793.766 364.841C794.132 361.322 793.582 358.775 792.115 357.199 790.648 355.622 788.301 354.835 785.074 354.835 781.847 354.835 779.463 355.568 777.923 357.034 776.382 358.5 775.466 360.553 775.172 363.192L774.952 365.171C774.732 367.443 775.044 369.459 775.887 371.219 776.731 372.978 778.473 374.994 781.113 377.267L787.714 382.875C790.942 385.66 793.069 388.299 794.096 390.792 795.122 393.284 795.453 396.143 795.086 399.369L794.866 401.458C794.426 405.783 793.124 409.064 790.96 411.299 788.796 413.535 785.294 414.653 780.453 414.653 775.392 414.653 771.743 413.352 769.506 410.75 767.269 408.147 766.37 404.61 766.81 400.139L767.471 393.981 771.651 393.981 770.991 400.248C770.625 403.621 771.193 406.26 772.697 408.166 774.2 410.071 776.786 411.025 780.453 411.025 783.974 411.025 786.468 410.2 787.935 408.55 789.401 406.901 790.318 404.5 790.685 401.348L790.905 399.369C791.198 396.73 790.923 394.439 790.08 392.496 789.237 390.553 787.421 388.373 784.634 385.953L778.033 380.236C775.245 377.816 773.265 375.434 772.092 373.088 770.918 370.742 770.515 367.993 770.881 364.841L771.101 362.862C771.542 359.27 772.88 356.429 775.117 354.34 777.354 352.25 780.673 351.206 785.074 351.206ZM651.509 351.206C655.396 351.206 658.367 352.489 660.421 355.055 662.474 357.62 663.208 361.579 662.621 366.93L657.78 414.103 653.379 414.103 658.33 366.93C658.77 362.972 658.312 359.966 656.955 357.913 655.598 355.861 653.269 354.835 649.969 354.835 646.668 354.835 643.991 356.063 641.937 358.518 639.883 360.974 638.673 364.071 638.306 367.81L633.465 414.103 629.065 414.103 635.556 351.756 639.957 351.756 639.186 358.793 639.296 358.793C640.176 356.887 641.607 355.146 643.587 353.57 645.568 351.994 648.208 351.206 651.509 351.206ZM611.929 351.206C616.77 351.206 620.345 352.617 622.656 355.439 624.966 358.262 625.828 362.239 625.241 367.37L623.701 382.325 598.616 382.325 596.966 398.159C596.526 402.338 597.222 405.527 599.056 407.726 600.89 409.925 603.604 411.025 607.198 411.025 610.645 411.025 613.175 410.071 614.789 408.166 616.403 406.26 617.43 403.291 617.87 399.259L618.42 393.431 622.601 393.431 621.941 399.369C621.354 404.647 619.905 408.514 617.595 410.969 615.284 413.426 611.782 414.653 607.088 414.653 602.027 414.653 598.213 413.187 595.646 410.255 593.079 407.322 592.088 403.217 592.675 397.939L595.976 366.491C596.489 361.505 598.084 357.712 600.762 355.109 603.439 352.507 607.161 351.206 611.929 351.206ZM1156.92 346.367 1143.6 390.901 1161.32 390.901 1157.03 346.367ZM751.215 346.367 737.903 390.901 755.616 390.901 751.325 346.367ZM685.89 346.367 672.578 390.901 690.291 390.901 686 346.367ZM1002.06 343.288 994.911 410.364 1004.92 410.364C1009.54 410.364 1012.92 409.155 1015.04 406.736 1017.17 404.317 1018.42 401.201 1018.79 397.389L1022.97 357.693C1023.19 355.714 1023.17 353.845 1022.91 352.085 1022.65 350.326 1022.09 348.786 1021.21 347.467 1020.33 346.147 1019.1 345.121 1017.52 344.388 1015.94 343.655 1013.91 343.288 1011.41 343.288ZM1317.63 339.55 1322.03 339.55 1321.59 343.948 1317.19 343.948ZM1296.53 339.55 1300.82 339.55 1299.5 351.755 1308.64 351.755 1308.31 355.164 1299.17 355.164 1294 404.096C1293.78 406.222 1294 407.835 1294.66 408.935 1295.32 410.035 1296.83 410.584 1299.17 410.584L1302.47 410.584 1302.14 414.103 1298.73 414.103C1294.77 414.103 1292.19 413.205 1290.98 411.409 1289.77 409.613 1289.34 407.029 1289.71 403.657L1294.88 355.164 1289.82 355.164 1290.26 351.755 1295.21 351.755ZM1248.87 339.55 1253.27 339.55 1245.46 414.103 1241.06 414.103ZM1154.83 339.55 1160.55 339.55 1168.14 414.103 1163.63 414.103 1161.76 394.64 1142.5 394.64 1136.78 414.103 1132.38 414.103ZM1073.05 339.55 1077.34 339.55 1076.02 351.755 1085.16 351.755 1084.83 355.164 1075.69 355.164 1070.52 404.096C1070.3 406.222 1070.52 407.835 1071.18 408.935 1071.84 410.035 1073.35 410.584 1075.69 410.584L1078.99 410.584 1078.66 414.103 1075.25 414.103C1071.29 414.103 1068.71 413.205 1067.5 411.409 1066.29 409.613 1065.87 407.029 1066.23 403.657L1071.4 355.164 1066.34 355.164 1066.78 351.755 1071.73 351.755ZM997.881 339.55 1012.18 339.55C1015.41 339.55 1018.07 340.044 1020.16 341.034 1022.25 342.024 1023.88 343.38 1025.06 345.103 1026.23 346.825 1027 348.841 1027.37 351.15 1027.73 353.46 1027.77 355.971 1027.48 358.683L1023.41 397.169C1023.11 399.588 1022.56 401.842 1021.76 403.932 1020.95 406.021 1019.83 407.817 1018.4 409.32 1016.97 410.823 1015.17 411.995 1013.01 412.839 1010.85 413.682 1008.3 414.103 1005.36 414.103L990.07 414.103ZM974.392 339.55 978.683 339.55 970.982 414.103 966.691 414.103 967.351 406.956 967.241 406.956C966.361 408.935 965.004 410.713 963.17 412.289 961.336 413.865 958.732 414.653 955.359 414.653 951.471 414.653 948.354 413.407 946.007 410.914 943.66 408.422 942.743 404.61 943.256 399.478L946.777 365.06C947.364 360.222 948.941 356.704 951.508 354.504 954.075 352.305 957.192 351.206 960.86 351.206 964.233 351.206 966.819 351.939 968.616 353.405 970.413 354.871 971.642 356.557 972.302 358.463L972.412 358.463ZM890.831 339.55 895.122 339.55 893.802 351.755 902.934 351.755 902.604 355.164 893.472 355.164 888.301 404.096C888.081 406.222 888.301 407.835 888.961 408.935 889.621 410.035 891.125 410.584 893.472 410.584L896.772 410.584 896.443 414.103 893.032 414.103C889.071 414.103 886.485 413.205 885.276 411.409 884.065 409.613 883.643 407.029 884.01 403.657L889.181 355.164 884.12 355.164 884.56 351.755 889.511 351.755ZM843.165 339.55 847.566 339.55 847.126 343.948 842.725 343.948ZM749.125 339.55 754.846 339.55 762.437 414.103 757.926 414.103 756.056 394.64 736.802 394.64 731.081 414.103 726.68 414.103ZM709.077 339.55 713.588 339.55 705.776 414.103 701.266 414.103ZM683.8 339.55 689.521 339.55 697.112 414.103 692.602 414.103 690.731 394.64 671.477 394.64 665.756 414.103 661.355 414.103ZM576.31 339C579.39 339 581.902 339.421 583.846 340.264 585.79 341.108 587.293 342.299 588.357 343.838 589.42 345.378 590.099 347.21 590.392 349.336 590.685 351.462 590.685 353.808 590.392 356.374L589.732 362.311 585.551 362.311 586.321 355.714C586.541 353.808 586.56 352.048 586.376 350.436 586.193 348.823 585.735 347.449 585.001 346.312 584.268 345.176 583.186 344.296 581.756 343.673 580.325 343.05 578.473 342.739 576.199 342.739 574.146 342.739 572.385 343.068 570.919 343.728 569.452 344.388 568.223 345.304 567.233 346.477 566.243 347.65 565.491 349.024 564.977 350.601 564.464 352.177 564.097 353.881 563.877 355.714L559.696 396.399C559.476 398.379 559.495 400.248 559.752 402.007 560.008 403.767 560.54 405.306 561.347 406.626 562.153 407.945 563.29 408.99 564.757 409.76 566.224 410.529 568.021 410.914 570.148 410.914 574.182 410.914 577.098 409.723 578.895 407.34 580.692 404.958 581.774 401.934 582.14 398.269L583.901 380.785 573.779 380.785 574.109 377.046 588.522 377.046 584.561 414.103 580.71 414.103 581.481 407.176C580.6 409.228 579.225 410.987 577.355 412.454 575.484 413.92 572.715 414.653 569.048 414.653 566.261 414.653 563.932 414.14 562.062 413.113 560.192 412.087 558.706 410.713 557.606 408.99 556.506 407.267 555.754 405.233 555.351 402.887 554.947 400.541 554.892 398.049 555.185 395.41L559.256 356.044C559.55 353.625 560.081 351.371 560.852 349.281 561.622 347.192 562.685 345.378 564.042 343.838 565.399 342.299 567.086 341.108 569.103 340.264 571.12 339.421 573.522 339 576.31 339Z" fill="#00338D" fill-rule="evenodd"/><path d="M140.411 181.827C138.39 182.04 136.382 182.872 134.474 184.551 130.411 188.123 129.661 194.135 134.231 197.663 143.11 204.519 152.326 210.877 161.877 216.737 165.526 218.973 172.221 223.061 176.103 222.964 180.638 222.849 176.822 215.476 175.883 213.87 170.735 205.103 163.358 197.932 156.58 190.456 152.646 186.12 146.472 181.188 140.411 181.827ZM140.641 167.199C149.875 166.137 159.352 166.608 167.774 168.004 171.35 168.598 174.174 169.364 176.249 170.302 184.494 174.028 188.694 181.773 188.346 191.303 188.108 197.724 189.444 203.969 192.189 209.773 192.254 209.909 192.326 209.911 192.405 209.782 193.933 207.3 195.755 205.042 197.87 203.008 203.347 197.739 209.008 192.682 214.855 187.837 214.908 187.792 214.983 187.783 215.044 187.815 232.413 196.768 251.443 199.705 270.812 198.765 289.759 197.845 308.171 194.236 326.046 187.938 326.187 187.888 326.316 187.907 326.434 187.996 346.46 202.739 372.585 200.759 394.396 191.704 413.827 183.638 434.399 177.976 456.32 172.538 457.378 172.277 458.925 172.463 460.079 172.97 466.696 175.884 473.644 177.254 480.925 177.08 481.806 177.058 483.265 177.742 483.886 178.527 489.867 186.051 470.017 190.536 465.883 191.599 449.78 195.735 434.518 206.06 421.015 215.467 396.172 232.768 371.016 250.964 344.825 264.614 330.461 272.099 315.494 278.086 299.925 282.572 299.857 282.591 299.818 282.663 299.838 282.732 299.846 282.76 299.863 282.784 299.885 282.802 304.002 285.927 307.94 289.244 311.701 292.751 314.548 295.409 316.693 298.327 318.135 301.505 321.851 309.686 314.57 313.885 308.144 316.09 297.642 319.702 286.351 320.941 275.889 321.832 273.43 322.044 270.925 322.056 268.375 321.867 259.089 321.179 227.746 318.679 225.013 307.265 223.087 299.221 235.991 289.219 241.522 284.795 241.598 284.731 241.61 284.618 241.548 284.542 241.522 284.511 241.487 284.489 241.447 284.482 230.315 282.114 219.65 277.752 210.413 271.185 202.026 265.223 195.107 259.123 189.779 250.126 189.699 249.994 189.59 249.899 189.453 249.84 185.821 248.287 183.917 249.659 181.242 251.9 174.993 257.13 161.207 253.65 157.021 247.066 154.588 243.238 155.341 238.179 158.493 235.074 160.082 233.513 162.175 232.524 164.773 232.107 164.847 232.093 164.896 232.021 164.882 231.947 164.876 231.912 164.856 231.88 164.826 231.859 161.454 229.685 158.466 228.375 154.028 226.497 144.566 222.488 134.782 219.255 125.047 215.987 121.169 214.685 118.45 213.589 116.89 212.702 109.292 208.375 102.906 199.652 104.157 190.439 105.004 184.199 109.856 178.862 114.972 175.603 122.418 170.86 131.408 168.262 140.641 167.199ZM270.573 103.042C274.516 102.639 278.579 105.146 281.935 111.112 287.277 120.608 292.226 139.148 284.342 148.59 284.25 148.699 284.201 148.823 284.192 148.961 283.954 152.78 284.461 154.99 287.228 157.596 295.641 165.516 305.496 172.216 314.671 179.245 314.83 179.369 314.813 179.462 314.623 179.523 286.752 188.414 252.615 191.29 225.066 179.806 224.904 179.738 224.891 179.648 225.026 179.537 234.373 171.969 243.714 165.311 253.051 159.563 257.083 157.084 258.869 153.519 258.41 148.868 258.396 148.715 258.338 148.578 258.238 148.458 250.623 139.276 255.118 121.931 259.935 112.422 262.809 106.755 266.631 103.444 270.573 103.042Z" fill="#00338D" fill-rule="evenodd"/></g></svg>