<svg width="1281" height="321" xmlns="http://www.w3.org/2000/svg" xmlns:xlink="http://www.w3.org/1999/xlink" xml:space="preserve" overflow="hidden"><defs><clipPath id="clip0"><rect x="2945" y="66" width="1281" height="321"/></clipPath></defs><g clip-path="url(#clip0)" transform="translate(-2945 -66)"><path d="M4185.15 163.064C4180.53 163.064 4177.19 164.509 4175.12 167.401 4173.06 170.292 4172.03 174.133 4172.03 178.925L4172.03 195.53 4197.77 195.53 4197.77 178.925C4197.77 174.133 4196.78 170.292 4194.8 167.401 4192.82 164.509 4189.6 163.064 4185.15 163.064ZM3958.29 163.064C3953.67 163.064 3950.33 164.509 3948.27 167.401 3946.21 170.292 3945.18 174.133 3945.18 178.925L3945.18 195.53 3970.91 195.53 3970.91 178.925C3970.91 174.133 3969.92 170.292 3967.95 167.401 3965.96 164.509 3962.75 163.064 3958.29 163.064ZM4104.06 142.493 4131.28 142.493 4131.28 283.017 4104.06 283.017ZM4185.15 140.51C4198.68 140.51 4208.53 144.145 4214.72 151.415 4220.91 158.685 4224 168.681 4224 181.403L4224 215.357 4172.03 215.357 4172.03 246.585C4172.03 251.376 4173.14 255.218 4175.37 258.109 4177.6 261.001 4181.02 262.447 4185.64 262.447 4190.1 262.447 4193.31 261.042 4195.29 258.233 4197.27 255.425 4198.26 251.542 4198.26 246.585L4198.26 227.501 4224 227.501 4224 244.107C4224 256.829 4220.91 266.825 4214.72 274.095 4208.53 281.365 4198.68 285 4185.15 285 4178.38 285 4172.44 283.967 4167.33 281.902 4162.21 279.836 4158.01 276.904 4154.71 273.104 4151.41 269.304 4148.93 264.801 4147.28 259.596 4145.63 254.392 4144.81 248.65 4144.81 242.372L4144.81 183.138C4144.81 170.416 4148.11 160.131 4154.71 152.283 4161.31 144.434 4171.45 140.51 4185.15 140.51ZM4063.47 140.51C4072.05 140.51 4078.61 143.319 4083.15 148.937 4087.68 154.554 4089.95 163.559 4089.95 175.951L4089.95 283.017 4062.73 283.017 4062.73 177.19C4062.73 172.894 4061.94 169.425 4060.38 166.781 4058.81 164.138 4055.63 162.816 4050.85 162.816 4046.06 162.816 4042.81 164.138 4041.07 166.781 4039.34 169.425 4038.48 172.894 4038.48 177.19L4038.48 283.017 4011.25 283.017 4011.25 142.493 4038.48 142.493 4038.48 156.868 4038.97 156.868C4040.62 152.737 4043.3 148.978 4047.01 145.591 4050.73 142.204 4056.21 140.51 4063.47 140.51ZM3958.29 140.51C3971.82 140.51 3981.68 144.145 3987.87 151.415 3994.05 158.685 3997.15 168.681 3997.15 181.403L3997.15 215.357 3945.18 215.357 3945.18 246.585C3945.18 251.376 3946.29 255.218 3948.52 258.109 3950.75 261.001 3954.17 262.447 3958.79 262.447 3963.24 262.447 3966.46 261.042 3968.44 258.233 3970.42 255.425 3971.41 251.542 3971.41 246.585L3971.41 227.501 3997.15 227.501 3997.15 244.107C3997.15 256.829 3994.05 266.825 3987.87 274.095 3981.68 281.365 3971.82 285 3958.29 285 3951.53 285 3945.59 283.967 3940.48 281.902 3935.36 279.836 3931.15 276.904 3927.85 273.104 3924.55 269.304 3922.08 264.801 3920.43 259.596 3918.78 254.392 3917.95 248.65 3917.95 242.372L3917.95 183.138C3917.95 170.416 3921.25 160.131 3927.85 152.283 3934.45 144.434 3944.6 140.51 3958.29 140.51ZM3520.45 138.032 3520.45 204.205 3530.85 204.205C3540.09 204.205 3544.71 199.578 3544.71 190.326L3544.71 151.663C3544.71 142.576 3540.09 138.032 3530.85 138.032ZM4104.06 114.983 4131.28 114.983 4131.28 136.297 4104.06 136.297ZM3585.04 114.983 3617.96 114.983 3636.27 209.657 3636.52 209.657 3652.85 114.983 3688.49 114.983 3688.49 283.017 3662.75 283.017 3662.75 173.968 3662.01 173.968 3642.95 283.017 3629.84 283.017 3608.8 173.968 3608.31 173.968 3608.31 283.017 3585.04 283.017ZM3492.24 114.983 3534.06 114.983C3548.25 114.983 3558.28 118.329 3564.13 125.02 3569.99 131.712 3572.92 140.923 3572.92 152.654L3572.92 188.095C3572.92 199.826 3569.99 209.079 3564.13 215.853 3558.28 222.627 3548.25 226.014 3534.06 226.014L3520.45 226.014 3520.45 283.017 3492.24 283.017ZM3396 114.983 3424.21 114.983 3424.21 188.839 3454.9 114.983 3482.62 114.983 3449.95 190.574 3483.36 283.017 3453.66 283.017 3424.21 201.23 3424.21 283.017 3396 283.017ZM3864.53 113C3872.28 113 3878.76 114.033 3883.95 116.098 3889.15 118.164 3893.28 121.055 3896.33 124.773 3899.38 128.49 3901.57 132.951 3902.89 138.156 3904.21 143.36 3904.87 149.019 3904.87 155.133L3904.87 170.003 3879.13 170.003 3879.13 152.902C3879.13 147.615 3878.06 143.567 3875.91 140.758 3873.77 137.949 3870.14 136.545 3865.02 136.545 3859.91 136.545 3856.2 138.156 3853.89 141.378 3851.58 144.6 3850.42 148.771 3850.42 153.893L3850.42 244.107C3850.42 249.229 3851.54 253.4 3853.76 256.623 3855.99 259.844 3859.5 261.455 3864.28 261.455 3873.52 261.455 3878.14 256.086 3878.14 245.346L3878.14 215.605 3864.78 215.605 3864.78 193.3 3904.87 193.3 3904.87 283.017 3884.57 283.017 3884.57 264.677C3882.76 270.956 3879.75 275.913 3875.54 279.547 3871.33 283.182 3865.35 285 3857.6 285 3851.49 285 3846.21 283.843 3841.76 281.53 3837.31 279.217 3833.63 276.037 3830.75 271.988 3827.86 267.94 3825.72 263.149 3824.31 257.614 3822.91 252.079 3822.21 246.089 3822.21 239.645L3822.21 158.355C3822.21 151.746 3823.03 145.674 3824.68 140.139 3826.33 134.603 3828.85 129.812 3832.23 125.764 3835.61 121.716 3839.99 118.577 3845.35 116.346 3850.71 114.116 3857.1 113 3864.53 113ZM3744.23 113C3751.98 113 3758.46 114.033 3763.65 116.098 3768.85 118.164 3772.98 121.055 3776.03 124.773 3779.08 128.49 3781.27 132.951 3782.59 138.156 3783.91 143.36 3784.57 149.019 3784.57 155.133L3784.57 170.003 3758.83 170.003 3758.83 152.902C3758.83 147.615 3757.76 143.567 3755.61 140.758 3753.47 137.949 3749.84 136.545 3744.72 136.545 3739.61 136.545 3735.9 138.156 3733.59 141.378 3731.28 144.6 3730.12 148.771 3730.12 153.893L3730.12 244.107C3730.12 249.229 3731.23 253.4 3733.46 256.623 3735.69 259.844 3739.19 261.455 3743.98 261.455 3753.22 261.455 3757.84 256.086 3757.84 245.346L3757.84 215.605 3744.47 215.605 3744.47 193.3 3784.57 193.3 3784.57 283.017 3764.27 283.017 3764.27 264.677C3762.46 270.956 3759.45 275.913 3755.24 279.547 3751.03 283.182 3745.05 285 3737.3 285 3731.19 285 3725.91 283.843 3721.46 281.53 3717 279.217 3713.33 276.037 3710.45 271.988 3707.56 267.94 3705.41 263.149 3704.01 257.614 3702.61 252.079 3701.91 246.089 3701.91 239.645L3701.91 158.355C3701.91 151.746 3702.73 145.674 3704.38 140.139 3706.03 134.603 3708.55 129.812 3711.93 125.764 3715.31 121.716 3719.69 118.577 3725.05 116.346 3730.41 114.116 3736.8 113 3744.23 113Z" fill="#FFFFFF" fill-rule="evenodd"/><path d="M4074.14 339.387C4073.85 339.754 4073.48 340.12 4073.04 340.487 4072.6 340.853 4072 341.275 4071.23 341.751 4070.46 342.228 4069.43 342.778 4068.15 343.401 4066.87 344.024 4065.24 344.775 4063.26 345.655 4061.58 346.461 4060.09 347.194 4058.81 347.854 4057.53 348.514 4056.45 349.265 4055.57 350.108 4054.69 350.951 4054 351.977 4053.48 353.187 4052.97 354.397 4052.6 355.881 4052.38 357.641L4051.83 362.809C4051.39 366.621 4051.93 369.443 4053.43 371.276 4054.93 373.108 4057.26 374.025 4060.41 374.025 4063.26 374.025 4065.77 373.127 4067.93 371.331 4070.09 369.535 4071.36 366.877 4071.72 363.358ZM3953.95 339.387C3953.66 339.754 3953.29 340.12 3952.85 340.487 3952.41 340.853 3951.81 341.275 3951.04 341.751 3950.27 342.228 3949.24 342.778 3947.96 343.401 3946.68 344.024 3945.05 344.775 3943.07 345.655 3941.39 346.461 3939.9 347.194 3938.62 347.854 3937.34 348.514 3936.26 349.265 3935.38 350.108 3934.5 350.951 3933.81 351.977 3933.29 353.187 3932.78 354.397 3932.41 355.881 3932.19 357.641L3931.64 362.809C3931.2 366.621 3931.74 369.443 3933.24 371.276 3934.74 373.108 3937.06 374.025 3940.22 374.025 3943.07 374.025 3945.58 373.127 3947.74 371.331 3949.9 369.535 3951.17 366.877 3951.53 363.358ZM3895.57 339.387C3895.28 339.754 3894.91 340.12 3894.47 340.487 3894.03 340.853 3893.43 341.275 3892.66 341.751 3891.89 342.228 3890.87 342.778 3889.58 343.401 3888.3 344.024 3886.67 344.775 3884.69 345.655 3883.01 346.461 3881.53 347.194 3880.24 347.854 3878.96 348.514 3877.88 349.265 3877 350.108 3876.12 350.951 3875.43 351.977 3874.91 353.187 3874.4 354.397 3874.03 355.881 3873.82 357.641L3873.27 362.809C3872.83 366.621 3873.36 369.443 3874.86 371.276 3876.36 373.108 3878.69 374.025 3881.84 374.025 3884.69 374.025 3887.2 373.127 3889.36 371.331 3891.53 369.535 3892.79 366.877 3893.16 363.358ZM3765.14 317.835C3758.47 317.835 3754.7 321.72 3753.82 329.491L3752.5 341.806 3773.38 341.806 3774.59 330.26C3774.95 326.228 3774.35 323.15 3772.77 321.024 3771.2 318.898 3768.65 317.835 3765.14 317.835ZM3452.64 317.835C3445.97 317.835 3442.2 321.72 3441.32 329.491L3440 341.806 3460.88 341.806 3462.09 330.26C3462.46 326.228 3461.85 323.15 3460.28 321.024 3458.7 318.898 3456.16 317.835 3452.64 317.835ZM3802.58 317.834C3796.13 317.834 3792.47 321.427 3791.59 328.61L3788.18 362.698C3787.82 366.364 3788.4 369.186 3789.94 371.165 3791.48 373.145 3793.9 374.134 3797.2 374.134 3800.35 374.134 3802.95 372.998 3805 370.726 3807.05 368.453 3808.29 365.191 3808.73 360.939L3812.03 329.82C3812.47 325.935 3811.74 322.966 3809.83 320.913 3807.93 318.861 3805.51 317.834 3802.58 317.834ZM4156.39 314.756 4160.79 314.756 4154.31 377.104 4149.91 377.104ZM4095.05 314.756 4099.44 314.756 4105.49 364.128 4105.6 364.128 4122.41 314.756 4126.7 314.756 4104.39 379.413C4103.44 382.199 4102.28 384.159 4100.93 385.296 4099.57 386.432 4097.39 387 4094.39 387L4090.76 387 4091.2 383.482 4094.17 383.482C4096.29 383.482 4097.74 383.097 4098.51 382.327 4099.28 381.557 4099.99 380.183 4100.65 378.203L4103.18 370.946 4102.19 370.946ZM3682.5 314.756 3686.9 314.756 3680.41 377.104 3676.02 377.104ZM4213.01 314.206C4222.54 314.206 4226.82 318.751 4225.87 327.841L4225.32 333.119 4221.15 333.119 4221.69 327.841C4222.06 324.322 4221.51 321.775 4220.05 320.199 4218.58 318.623 4216.24 317.835 4213.01 317.835 4209.79 317.835 4207.41 318.568 4205.87 320.034 4204.33 321.5 4203.42 323.553 4203.12 326.192L4202.9 328.171C4202.68 330.443 4203 332.459 4203.84 334.219 4204.68 335.978 4206.42 337.994 4209.06 340.267L4215.65 345.875C4218.87 348.661 4221 351.3 4222.02 353.792 4223.05 356.284 4223.38 359.143 4223.01 362.369L4222.79 364.458C4222.35 368.783 4221.05 372.064 4218.89 374.3 4216.73 376.535 4213.23 377.653 4208.4 377.653 4203.34 377.653 4199.7 376.352 4197.46 373.75 4195.23 371.147 4194.33 367.61 4194.77 363.139L4195.43 356.981 4199.61 356.981 4198.95 363.248C4198.58 366.621 4199.15 369.26 4200.65 371.166 4202.15 373.072 4204.73 374.025 4208.4 374.025 4211.91 374.025 4214.41 373.2 4215.87 371.551 4217.34 369.901 4218.25 367.5 4218.62 364.348L4218.84 362.369C4219.13 359.73 4218.86 357.439 4218.01 355.496 4217.17 353.554 4215.36 351.373 4212.57 348.954L4205.98 343.236C4203.2 340.817 4201.22 338.434 4200.05 336.088 4198.87 333.742 4198.47 330.993 4198.84 327.841L4199.06 325.862C4199.5 322.27 4200.83 319.429 4203.07 317.34 4205.3 315.251 4208.62 314.206 4213.01 314.206ZM4180.65 314.206C4185.71 314.206 4189.3 315.526 4191.42 318.165 4193.54 320.804 4194.35 324.652 4193.84 329.71L4193.4 333.889 4189.11 333.889 4189.55 329.491C4189.92 325.679 4189.39 322.783 4187.96 320.804 4186.53 318.824 4184.06 317.835 4180.54 317.835 4173.87 317.835 4170.1 321.72 4169.22 329.491L4165.82 361.929C4165.45 365.741 4166.11 368.71 4167.79 370.836 4169.48 372.962 4172.04 374.025 4175.49 374.025 4178.78 374.025 4181.31 373.182 4183.07 371.496 4184.83 369.81 4185.89 367.134 4186.26 363.469L4186.92 356.431 4191.2 356.431 4190.43 363.469C4189.92 368.307 4188.43 371.88 4185.98 374.19 4183.53 376.499 4179.99 377.653 4175.38 377.653 4170.39 377.653 4166.71 376.169 4164.33 373.2 4161.95 370.231 4161.05 366.144 4161.64 360.94L4164.94 329.71C4165.45 324.652 4167.06 320.804 4169.77 318.165 4172.48 315.526 4176.11 314.206 4180.65 314.206ZM4067.11 314.206C4072.02 314.206 4075.44 315.507 4077.38 318.11 4079.32 320.712 4080.04 324.359 4079.53 329.051L4074.58 377.104 4070.19 377.104 4070.85 370.946 4070.63 370.946C4069.6 372.852 4068.17 374.446 4066.34 375.729 4064.51 377.012 4062.2 377.653 4059.42 377.653 4055.31 377.653 4052.16 376.462 4049.97 374.08 4047.77 371.697 4046.93 367.977 4047.44 362.919L4047.99 357.641C4048.28 355.221 4048.81 353.206 4049.58 351.593 4050.35 349.98 4051.36 348.624 4052.6 347.524 4053.85 346.425 4055.3 345.471 4056.94 344.665 4058.59 343.859 4060.48 343.016 4062.6 342.136 4067.07 340.304 4070.2 338.746 4072 337.463 4073.79 336.18 4074.76 334.695 4074.91 333.009L4075.24 328.831C4075.61 325.312 4075.2 322.6 4074.03 320.694 4072.86 318.788 4070.52 317.835 4067 317.835 4063.7 317.835 4061.28 318.696 4059.75 320.419 4058.21 322.142 4057.29 324.652 4057 327.951L4056.34 333.889 4052.16 333.889 4052.71 327.731C4053.23 323.479 4054.64 320.162 4056.94 317.78 4059.25 315.397 4062.64 314.206 4067.11 314.206ZM4034.97 314.206C4038.85 314.206 4041.82 315.489 4043.87 318.055 4045.92 320.621 4046.65 324.579 4046.07 329.93L4041.23 377.104 4036.83 377.104 4041.78 329.93C4042.22 325.972 4041.76 322.966 4040.41 320.914 4039.05 318.861 4036.72 317.835 4033.43 317.835 4030.13 317.835 4027.46 319.063 4025.41 321.519 4023.36 323.974 4022.15 327.071 4021.78 330.81L4016.95 377.104 4012.55 377.104 4019.03 314.756 4023.43 314.756 4022.66 321.793 4022.77 321.793C4023.65 319.888 4025.08 318.146 4027.05 316.57 4029.03 314.994 4031.67 314.206 4034.97 314.206ZM3946.92 314.206C3951.83 314.206 3955.25 315.507 3957.19 318.11 3959.13 320.712 3959.85 324.359 3959.34 329.051L3954.39 377.104 3950 377.104 3950.65 370.946 3950.43 370.946C3949.41 372.852 3947.98 374.446 3946.15 375.729 3944.32 377.012 3942.01 377.653 3939.23 377.653 3935.12 377.653 3931.97 376.462 3929.78 374.08 3927.58 371.697 3926.74 367.977 3927.25 362.919L3927.8 357.641C3928.09 355.221 3928.62 353.206 3929.39 351.593 3930.16 349.98 3931.17 348.624 3932.41 347.524 3933.66 346.425 3935.11 345.471 3936.75 344.665 3938.4 343.859 3940.29 343.016 3942.41 342.136 3946.88 340.304 3950.01 338.746 3951.81 337.463 3953.6 336.18 3954.57 334.695 3954.72 333.009L3955.05 328.831C3955.42 325.312 3955.01 322.6 3953.84 320.694 3952.67 318.788 3950.33 317.835 3946.81 317.835 3943.51 317.835 3941.09 318.696 3939.56 320.419 3938.02 322.142 3937.1 324.652 3936.81 327.951L3936.15 333.889 3931.97 333.889 3932.52 327.731C3933.04 323.479 3934.45 320.162 3936.75 317.78 3939.06 315.397 3942.45 314.206 3946.92 314.206ZM3888.54 314.206C3893.45 314.206 3896.87 315.507 3898.81 318.11 3900.76 320.712 3901.47 324.359 3900.96 329.051L3896.01 377.104 3891.62 377.104 3892.28 370.946 3892.06 370.946C3891.03 372.852 3889.6 374.446 3887.77 375.729 3885.94 377.012 3883.63 377.653 3880.85 377.653 3876.75 377.653 3873.6 376.462 3871.4 374.08 3869.2 371.697 3868.36 367.977 3868.87 362.919L3869.42 357.641C3869.71 355.221 3870.24 353.206 3871.01 351.593 3871.78 349.98 3872.79 348.624 3874.03 347.524 3875.28 346.425 3876.73 345.471 3878.38 344.665 3880.02 343.859 3881.91 343.016 3884.03 342.136 3888.5 340.304 3891.64 338.746 3893.43 337.463 3895.23 336.18 3896.2 334.695 3896.34 333.009L3896.67 328.831C3897.04 325.312 3896.64 322.6 3895.46 320.694 3894.29 318.788 3891.95 317.835 3888.43 317.835 3885.13 317.835 3882.72 318.696 3881.18 320.419 3879.64 322.142 3878.72 324.652 3878.43 327.951L3877.77 333.889 3873.6 333.889 3874.14 327.731C3874.66 323.479 3876.07 320.162 3878.38 317.78 3880.68 315.397 3884.07 314.206 3888.54 314.206ZM3765.36 314.206C3770.19 314.206 3773.76 315.617 3776.07 318.439 3778.38 321.262 3779.24 325.239 3778.65 330.37L3777.11 345.325 3752.06 345.325 3750.41 361.159C3749.97 365.338 3750.67 368.527 3752.5 370.726 3754.33 372.925 3757.04 374.025 3760.63 374.025 3764.07 374.025 3766.6 373.072 3768.21 371.166 3769.82 369.26 3770.85 366.291 3771.29 362.259L3771.84 356.431 3776.01 356.431 3775.36 362.369C3774.77 367.647 3773.32 371.514 3771.01 373.97 3768.71 376.426 3765.21 377.653 3760.52 377.653 3755.47 377.653 3751.66 376.187 3749.09 373.255 3746.53 370.323 3745.54 366.218 3746.12 360.94L3749.42 329.491C3749.93 324.506 3751.53 320.712 3754.2 318.11 3756.88 315.507 3760.59 314.206 3765.36 314.206ZM3704.78 314.206C3714.3 314.206 3718.59 318.751 3717.64 327.841L3717.09 333.119 3712.91 333.119 3713.46 327.841C3713.83 324.322 3713.28 321.775 3711.81 320.199 3710.35 318.623 3708 317.835 3704.78 317.835 3701.56 317.835 3699.17 318.568 3697.64 320.034 3696.1 321.5 3695.18 323.553 3694.89 326.192L3694.67 328.171C3694.45 330.443 3694.76 332.459 3695.6 334.219 3696.45 335.978 3698.19 337.994 3700.82 340.267L3707.42 345.875C3710.64 348.661 3712.76 351.3 3713.79 353.792 3714.82 356.284 3715.15 359.143 3714.78 362.369L3714.56 364.458C3714.12 368.783 3712.82 372.064 3710.66 374.3 3708.5 376.535 3705 377.653 3700.16 377.653 3695.11 377.653 3691.46 376.352 3689.23 373.75 3687 371.147 3686.1 367.61 3686.54 363.139L3687.2 356.981 3691.37 356.981 3690.71 363.248C3690.35 366.621 3690.92 369.26 3692.42 371.166 3693.92 373.072 3696.5 374.025 3700.16 374.025 3703.68 374.025 3706.17 373.2 3707.64 371.551 3709.1 369.901 3710.02 367.5 3710.38 364.348L3710.6 362.369C3710.9 359.73 3710.62 357.439 3709.78 355.496 3708.94 353.554 3707.12 351.373 3704.34 348.954L3697.75 343.236C3694.96 340.817 3692.98 338.434 3691.81 336.088 3690.64 333.742 3690.24 330.993 3690.6 327.841L3690.82 325.862C3691.26 322.27 3692.6 319.429 3694.83 317.34 3697.07 315.251 3700.38 314.206 3704.78 314.206ZM3660.14 314.206C3669.66 314.206 3673.95 318.751 3672.99 327.841L3672.44 333.119 3668.27 333.119 3668.82 327.841C3669.18 324.322 3668.64 321.775 3667.17 320.199 3665.7 318.623 3663.36 317.835 3660.14 317.835 3656.91 317.835 3654.53 318.568 3652.99 320.034 3651.46 321.5 3650.54 323.553 3650.25 326.192L3650.03 328.171C3649.81 330.443 3650.12 332.459 3650.96 334.219 3651.8 335.978 3653.54 337.994 3656.18 340.267L3662.77 345.875C3666 348.661 3668.12 351.3 3669.15 353.792 3670.17 356.284 3670.5 359.143 3670.14 362.369L3669.92 364.458C3669.48 368.783 3668.18 372.064 3666.02 374.3 3663.85 376.535 3660.36 377.653 3655.52 377.653 3650.47 377.653 3646.82 376.352 3644.59 373.75 3642.35 371.147 3641.46 367.61 3641.9 363.139L3642.55 356.981 3646.73 356.981 3646.07 363.248C3645.71 366.621 3646.27 369.26 3647.77 371.166 3649.28 373.072 3651.86 374.025 3655.52 374.025 3659.04 374.025 3661.53 373.2 3662.99 371.551 3664.46 369.901 3665.38 367.5 3665.74 364.348L3665.96 362.369C3666.25 359.73 3665.98 357.439 3665.14 355.496 3664.29 353.554 3662.48 351.373 3659.7 348.954L3653.1 343.236C3650.32 340.817 3648.34 338.434 3647.17 336.088 3646 333.742 3645.6 330.993 3645.96 327.841L3646.18 325.862C3646.62 322.27 3647.96 319.429 3650.19 317.34 3652.43 315.251 3655.74 314.206 3660.14 314.206ZM3625.8 314.206C3635.32 314.206 3639.61 318.751 3638.65 327.841L3638.1 333.119 3633.93 333.119 3634.48 327.841C3634.84 324.322 3634.29 321.775 3632.83 320.199 3631.36 318.623 3629.02 317.835 3625.8 317.835 3622.57 317.835 3620.19 318.568 3618.65 320.034 3617.12 321.5 3616.2 323.553 3615.91 326.192L3615.69 328.171C3615.47 330.443 3615.78 332.459 3616.62 334.219 3617.46 335.978 3619.2 337.994 3621.84 340.267L3628.43 345.875C3631.66 348.661 3633.78 351.3 3634.81 353.792 3635.83 356.284 3636.16 359.143 3635.8 362.369L3635.58 364.458C3635.14 368.783 3633.84 372.064 3631.68 374.3 3629.51 376.535 3626.02 377.653 3621.18 377.653 3616.13 377.653 3612.48 376.352 3610.25 373.75 3608.01 371.147 3607.12 367.61 3607.56 363.139L3608.21 356.981 3612.39 356.981 3611.73 363.248C3611.36 366.621 3611.93 369.26 3613.43 371.166 3614.94 373.072 3617.52 374.025 3621.18 374.025 3624.7 374.025 3627.19 373.2 3628.65 371.551 3630.12 369.901 3631.04 367.5 3631.4 364.348L3631.62 362.369C3631.91 359.73 3631.64 357.439 3630.8 355.496 3629.95 353.554 3628.14 351.373 3625.36 348.954L3618.76 343.236C3615.98 340.817 3614 338.434 3612.83 336.088 3611.66 333.742 3611.26 330.993 3611.62 327.841L3611.84 325.862C3612.28 322.27 3613.62 319.429 3615.85 317.34 3618.09 315.251 3621.4 314.206 3625.8 314.206ZM3492.39 314.206C3496.27 314.206 3499.24 315.489 3501.29 318.055 3503.34 320.621 3504.08 324.579 3503.49 329.93L3498.66 377.104 3494.26 377.104 3499.21 329.93C3499.65 325.972 3499.19 322.966 3497.83 320.914 3496.48 318.861 3494.15 317.835 3490.85 317.835 3487.56 317.835 3484.88 319.063 3482.83 321.519 3480.78 323.974 3479.57 327.071 3479.21 330.81L3474.37 377.104 3469.98 377.104 3476.46 314.756 3480.85 314.756 3480.08 321.793 3480.19 321.793C3481.07 319.888 3482.5 318.146 3484.48 316.57 3486.46 314.994 3489.1 314.206 3492.39 314.206ZM3452.86 314.206C3457.7 314.206 3461.27 315.617 3463.57 318.439 3465.88 321.262 3466.74 325.239 3466.16 330.37L3464.62 345.325 3439.56 345.325 3437.92 361.159C3437.48 365.338 3438.17 368.527 3440 370.726 3441.83 372.925 3444.55 374.025 3448.14 374.025 3451.58 374.025 3454.11 373.072 3455.72 371.166 3457.33 369.26 3458.35 366.291 3458.79 362.259L3459.34 356.431 3463.52 356.431 3462.86 362.369C3462.27 367.647 3460.83 371.514 3458.52 373.97 3456.21 376.426 3452.71 377.653 3448.03 377.653 3442.97 377.653 3439.16 376.187 3436.6 373.255 3434.03 370.323 3433.04 366.218 3433.63 360.94L3436.93 329.491C3437.44 324.506 3439.03 320.712 3441.71 318.11 3444.38 315.507 3448.1 314.206 3452.86 314.206ZM3997.19 309.367 3983.9 353.901 4001.59 353.901 3997.3 309.367ZM3591.98 309.367 3578.68 353.901 3596.37 353.901 3592.09 309.367ZM3526.73 309.367 3513.44 353.901 3531.13 353.901 3526.84 309.367ZM3842.52 306.289 3835.38 373.365 3845.38 373.365C3850 373.365 3853.37 372.155 3855.49 369.736 3857.62 367.317 3858.86 364.201 3859.23 360.389L3863.4 320.693C3863.62 318.714 3863.6 316.845 3863.35 315.085 3863.09 313.326 3862.52 311.787 3861.65 310.467 3860.77 309.148 3859.54 308.121 3857.96 307.388 3856.39 306.655 3854.36 306.289 3851.86 306.289ZM4157.71 302.55 4162.11 302.55 4161.67 306.948 4157.27 306.948ZM4136.64 302.55 4140.93 302.55 4139.61 314.756 4148.73 314.756 4148.4 318.164 4139.28 318.164 4134.11 367.097C4133.89 369.223 4134.11 370.836 4134.77 371.935 4135.43 373.035 4136.93 373.585 4139.28 373.585L4142.57 373.585 4142.25 377.103 4138.84 377.103C4134.88 377.103 4132.3 376.205 4131.09 374.409 4129.88 372.613 4129.46 370.029 4129.83 366.657L4134.99 318.164 4129.94 318.164 4130.38 314.756 4135.32 314.756ZM4089.03 302.55 4093.43 302.55 4085.63 377.103 4081.23 377.103ZM3995.1 302.55 4000.82 302.55 4008.4 377.103 4003.9 377.103 4002.03 357.64 3982.8 357.64 3977.08 377.103 3972.69 377.103ZM3913.43 302.55 3917.72 302.55 3916.4 314.756 3925.52 314.756 3925.19 318.164 3916.07 318.164 3910.9 367.097C3910.68 369.223 3910.9 370.836 3911.56 371.935 3912.22 373.035 3913.72 373.585 3916.07 373.585L3919.36 373.585 3919.03 377.103 3915.63 377.103C3911.67 377.103 3909.09 376.205 3907.88 374.409 3906.67 372.613 3906.25 370.029 3906.62 366.657L3911.78 318.164 3906.73 318.164 3907.17 314.756 3912.11 314.756ZM3838.35 302.55 3852.63 302.55C3855.86 302.55 3858.51 303.045 3860.6 304.034 3862.69 305.024 3864.32 306.38 3865.49 308.103 3866.66 309.825 3867.43 311.841 3867.8 314.151 3868.17 316.46 3868.2 318.971 3867.91 321.683L3863.84 360.169C3863.55 362.589 3863 364.843 3862.19 366.932 3861.39 369.021 3860.27 370.817 3858.84 372.32 3857.41 373.823 3855.62 374.996 3853.46 375.839 3851.3 376.682 3848.75 377.103 3845.82 377.103L3830.55 377.103ZM3814.89 302.55 3819.17 302.55 3811.48 377.103 3807.2 377.103 3807.85 369.956 3807.74 369.956C3806.87 371.935 3805.51 373.713 3803.68 375.289 3801.85 376.865 3799.25 377.653 3795.88 377.653 3791.99 377.653 3788.88 376.407 3786.54 373.914 3784.19 371.422 3783.28 367.61 3783.79 362.479L3787.31 328.061C3787.89 323.222 3789.47 319.704 3792.03 317.505 3794.59 315.305 3797.71 314.206 3801.37 314.206 3804.74 314.206 3807.32 314.939 3809.12 316.405 3810.91 317.871 3812.14 319.557 3812.8 321.463L3812.91 321.463ZM3731.43 302.55 3735.71 302.55 3734.39 314.756 3743.51 314.756 3743.19 318.164 3734.06 318.164 3728.9 367.097C3728.68 369.223 3728.9 370.836 3729.56 371.935 3730.22 373.035 3731.72 373.585 3734.06 373.585L3737.36 373.585 3737.03 377.103 3733.62 377.103C3729.67 377.103 3727.09 376.205 3725.88 374.409 3724.67 372.613 3724.25 370.029 3724.61 366.657L3729.78 318.164 3724.72 318.164 3725.16 314.756 3730.11 314.756ZM3683.82 302.55 3688.21 302.55 3687.77 306.948 3683.38 306.948ZM3589.89 302.55 3595.6 302.55 3603.19 377.103 3598.68 377.103 3596.81 357.64 3577.58 357.64 3571.87 377.103 3567.47 377.103ZM3549.89 302.55 3554.4 302.55 3546.59 377.103 3542.09 377.103ZM3524.64 302.55 3530.36 302.55 3537.94 377.103 3533.44 377.103 3531.57 357.64 3512.34 357.64 3506.62 377.103 3502.23 377.103ZM3417.28 302C3420.36 302 3422.87 302.422 3424.81 303.265 3426.75 304.108 3428.25 305.299 3429.32 306.838 3430.38 308.378 3431.06 310.21 3431.35 312.336 3431.64 314.462 3431.64 316.808 3431.35 319.374L3430.69 325.312 3426.51 325.312 3427.28 318.714C3427.5 316.808 3427.52 315.049 3427.34 313.436 3427.16 311.823 3426.7 310.449 3425.96 309.312 3425.23 308.176 3424.15 307.297 3422.72 306.673 3421.29 306.05 3419.44 305.739 3417.17 305.739 3415.12 305.739 3413.36 306.068 3411.9 306.728 3410.43 307.388 3409.21 308.305 3408.22 309.477 3407.23 310.65 3406.48 312.025 3405.97 313.601 3405.45 315.177 3405.09 316.881 3404.87 318.714L3400.69 359.399C3400.47 361.379 3400.49 363.248 3400.75 365.008 3401 366.767 3401.53 368.306 3402.34 369.626 3403.14 370.945 3404.28 371.99 3405.75 372.76 3407.21 373.529 3409.01 373.914 3411.13 373.914 3415.16 373.914 3418.07 372.723 3419.87 370.341 3421.66 367.958 3422.74 364.934 3423.11 361.269L3424.87 343.785 3414.76 343.785 3415.09 340.047 3429.48 340.047 3425.53 377.103 3421.68 377.103 3422.45 370.176C3421.57 372.228 3420.2 373.988 3418.33 375.454 3416.46 376.92 3413.69 377.653 3410.03 377.653 3407.25 377.653 3404.92 377.14 3403.05 376.114 3401.19 375.087 3399.7 373.713 3398.6 371.99 3397.5 370.267 3396.75 368.233 3396.35 365.887 3395.95 363.541 3395.89 361.049 3396.19 358.41L3400.25 319.044C3400.54 316.625 3401.08 314.371 3401.84 312.282 3402.61 310.192 3403.68 308.378 3405.03 306.838 3406.39 305.299 3408.07 304.108 3410.09 303.265 3412.1 302.422 3414.5 302 3417.28 302Z" fill="#FFFFFF" fill-rule="evenodd"/><path d="M2981.41 144.827C2979.39 145.04 2977.38 145.872 2975.47 147.551 2971.41 151.123 2970.66 157.134 2975.23 160.663 2984.11 167.519 2993.33 173.877 3002.88 179.737 3006.53 181.973 3013.22 186.061 3017.1 185.964 3021.64 185.849 3017.82 178.475 3016.88 176.87 3011.74 168.103 3004.36 160.931 2997.58 153.456 2993.65 149.12 2987.47 144.188 2981.41 144.827ZM2981.64 130.199C2990.87 129.136 3000.35 129.608 3008.77 131.004 3012.35 131.598 3015.17 132.363 3017.25 133.302 3025.49 137.028 3029.69 144.773 3029.35 154.303 3029.11 160.724 3030.44 166.969 3033.19 172.773 3033.25 172.909 3033.33 172.911 3033.41 172.782 3034.93 170.3 3036.75 168.042 3038.87 166.008 3044.35 160.739 3050.01 155.682 3055.85 150.837 3055.91 150.792 3055.98 150.783 3056.04 150.815 3073.41 159.767 3092.44 162.705 3111.81 161.765 3130.76 160.845 3149.17 157.236 3167.05 150.938 3167.19 150.888 3167.32 150.907 3167.43 150.995 3187.46 165.739 3213.58 163.759 3235.4 154.704 3254.83 146.638 3275.4 140.976 3297.32 135.537 3298.38 135.277 3299.92 135.463 3301.08 135.97 3307.7 138.884 3314.64 140.253 3321.92 140.08 3322.81 140.058 3324.27 140.742 3324.89 141.527 3330.87 149.051 3311.02 153.536 3306.88 154.599 3290.78 158.735 3275.52 169.06 3262.01 178.466 3237.17 195.768 3212.02 213.964 3185.82 227.614 3171.46 235.099 3156.49 241.086 3140.93 245.572 3140.86 245.591 3140.82 245.663 3140.84 245.732 3140.85 245.76 3140.86 245.784 3140.89 245.802 3145 248.927 3148.94 252.243 3152.7 255.751 3155.55 258.409 3157.69 261.327 3159.14 264.505 3162.85 272.686 3155.57 276.885 3149.14 279.09 3138.64 282.702 3127.35 283.941 3116.89 284.832 3114.43 285.044 3111.93 285.056 3109.38 284.867 3100.09 284.179 3068.75 281.679 3066.01 270.265 3064.09 262.221 3076.99 252.219 3082.52 247.795 3082.6 247.731 3082.61 247.617 3082.55 247.542 3082.52 247.511 3082.49 247.489 3082.45 247.482 3071.31 245.114 3060.65 240.752 3051.41 234.185 3043.03 228.222 3036.11 222.123 3030.78 213.126 3030.7 212.994 3030.59 212.898 3030.45 212.84 3026.82 211.287 3024.92 212.659 3022.24 214.899 3015.99 220.13 3002.21 216.65 2998.02 210.066 2995.59 206.237 2996.34 201.179 2999.49 198.074 3001.08 196.513 3003.18 195.524 3005.77 195.106 3005.85 195.093 3005.9 195.021 3005.88 194.947 3005.88 194.912 3005.86 194.88 3005.83 194.859 3002.45 192.685 2999.47 191.375 2995.03 189.496 2985.57 185.488 2975.78 182.255 2966.05 178.987 2962.17 177.685 2959.45 176.589 2957.89 175.701 2950.29 171.375 2943.91 162.652 2945.16 153.439 2946 147.198 2950.86 141.862 2955.97 138.603 2963.42 133.859 2972.41 131.262 2981.64 130.199ZM3111.57 66.0415C3115.52 65.6391 3119.58 68.1454 3122.94 74.1123 3128.28 83.6076 3133.23 102.148 3125.34 111.59 3125.25 111.699 3125.2 111.823 3125.19 111.96 3124.95 115.78 3125.46 117.989 3128.23 120.596 3136.64 128.516 3146.5 135.216 3155.67 142.245 3155.83 142.369 3155.81 142.462 3155.62 142.523 3127.75 151.414 3093.61 154.29 3066.07 142.806 3065.9 142.738 3065.89 142.648 3066.03 142.537 3075.37 134.969 3084.71 128.311 3094.05 122.563 3098.08 120.084 3099.87 116.519 3099.41 111.868 3099.4 111.715 3099.34 111.578 3099.24 111.458 3091.62 102.276 3096.12 84.9304 3100.94 75.4221 3103.81 69.7551 3107.63 66.4439 3111.57 66.0415Z" fill="#00338D" fill-rule="evenodd"/></g></svg>