<svg width="1279" height="219" xmlns="http://www.w3.org/2000/svg" xmlns:xlink="http://www.w3.org/1999/xlink" xml:space="preserve" overflow="hidden"><defs><clipPath id="clip0"><rect x="1452" y="446" width="1279" height="219"/></clipPath></defs><g clip-path="url(#clip0)" transform="translate(-1452 -446)"><path d="M2692.15 543.772C2687.53 543.772 2684.19 545.21 2682.12 548.085 2680.06 550.959 2679.03 554.778 2679.03 559.542L2679.03 576.051 2704.77 576.051 2704.77 559.542C2704.77 554.778 2703.78 550.959 2701.8 548.085 2699.82 545.21 2696.6 543.772 2692.15 543.772ZM2465.29 543.772C2460.67 543.772 2457.33 545.21 2455.27 548.085 2453.21 550.959 2452.18 554.778 2452.18 559.542L2452.18 576.051 2477.91 576.051 2477.91 559.542C2477.91 554.778 2476.92 550.959 2474.95 548.085 2472.96 545.21 2469.75 543.772 2465.29 543.772ZM2611.06 523.322 2638.28 523.322 2638.28 663.029 2611.06 663.029ZM2692.15 521.35C2705.68 521.35 2715.53 524.964 2721.72 532.192 2727.91 539.419 2731 549.357 2731 562.006L2731 595.762 2679.03 595.762 2679.03 626.809C2679.03 631.572 2680.14 635.391 2682.37 638.266 2684.6 641.14 2688.02 642.578 2692.64 642.578 2697.1 642.578 2700.31 641.182 2702.29 638.389 2704.27 635.597 2705.26 631.737 2705.26 626.809L2705.26 607.836 2731 607.836 2731 624.345C2731 636.993 2727.91 646.931 2721.72 654.158 2715.53 661.386 2705.68 665 2692.15 665 2685.38 665 2679.44 663.973 2674.33 661.92 2669.21 659.867 2665.01 656.951 2661.71 653.173 2658.41 649.395 2655.93 644.919 2654.28 639.744 2652.63 634.57 2651.81 628.862 2651.81 622.62L2651.81 563.731C2651.81 551.082 2655.11 540.857 2661.71 533.054 2668.31 525.252 2678.45 521.35 2692.15 521.35ZM2570.47 521.35C2579.05 521.35 2585.61 524.143 2590.15 529.728 2594.68 535.313 2596.95 544.265 2596.95 556.585L2596.95 663.029 2569.73 663.029 2569.73 557.817C2569.73 553.546 2568.94 550.097 2567.38 547.468 2565.81 544.84 2562.63 543.526 2557.85 543.526 2553.06 543.526 2549.81 544.84 2548.07 547.468 2546.34 550.097 2545.48 553.546 2545.48 557.817L2545.48 663.029 2518.25 663.029 2518.25 523.322 2545.48 523.322 2545.48 537.612 2545.97 537.612C2547.62 533.506 2550.3 529.769 2554.01 526.401 2557.73 523.034 2563.21 521.35 2570.47 521.35ZM2465.29 521.35C2478.82 521.35 2488.68 524.964 2494.87 532.192 2501.05 539.419 2504.15 549.357 2504.15 562.006L2504.15 595.762 2452.18 595.762 2452.18 626.809C2452.18 631.572 2453.29 635.391 2455.52 638.266 2457.75 641.14 2461.17 642.578 2465.79 642.578 2470.24 642.578 2473.46 641.182 2475.44 638.389 2477.42 635.597 2478.41 631.737 2478.41 626.809L2478.41 607.836 2504.15 607.836 2504.15 624.345C2504.15 636.993 2501.05 646.931 2494.87 654.158 2488.68 661.386 2478.82 665 2465.29 665 2458.53 665 2452.59 663.973 2447.48 661.92 2442.36 659.867 2438.15 656.951 2434.85 653.173 2431.55 649.395 2429.08 644.919 2427.43 639.744 2425.78 634.57 2424.95 628.862 2424.95 622.62L2424.95 563.731C2424.95 551.082 2428.25 540.857 2434.85 533.054 2441.45 525.252 2451.6 521.35 2465.29 521.35ZM2027.45 518.886 2027.45 584.674 2037.85 584.674C2047.09 584.674 2051.71 580.075 2051.71 570.876L2051.71 532.438C2051.71 523.404 2047.09 518.886 2037.85 518.886ZM2611.06 495.971 2638.28 495.971 2638.28 517.162 2611.06 517.162ZM2092.04 495.971 2124.96 495.971 2143.27 590.095 2143.52 590.095 2159.85 495.971 2195.49 495.971 2195.49 663.029 2169.75 663.029 2169.75 554.614 2169.01 554.614 2149.95 663.029 2136.84 663.029 2115.8 554.614 2115.31 554.614 2115.31 663.029 2092.04 663.029ZM1999.24 495.971 2041.06 495.971C2055.25 495.971 2065.28 499.298 2071.13 505.951 2076.99 512.603 2079.92 521.761 2079.92 533.424L2079.92 568.659C2079.92 580.321 2076.99 589.52 2071.13 596.255 2065.28 602.99 2055.25 606.357 2041.06 606.357L2027.45 606.357 2027.45 663.029 1999.24 663.029ZM1903 495.971 1931.21 495.971 1931.21 569.398 1961.9 495.971 1989.62 495.971 1956.95 571.123 1990.36 663.029 1960.66 663.029 1931.21 581.718 1931.21 663.029 1903 663.029ZM2371.53 494C2379.28 494 2385.76 495.027 2390.95 497.08 2396.15 499.133 2400.28 502.008 2403.33 505.704 2406.38 509.4 2408.57 513.835 2409.89 519.009 2411.21 524.184 2411.87 529.81 2411.87 535.888L2411.87 550.671 2386.13 550.671 2386.13 533.67C2386.13 528.414 2385.06 524.389 2382.91 521.597 2380.77 518.804 2377.14 517.408 2372.02 517.408 2366.91 517.408 2363.2 519.009 2360.89 522.213 2358.58 525.416 2357.42 529.563 2357.42 534.656L2357.42 624.345C2357.42 629.437 2358.54 633.584 2360.76 636.788 2362.99 639.991 2366.5 641.592 2371.28 641.592 2380.52 641.592 2385.14 636.254 2385.14 625.577L2385.14 596.009 2371.78 596.009 2371.78 573.833 2411.87 573.833 2411.87 663.029 2391.57 663.029 2391.57 644.795C2389.76 651.038 2386.75 655.966 2382.54 659.579 2378.33 663.193 2372.35 665 2364.6 665 2358.49 665 2353.21 663.85 2348.76 661.55 2344.31 659.251 2340.63 656.089 2337.75 652.064 2334.86 648.04 2332.72 643.276 2331.31 637.773 2329.91 632.27 2329.21 626.316 2329.21 619.909L2329.21 539.091C2329.21 532.52 2330.03 526.484 2331.68 520.981 2333.33 515.478 2335.85 510.714 2339.23 506.69 2342.61 502.665 2346.99 499.544 2352.35 497.327 2357.71 495.109 2364.1 494 2371.53 494ZM2251.23 494C2258.98 494 2265.46 495.027 2270.65 497.08 2275.85 499.133 2279.98 502.008 2283.03 505.704 2286.08 509.4 2288.27 513.835 2289.59 519.009 2290.91 524.184 2291.57 529.81 2291.57 535.888L2291.57 550.671 2265.83 550.671 2265.83 533.67C2265.83 528.414 2264.76 524.389 2262.61 521.597 2260.47 518.804 2256.84 517.408 2251.72 517.408 2246.61 517.408 2242.9 519.009 2240.59 522.213 2238.28 525.416 2237.12 529.563 2237.12 534.656L2237.12 624.345C2237.12 629.437 2238.23 633.584 2240.46 636.788 2242.69 639.991 2246.19 641.592 2250.98 641.592 2260.22 641.592 2264.84 636.254 2264.84 625.577L2264.84 596.009 2251.47 596.009 2251.47 573.833 2291.57 573.833 2291.57 663.029 2271.27 663.029 2271.27 644.795C2269.46 651.038 2266.45 655.966 2262.24 659.579 2258.03 663.193 2252.05 665 2244.3 665 2238.19 665 2232.91 663.85 2228.46 661.55 2224 659.251 2220.33 656.089 2217.45 652.064 2214.56 648.04 2212.41 643.276 2211.01 637.773 2209.61 632.27 2208.91 626.316 2208.91 619.909L2208.91 539.091C2208.91 532.52 2209.73 526.484 2211.38 520.981 2213.03 515.478 2215.55 510.714 2218.93 506.69 2222.31 502.665 2226.69 499.544 2232.05 497.327 2237.41 495.109 2243.8 494 2251.23 494Z" fill-rule="evenodd"/><path d="M1488.51 524.827C1486.48 525.04 1484.47 525.872 1482.55 527.551 1478.48 531.123 1477.73 537.134 1482.31 540.663 1491.21 547.519 1500.45 553.877 1510.03 559.737 1513.69 561.973 1520.4 566.061 1524.29 565.964 1528.84 565.849 1525.01 558.476 1524.07 556.87 1518.91 548.103 1511.51 540.931 1504.72 533.456 1500.77 529.12 1494.58 524.188 1488.51 524.827ZM1488.74 510.199C1497.99 509.136 1507.5 509.608 1515.94 511.004 1519.53 511.598 1522.36 512.363 1524.44 513.301 1532.71 517.028 1536.92 524.773 1536.57 534.303 1536.33 540.724 1537.67 546.969 1540.42 552.773 1540.49 552.909 1540.56 552.911 1540.64 552.782 1542.17 550.3 1544 548.042 1546.12 546.008 1551.61 540.739 1557.28 535.682 1563.15 530.837 1563.2 530.792 1563.27 530.783 1563.34 530.815 1580.75 539.767 1599.83 542.705 1619.25 541.765 1638.25 540.845 1656.71 537.236 1674.63 530.938 1674.77 530.888 1674.9 530.907 1675.02 530.995 1695.1 545.739 1721.29 543.759 1743.16 534.704 1762.64 526.638 1783.27 520.976 1805.24 515.537 1806.31 515.277 1807.86 515.463 1809.01 515.97 1815.65 518.884 1822.61 520.253 1829.91 520.08 1830.8 520.058 1832.26 520.742 1832.88 521.527 1838.88 529.051 1818.98 533.536 1814.83 534.599 1798.69 538.735 1783.39 549.06 1769.85 558.466 1744.94 575.768 1719.72 593.964 1693.46 607.614 1679.05 615.099 1664.05 621.086 1648.44 625.573 1648.37 625.591 1648.33 625.663 1648.35 625.732 1648.36 625.76 1648.38 625.784 1648.4 625.802 1652.53 628.927 1656.48 632.244 1660.25 635.751 1663.1 638.409 1665.25 641.327 1666.7 644.505 1670.42 652.686 1663.12 656.885 1656.68 659.09 1646.15 662.702 1634.83 663.941 1624.34 664.832 1621.87 665.044 1619.36 665.056 1616.81 664.867 1607.5 664.179 1576.07 661.679 1573.33 650.265 1571.4 642.221 1584.34 632.219 1589.88 627.795 1589.96 627.731 1589.97 627.618 1589.91 627.542 1589.88 627.511 1589.85 627.489 1589.81 627.482 1578.65 625.114 1567.95 620.752 1558.69 614.185 1550.28 608.223 1543.35 602.123 1538 593.126 1537.92 592.994 1537.81 592.899 1537.68 592.84 1534.04 591.287 1532.13 592.659 1529.44 594.9 1523.18 600.13 1509.36 596.65 1505.16 590.066 1502.72 586.238 1503.48 581.179 1506.64 578.074 1508.23 576.513 1510.33 575.524 1512.93 575.106 1513.01 575.093 1513.06 575.021 1513.04 574.947 1513.04 574.912 1513.02 574.88 1512.99 574.859 1509.6 572.685 1506.61 571.375 1502.16 569.497 1492.67 565.488 1482.86 562.255 1473.1 558.987 1469.21 557.685 1466.49 556.589 1464.92 555.701 1457.31 551.375 1450.9 542.652 1452.16 533.439 1453.01 527.198 1457.87 521.862 1463 518.603 1470.47 513.859 1479.48 511.262 1488.74 510.199ZM1619.01 446.041C1622.96 445.639 1627.04 448.145 1630.4 454.112 1635.76 463.607 1640.72 482.148 1632.81 491.59 1632.72 491.699 1632.67 491.823 1632.66 491.96 1632.43 495.78 1632.93 497.989 1635.71 500.596 1644.14 508.516 1654.02 515.215 1663.22 522.245 1663.38 522.369 1663.37 522.462 1663.18 522.523 1635.23 531.414 1601 534.29 1573.38 522.805 1573.22 522.738 1573.21 522.648 1573.34 522.537 1582.71 514.969 1592.08 508.311 1601.44 502.563 1605.48 500.084 1607.27 496.519 1606.82 491.868 1606.8 491.715 1606.74 491.578 1606.64 491.458 1599.01 482.276 1603.51 464.93 1608.34 455.422 1611.23 449.755 1615.06 446.444 1619.01 446.041Z" fill-rule="evenodd"/></g></svg>