<svg width="1282" height="322" xmlns="http://www.w3.org/2000/svg" xmlns:xlink="http://www.w3.org/1999/xlink" xml:space="preserve" overflow="hidden"><defs><clipPath id="clip0"><rect x="2908" y="1387" width="1282" height="322"/></clipPath></defs><g clip-path="url(#clip0)" transform="translate(-2908 -1387)"><path d="M4148.15 1484.06C4143.53 1484.06 4140.19 1485.51 4138.12 1488.4 4136.06 1491.29 4135.03 1495.13 4135.03 1499.93L4135.03 1516.53 4160.77 1516.53 4160.77 1499.93C4160.77 1495.13 4159.78 1491.29 4157.8 1488.4 4155.82 1485.51 4152.6 1484.06 4148.15 1484.06ZM3921.29 1484.06C3916.67 1484.06 3913.33 1485.51 3911.27 1488.4 3909.21 1491.29 3908.18 1495.13 3908.18 1499.93L3908.18 1516.53 3933.91 1516.53 3933.91 1499.93C3933.91 1495.13 3932.92 1491.29 3930.95 1488.4 3928.96 1485.51 3925.75 1484.06 3921.29 1484.06ZM4067.06 1463.49 4094.28 1463.49 4094.28 1604.02 4067.06 1604.02ZM4148.15 1461.51C4161.67 1461.51 4171.53 1465.15 4177.72 1472.42 4183.91 1479.69 4187 1489.68 4187 1502.4L4187 1536.36 4135.03 1536.36 4135.03 1567.59C4135.03 1572.38 4136.14 1576.22 4138.37 1579.11 4140.6 1582 4144.02 1583.45 4148.64 1583.45 4153.1 1583.45 4156.31 1582.04 4158.29 1579.23 4160.27 1576.42 4161.26 1572.54 4161.26 1567.59L4161.26 1548.5 4187 1548.5 4187 1565.11C4187 1577.83 4183.91 1587.83 4177.72 1595.09 4171.53 1602.36 4161.67 1606 4148.15 1606 4141.38 1606 4135.44 1604.97 4130.33 1602.9 4125.21 1600.84 4121.01 1597.9 4117.71 1594.1 4114.41 1590.3 4111.93 1585.8 4110.28 1580.6 4108.63 1575.39 4107.81 1569.65 4107.81 1563.37L4107.81 1504.14C4107.81 1491.42 4111.11 1481.13 4117.71 1473.28 4124.31 1465.43 4134.45 1461.51 4148.15 1461.51ZM4026.47 1461.51C4035.05 1461.51 4041.61 1464.32 4046.15 1469.94 4050.68 1475.55 4052.95 1484.56 4052.95 1496.95L4052.95 1604.02 4025.73 1604.02 4025.73 1498.19C4025.73 1493.89 4024.94 1490.42 4023.38 1487.78 4021.81 1485.14 4018.63 1483.82 4013.85 1483.82 4009.06 1483.82 4005.81 1485.14 4004.07 1487.78 4002.34 1490.42 4001.48 1493.89 4001.48 1498.19L4001.48 1604.02 3974.25 1604.02 3974.25 1463.49 4001.48 1463.49 4001.48 1477.87 4001.97 1477.87C4003.62 1473.74 4006.3 1469.98 4010.01 1466.59 4013.73 1463.2 4019.21 1461.51 4026.47 1461.51ZM3921.29 1461.51C3934.82 1461.51 3944.68 1465.15 3950.87 1472.42 3957.05 1479.69 3960.15 1489.68 3960.15 1502.4L3960.15 1536.36 3908.18 1536.36 3908.18 1567.59C3908.18 1572.38 3909.29 1576.22 3911.52 1579.11 3913.75 1582 3917.17 1583.45 3921.79 1583.45 3926.24 1583.45 3929.46 1582.04 3931.44 1579.23 3933.42 1576.42 3934.41 1572.54 3934.41 1567.59L3934.41 1548.5 3960.15 1548.5 3960.15 1565.11C3960.15 1577.83 3957.05 1587.83 3950.87 1595.09 3944.68 1602.36 3934.82 1606 3921.29 1606 3914.53 1606 3908.59 1604.97 3903.48 1602.9 3898.36 1600.84 3894.15 1597.9 3890.85 1594.1 3887.55 1590.3 3885.08 1585.8 3883.43 1580.6 3881.78 1575.39 3880.95 1569.65 3880.95 1563.37L3880.95 1504.14C3880.95 1491.42 3884.25 1481.13 3890.85 1473.28 3897.45 1465.43 3907.6 1461.51 3921.29 1461.51ZM3483.45 1459.03 3483.45 1525.2 3493.85 1525.2C3503.09 1525.2 3507.71 1520.58 3507.71 1511.33L3507.71 1472.66C3507.71 1463.58 3503.09 1459.03 3493.85 1459.03ZM4067.06 1435.98 4094.28 1435.98 4094.28 1457.3 4067.06 1457.3ZM3548.04 1435.98 3580.96 1435.98 3599.27 1530.66 3599.52 1530.66 3615.85 1435.98 3651.49 1435.98 3651.49 1604.02 3625.75 1604.02 3625.75 1494.97 3625.01 1494.97 3605.95 1604.02 3592.84 1604.02 3571.8 1494.97 3571.31 1494.97 3571.31 1604.02 3548.04 1604.02ZM3455.24 1435.98 3497.06 1435.98C3511.25 1435.98 3521.28 1439.33 3527.13 1446.02 3532.99 1452.71 3535.92 1461.92 3535.92 1473.65L3535.92 1509.1C3535.92 1520.83 3532.99 1530.08 3527.13 1536.85 3521.28 1543.63 3511.25 1547.01 3497.06 1547.01L3483.45 1547.01 3483.45 1604.02 3455.24 1604.02ZM3359 1435.98 3387.21 1435.98 3387.21 1509.84 3417.9 1435.98 3445.62 1435.98 3412.95 1511.57 3446.36 1604.02 3416.66 1604.02 3387.21 1522.23 3387.21 1604.02 3359 1604.02ZM3827.53 1434C3835.28 1434 3841.76 1435.03 3846.95 1437.1 3852.15 1439.16 3856.28 1442.06 3859.33 1445.77 3862.38 1449.49 3864.57 1453.95 3865.89 1459.16 3867.21 1464.36 3867.87 1470.02 3867.87 1476.13L3867.87 1491 3842.13 1491 3842.13 1473.9C3842.13 1468.61 3841.06 1464.57 3838.91 1461.76 3836.77 1458.95 3833.14 1457.54 3828.02 1457.54 3822.91 1457.54 3819.2 1459.16 3816.89 1462.38 3814.58 1465.6 3813.42 1469.77 3813.42 1474.89L3813.42 1565.11C3813.42 1570.23 3814.54 1574.4 3816.76 1577.62 3818.99 1580.84 3822.5 1582.46 3827.28 1582.46 3836.52 1582.46 3841.14 1577.09 3841.14 1566.35L3841.14 1536.61 3827.78 1536.61 3827.78 1514.3 3867.87 1514.3 3867.87 1604.02 3847.57 1604.02 3847.57 1585.68C3845.76 1591.96 3842.75 1596.91 3838.54 1600.55 3834.33 1604.18 3828.35 1606 3820.6 1606 3814.49 1606 3809.21 1604.84 3804.76 1602.53 3800.31 1600.22 3796.63 1597.04 3793.75 1592.99 3790.86 1588.94 3788.72 1584.15 3787.31 1578.61 3785.91 1573.08 3785.21 1567.09 3785.21 1560.65L3785.21 1479.35C3785.21 1472.75 3786.03 1466.67 3787.68 1461.14 3789.33 1455.6 3791.85 1450.81 3795.23 1446.76 3798.61 1442.72 3802.99 1439.58 3808.35 1437.35 3813.71 1435.12 3820.1 1434 3827.53 1434ZM3707.23 1434C3714.98 1434 3721.46 1435.03 3726.65 1437.1 3731.85 1439.16 3735.98 1442.06 3739.03 1445.77 3742.08 1449.49 3744.27 1453.95 3745.59 1459.16 3746.91 1464.36 3747.57 1470.02 3747.57 1476.13L3747.57 1491 3721.83 1491 3721.83 1473.9C3721.83 1468.61 3720.76 1464.57 3718.61 1461.76 3716.47 1458.95 3712.84 1457.54 3707.72 1457.54 3702.61 1457.54 3698.9 1459.16 3696.59 1462.38 3694.28 1465.6 3693.12 1469.77 3693.12 1474.89L3693.12 1565.11C3693.12 1570.23 3694.23 1574.4 3696.46 1577.62 3698.69 1580.84 3702.2 1582.46 3706.98 1582.46 3716.22 1582.46 3720.84 1577.09 3720.84 1566.35L3720.84 1536.61 3707.47 1536.61 3707.47 1514.3 3747.57 1514.3 3747.57 1604.02 3727.27 1604.02 3727.27 1585.68C3725.46 1591.96 3722.45 1596.91 3718.24 1600.55 3714.03 1604.18 3708.05 1606 3700.3 1606 3694.19 1606 3688.91 1604.84 3684.46 1602.53 3680 1600.22 3676.33 1597.04 3673.45 1592.99 3670.56 1588.94 3668.41 1584.15 3667.01 1578.61 3665.61 1573.08 3664.91 1567.09 3664.91 1560.65L3664.91 1479.35C3664.91 1472.75 3665.73 1466.67 3667.38 1461.14 3669.03 1455.6 3671.55 1450.81 3674.93 1446.76 3678.31 1442.72 3682.69 1439.58 3688.05 1437.35 3693.41 1435.12 3699.8 1434 3707.23 1434Z" fill="#FFFFFF" fill-rule="evenodd"/><path d="M4037.96 1661.39C4037.67 1661.75 4037.3 1662.12 4036.86 1662.49 4036.42 1662.85 4035.81 1663.27 4035.04 1663.75 4034.27 1664.23 4033.25 1664.78 4031.96 1665.4 4030.68 1666.02 4029.05 1666.78 4027.07 1667.65 4025.38 1668.46 4023.89 1669.19 4022.61 1669.85 4021.33 1670.51 4020.25 1671.27 4019.37 1672.11 4018.48 1672.95 4017.79 1673.98 4017.27 1675.19 4016.76 1676.4 4016.39 1677.88 4016.17 1679.64L4015.62 1684.81C4015.18 1688.62 4015.72 1691.44 4017.22 1693.28 4018.72 1695.11 4021.05 1696.02 4024.21 1696.02 4027.07 1696.02 4029.58 1695.13 4031.74 1693.33 4033.91 1691.53 4035.17 1688.88 4035.54 1685.36ZM3917.62 1661.39C3917.33 1661.75 3916.96 1662.12 3916.52 1662.49 3916.08 1662.85 3915.48 1663.27 3914.71 1663.75 3913.94 1664.23 3912.91 1664.78 3911.63 1665.4 3910.34 1666.02 3908.71 1666.78 3906.73 1667.65 3905.04 1668.46 3903.56 1669.19 3902.28 1669.85 3900.99 1670.51 3899.91 1671.27 3899.03 1672.11 3898.15 1672.95 3897.45 1673.98 3896.94 1675.19 3896.43 1676.4 3896.06 1677.88 3895.84 1679.64L3895.29 1684.81C3894.85 1688.62 3895.38 1691.44 3896.88 1693.28 3898.39 1695.11 3900.72 1696.02 3903.87 1696.02 3906.73 1696.02 3909.24 1695.13 3911.41 1693.33 3913.57 1691.53 3914.84 1688.88 3915.2 1685.36ZM3859.18 1661.39C3858.88 1661.75 3858.51 1662.12 3858.07 1662.49 3857.63 1662.85 3857.03 1663.27 3856.26 1663.75 3855.49 1664.23 3854.46 1664.78 3853.18 1665.4 3851.9 1666.02 3850.26 1666.78 3848.28 1667.65 3846.6 1668.46 3845.11 1669.19 3843.83 1669.85 3842.54 1670.51 3841.46 1671.27 3840.58 1672.11 3839.7 1672.95 3839 1673.98 3838.49 1675.19 3837.98 1676.4 3837.61 1677.88 3837.39 1679.64L3836.84 1684.81C3836.4 1688.62 3836.93 1691.44 3838.44 1693.28 3839.94 1695.11 3842.27 1696.02 3845.42 1696.02 3848.28 1696.02 3850.79 1695.13 3852.96 1693.33 3855.12 1691.53 3856.39 1688.88 3856.75 1685.36ZM3728.58 1639.83C3721.91 1639.83 3718.13 1643.72 3717.25 1651.49L3715.93 1663.81 3736.83 1663.81 3738.04 1652.26C3738.41 1648.23 3737.8 1645.15 3736.23 1643.02 3734.65 1640.9 3732.1 1639.83 3728.58 1639.83ZM3415.71 1639.83C3409.03 1639.83 3405.26 1643.72 3404.38 1651.49L3403.06 1663.81 3423.96 1663.81 3425.17 1652.26C3425.54 1648.23 3424.93 1645.15 3423.36 1643.02 3421.78 1640.9 3419.23 1639.83 3415.71 1639.83ZM3766.07 1639.83C3759.62 1639.83 3755.95 1643.43 3755.07 1650.61L3751.66 1684.7C3751.29 1688.36 3751.88 1691.19 3753.42 1693.17 3754.96 1695.14 3757.38 1696.13 3760.68 1696.13 3763.83 1696.13 3766.44 1695 3768.49 1692.73 3770.54 1690.45 3771.79 1687.19 3772.23 1682.94L3775.53 1651.82C3775.97 1647.93 3775.24 1644.97 3773.33 1642.91 3771.42 1640.86 3769 1639.83 3766.07 1639.83ZM4120.31 1636.76 4124.71 1636.76 4118.22 1699.1 4113.82 1699.1ZM4058.89 1636.76 4063.29 1636.76 4069.34 1686.13 4069.45 1686.13 4086.29 1636.76 4090.58 1636.76 4068.24 1701.41C4067.29 1704.2 4066.13 1706.16 4064.78 1707.3 4063.42 1708.43 4061.24 1709 4058.23 1709L4054.6 1709 4055.04 1705.48 4058.01 1705.48C4060.14 1705.48 4061.59 1705.1 4062.36 1704.33 4063.13 1703.56 4063.84 1702.18 4064.5 1700.2L4067.03 1692.95 4066.04 1692.95ZM3645.84 1636.76 3650.25 1636.76 3643.75 1699.1 3639.35 1699.1ZM4177 1636.21C4186.53 1636.21 4190.82 1640.75 4189.87 1649.84L4189.32 1655.12 4185.14 1655.12 4185.69 1649.84C4186.06 1646.32 4185.51 1643.77 4184.04 1642.2 4182.57 1640.62 4180.23 1639.83 4177 1639.83 4173.77 1639.83 4171.39 1640.57 4169.85 1642.03 4168.31 1643.5 4167.39 1645.55 4167.1 1648.19L4166.88 1650.17C4166.66 1652.44 4166.97 1654.46 4167.81 1656.22 4168.65 1657.98 4170.4 1659.99 4173.04 1662.27L4179.64 1667.87C4182.87 1670.66 4184.99 1673.3 4186.02 1675.79 4187.05 1678.28 4187.38 1681.14 4187.01 1684.37L4186.79 1686.46C4186.35 1690.78 4185.05 1694.06 4182.88 1696.3 4180.72 1698.54 4177.22 1699.65 4172.38 1699.65 4167.32 1699.65 4163.67 1698.35 4161.43 1695.75 4159.19 1693.15 4158.29 1689.61 4158.73 1685.14L4159.39 1678.98 4163.57 1678.98 4162.92 1685.25C4162.55 1688.62 4163.12 1691.26 4164.62 1693.17 4166.12 1695.07 4168.71 1696.02 4172.38 1696.02 4175.9 1696.02 4178.39 1695.2 4179.86 1693.55 4181.33 1691.9 4182.24 1689.5 4182.61 1686.35L4182.83 1684.37C4183.12 1681.73 4182.85 1679.44 4182 1677.5 4181.16 1675.55 4179.34 1673.37 4176.56 1670.95L4169.96 1665.24C4167.17 1662.82 4165.19 1660.43 4164.02 1658.09 4162.84 1655.74 4162.44 1652.99 4162.8 1649.84L4163.02 1647.86C4163.46 1644.27 4164.8 1641.43 4167.04 1639.34 4169.28 1637.25 4172.6 1636.21 4177 1636.21ZM4144.6 1636.21C4149.66 1636.21 4153.25 1637.53 4155.38 1640.16 4157.51 1642.8 4158.31 1646.65 4157.8 1651.71L4157.36 1655.89 4153.07 1655.89 4153.51 1651.49C4153.88 1647.68 4153.34 1644.78 4151.91 1642.8 4150.48 1640.82 4148.01 1639.83 4144.49 1639.83 4137.81 1639.83 4134.03 1643.72 4133.15 1651.49L4129.74 1683.93C4129.38 1687.74 4130.04 1690.71 4131.72 1692.84 4133.41 1694.96 4135.98 1696.02 4139.43 1696.02 4142.73 1696.02 4145.26 1695.18 4147.02 1693.5 4148.78 1691.81 4149.84 1689.13 4150.21 1685.47L4150.87 1678.43 4155.16 1678.43 4154.39 1685.47C4153.88 1690.31 4152.39 1693.88 4149.93 1696.19 4147.48 1698.5 4143.94 1699.65 4139.32 1699.65 4134.33 1699.65 4130.64 1698.17 4128.26 1695.2 4125.88 1692.23 4124.98 1688.14 4125.56 1682.94L4128.86 1651.71C4129.38 1646.65 4130.99 1642.8 4133.7 1640.16 4136.42 1637.53 4140.05 1636.21 4144.6 1636.21ZM4030.92 1636.21C4035.83 1636.21 4039.26 1637.51 4041.2 1640.11 4043.15 1642.71 4043.86 1646.36 4043.35 1651.05L4038.4 1699.1 4034 1699.1 4034.66 1692.95 4034.44 1692.95C4033.41 1694.85 4031.98 1696.45 4030.15 1697.73 4028.31 1699.01 4026 1699.65 4023.22 1699.65 4019.11 1699.65 4015.95 1698.46 4013.75 1696.08 4011.55 1693.7 4010.71 1689.98 4011.22 1684.92L4011.77 1679.64C4012.07 1677.22 4012.6 1675.21 4013.37 1673.59 4014.14 1671.98 4015.15 1670.62 4016.39 1669.52 4017.64 1668.42 4019.09 1667.47 4020.74 1666.67 4022.39 1665.86 4024.28 1665.02 4026.41 1664.14 4030.88 1662.3 4034.02 1660.75 4035.81 1659.46 4037.61 1658.18 4038.58 1656.7 4038.73 1655.01L4039.06 1650.83C4039.43 1647.31 4039.02 1644.6 4037.85 1642.69 4036.68 1640.79 4034.33 1639.83 4030.81 1639.83 4027.51 1639.83 4025.09 1640.7 4023.55 1642.42 4022.01 1644.14 4021.09 1646.65 4020.8 1649.95L4020.14 1655.89 4015.95 1655.89 4016.5 1649.73C4017.02 1645.48 4018.43 1642.16 4020.74 1639.78 4023.05 1637.4 4026.44 1636.21 4030.92 1636.21ZM3998.74 1636.21C4002.62 1636.21 4005.59 1637.49 4007.65 1640.05 4009.7 1642.62 4010.44 1646.58 4009.85 1651.93L4005.01 1699.1 4000.61 1699.1 4005.56 1651.93C4006 1647.97 4005.54 1644.97 4004.18 1642.91 4002.83 1640.86 4000.5 1639.83 3997.2 1639.83 3993.9 1639.83 3991.22 1641.06 3989.16 1643.52 3987.11 1645.97 3985.9 1649.07 3985.53 1652.81L3980.69 1699.1 3976.29 1699.1 3982.78 1636.76 3987.18 1636.76 3986.41 1643.79 3986.52 1643.79C3987.4 1641.89 3988.83 1640.15 3990.81 1638.57 3992.8 1636.99 3995.44 1636.21 3998.74 1636.21ZM3910.58 1636.21C3915.5 1636.21 3918.93 1637.51 3920.87 1640.11 3922.81 1642.71 3923.53 1646.36 3923.01 1651.05L3918.06 1699.1 3913.66 1699.1 3914.32 1692.95 3914.1 1692.95C3913.08 1694.85 3911.65 1696.45 3909.81 1697.73 3907.98 1699.01 3905.67 1699.65 3902.88 1699.65 3898.77 1699.65 3895.62 1698.46 3893.42 1696.08 3891.22 1693.7 3890.38 1689.98 3890.89 1684.92L3891.44 1679.64C3891.73 1677.22 3892.26 1675.21 3893.03 1673.59 3893.8 1671.98 3894.81 1670.62 3896.06 1669.52 3897.31 1668.42 3898.76 1667.47 3900.41 1666.67 3902.06 1665.86 3903.94 1665.02 3906.07 1664.14 3910.55 1662.3 3913.68 1660.75 3915.48 1659.46 3917.28 1658.18 3918.25 1656.7 3918.39 1655.01L3918.72 1650.83C3919.09 1647.31 3918.69 1644.6 3917.51 1642.69 3916.34 1640.79 3913.99 1639.83 3910.47 1639.83 3907.17 1639.83 3904.75 1640.7 3903.21 1642.42 3901.67 1644.14 3900.75 1646.65 3900.46 1649.95L3899.8 1655.89 3895.62 1655.89 3896.17 1649.73C3896.68 1645.48 3898.09 1642.16 3900.41 1639.78 3902.72 1637.4 3906.11 1636.21 3910.58 1636.21ZM3852.13 1636.21C3857.05 1636.21 3860.48 1637.51 3862.42 1640.11 3864.36 1642.71 3865.08 1646.36 3864.57 1651.05L3859.61 1699.1 3855.21 1699.1 3855.87 1692.95 3855.65 1692.95C3854.63 1694.85 3853.2 1696.45 3851.36 1697.73 3849.53 1699.01 3847.22 1699.65 3844.43 1699.65 3840.32 1699.65 3837.17 1698.46 3834.97 1696.08 3832.77 1693.7 3831.93 1689.98 3832.44 1684.92L3832.99 1679.64C3833.28 1677.22 3833.82 1675.21 3834.59 1673.59 3835.36 1671.98 3836.36 1670.62 3837.61 1669.52 3838.86 1668.42 3840.31 1667.47 3841.96 1666.67 3843.61 1665.86 3845.5 1665.02 3847.62 1664.14 3852.1 1662.3 3855.23 1660.75 3857.03 1659.46 3858.83 1658.18 3859.8 1656.7 3859.95 1655.01L3860.28 1650.83C3860.64 1647.31 3860.24 1644.6 3859.06 1642.69 3857.89 1640.79 3855.54 1639.83 3852.02 1639.83 3848.72 1639.83 3846.3 1640.7 3844.76 1642.42 3843.22 1644.14 3842.31 1646.65 3842.01 1649.95L3841.35 1655.89 3837.17 1655.89 3837.72 1649.73C3838.23 1645.48 3839.65 1642.16 3841.96 1639.78 3844.27 1637.4 3847.66 1636.21 3852.13 1636.21ZM3728.8 1636.21C3733.64 1636.21 3737.22 1637.62 3739.53 1640.44 3741.84 1643.26 3742.7 1647.24 3742.11 1652.37L3740.57 1667.32 3715.49 1667.32 3713.84 1683.16C3713.4 1687.34 3714.09 1690.53 3715.93 1692.73 3717.76 1694.93 3720.48 1696.02 3724.07 1696.02 3727.52 1696.02 3730.05 1695.07 3731.66 1693.17 3733.27 1691.26 3734.3 1688.29 3734.74 1684.26L3735.29 1678.43 3739.47 1678.43 3738.81 1684.37C3738.23 1689.65 3736.78 1693.51 3734.47 1695.97 3732.16 1698.43 3728.65 1699.65 3723.96 1699.65 3718.9 1699.65 3715.08 1698.19 3712.52 1695.26 3709.95 1692.32 3708.96 1688.22 3709.55 1682.94L3712.85 1651.49C3713.36 1646.51 3714.96 1642.71 3717.63 1640.11 3720.31 1637.51 3724.03 1636.21 3728.8 1636.21ZM3668.15 1636.21C3677.69 1636.21 3681.98 1640.75 3681.02 1649.84L3680.47 1655.12 3676.29 1655.12 3676.84 1649.84C3677.21 1646.32 3676.66 1643.77 3675.19 1642.2 3673.73 1640.62 3671.38 1639.83 3668.15 1639.83 3664.92 1639.83 3662.54 1640.57 3661 1642.03 3659.46 1643.5 3658.54 1645.55 3658.25 1648.19L3658.03 1650.17C3657.81 1652.44 3658.12 1654.46 3658.96 1656.22 3659.81 1657.98 3661.55 1659.99 3664.19 1662.27L3670.79 1667.87C3674.02 1670.66 3676.15 1673.3 3677.17 1675.79 3678.2 1678.28 3678.53 1681.14 3678.16 1684.37L3677.94 1686.46C3677.5 1690.78 3676.2 1694.06 3674.04 1696.3 3671.87 1698.54 3668.37 1699.65 3663.53 1699.65 3658.47 1699.65 3654.82 1698.35 3652.58 1695.75 3650.35 1693.15 3649.45 1689.61 3649.89 1685.14L3650.55 1678.98 3654.73 1678.98 3654.07 1685.25C3653.7 1688.62 3654.27 1691.26 3655.77 1693.17 3657.28 1695.07 3659.86 1696.02 3663.53 1696.02 3667.05 1696.02 3669.55 1695.2 3671.01 1693.55 3672.48 1691.9 3673.4 1689.5 3673.76 1686.35L3673.98 1684.37C3674.28 1681.73 3674 1679.44 3673.16 1677.5 3672.31 1675.55 3670.5 1673.37 3667.71 1670.95L3661.11 1665.24C3658.32 1662.82 3656.34 1660.43 3655.17 1658.09 3654 1655.74 3653.59 1652.99 3653.96 1649.84L3654.18 1647.86C3654.62 1644.27 3655.96 1641.43 3658.19 1639.34 3660.43 1637.25 3663.75 1636.21 3668.15 1636.21ZM3623.46 1636.21C3632.99 1636.21 3637.28 1640.75 3636.33 1649.84L3635.78 1655.12 3631.6 1655.12 3632.15 1649.84C3632.51 1646.32 3631.96 1643.77 3630.5 1642.2 3629.03 1640.62 3626.68 1639.83 3623.46 1639.83 3620.23 1639.83 3617.84 1640.57 3616.3 1642.03 3614.76 1643.5 3613.85 1645.55 3613.55 1648.19L3613.33 1650.17C3613.11 1652.44 3613.43 1654.46 3614.27 1656.22 3615.11 1657.98 3616.85 1659.99 3619.49 1662.27L3626.1 1667.87C3629.32 1670.66 3631.45 1673.3 3632.48 1675.79 3633.5 1678.28 3633.83 1681.14 3633.47 1684.37L3633.25 1686.46C3632.81 1690.78 3631.51 1694.06 3629.34 1696.3 3627.18 1698.54 3623.68 1699.65 3618.83 1699.65 3613.77 1699.65 3610.12 1698.35 3607.89 1695.75 3605.65 1693.15 3604.75 1689.61 3605.19 1685.14L3605.85 1678.98 3610.03 1678.98 3609.37 1685.25C3609.01 1688.62 3609.57 1691.26 3611.08 1693.17 3612.58 1695.07 3615.17 1696.02 3618.83 1696.02 3622.36 1696.02 3624.85 1695.2 3626.32 1693.55 3627.78 1691.9 3628.7 1689.5 3629.07 1686.35L3629.29 1684.37C3629.58 1681.73 3629.3 1679.44 3628.46 1677.5 3627.62 1675.55 3625.8 1673.37 3623.02 1670.95L3616.41 1665.24C3613.63 1662.82 3611.65 1660.43 3610.47 1658.09 3609.3 1655.74 3608.9 1652.99 3609.26 1649.84L3609.48 1647.86C3609.92 1644.27 3611.26 1641.43 3613.5 1639.34 3615.74 1637.25 3619.05 1636.21 3623.46 1636.21ZM3589.07 1636.21C3598.61 1636.21 3602.9 1640.75 3601.95 1649.84L3601.4 1655.12 3597.22 1655.12 3597.77 1649.84C3598.13 1646.32 3597.58 1643.77 3596.12 1642.2 3594.65 1640.62 3592.3 1639.83 3589.07 1639.83 3585.85 1639.83 3583.46 1640.57 3581.92 1642.03 3580.38 1643.5 3579.47 1645.55 3579.17 1648.19L3578.95 1650.17C3578.73 1652.44 3579.04 1654.46 3579.89 1656.22 3580.73 1657.98 3582.47 1659.99 3585.11 1662.27L3591.71 1667.87C3594.94 1670.66 3597.07 1673.3 3598.1 1675.79 3599.12 1678.28 3599.45 1681.14 3599.09 1684.37L3598.87 1686.46C3598.43 1690.78 3597.12 1694.06 3594.96 1696.3 3592.8 1698.54 3589.29 1699.65 3584.45 1699.65 3579.39 1699.65 3575.74 1698.35 3573.51 1695.75 3571.27 1693.15 3570.37 1689.61 3570.81 1685.14L3571.47 1678.98 3575.65 1678.98 3574.99 1685.25C3574.62 1688.62 3575.19 1691.26 3576.7 1693.17 3578.2 1695.07 3580.79 1696.02 3584.45 1696.02 3587.97 1696.02 3590.47 1695.2 3591.93 1693.55 3593.4 1691.9 3594.32 1689.5 3594.69 1686.35L3594.91 1684.37C3595.2 1681.73 3594.92 1679.44 3594.08 1677.5 3593.24 1675.55 3591.42 1673.37 3588.63 1670.95L3582.03 1665.24C3579.25 1662.82 3577.27 1660.43 3576.09 1658.09 3574.92 1655.74 3574.51 1652.99 3574.88 1649.84L3575.1 1647.86C3575.54 1644.27 3576.88 1641.43 3579.12 1639.34 3581.35 1637.25 3584.67 1636.21 3589.07 1636.21ZM3455.51 1636.21C3459.4 1636.21 3462.37 1637.49 3464.42 1640.05 3466.47 1642.62 3467.21 1646.58 3466.62 1651.93L3461.78 1699.1 3457.38 1699.1 3462.33 1651.93C3462.77 1647.97 3462.31 1644.97 3460.95 1642.91 3459.6 1640.86 3457.27 1639.83 3453.97 1639.83 3450.67 1639.83 3447.99 1641.06 3445.94 1643.52 3443.88 1645.97 3442.67 1649.07 3442.31 1652.81L3437.47 1699.1 3433.06 1699.1 3439.56 1636.76 3443.96 1636.76 3443.19 1643.79 3443.3 1643.79C3444.18 1641.89 3445.61 1640.15 3447.59 1638.57 3449.57 1636.99 3452.21 1636.21 3455.51 1636.21ZM3415.93 1636.21C3420.77 1636.21 3424.35 1637.62 3426.66 1640.44 3428.97 1643.26 3429.83 1647.24 3429.24 1652.37L3427.7 1667.32 3402.62 1667.32 3400.97 1683.16C3400.53 1687.34 3401.22 1690.53 3403.06 1692.73 3404.89 1694.93 3407.6 1696.02 3411.2 1696.02 3414.65 1696.02 3417.18 1695.07 3418.79 1693.17 3420.4 1691.26 3421.43 1688.29 3421.87 1684.26L3422.42 1678.43 3426.6 1678.43 3425.94 1684.37C3425.35 1689.65 3423.91 1693.51 3421.59 1695.97 3419.28 1698.43 3415.78 1699.65 3411.09 1699.65 3406.03 1699.65 3402.21 1698.19 3399.65 1695.26 3397.08 1692.32 3396.09 1688.22 3396.68 1682.94L3399.98 1651.49C3400.49 1646.51 3402.08 1642.71 3404.76 1640.11 3407.44 1637.51 3411.16 1636.21 3415.93 1636.21ZM3960.92 1631.37 3947.6 1675.9 3965.32 1675.9 3961.03 1631.37ZM3555.22 1631.37 3541.9 1675.9 3559.62 1675.9 3555.33 1631.37ZM3489.89 1631.37 3476.58 1675.9 3494.29 1675.9 3490 1631.37ZM3806.06 1628.29 3798.91 1695.36 3808.92 1695.36C3813.54 1695.36 3816.92 1694.16 3819.04 1691.74 3821.17 1689.32 3822.42 1686.2 3822.79 1682.39L3826.97 1642.69C3827.19 1640.71 3827.17 1638.84 3826.91 1637.09 3826.65 1635.33 3826.09 1633.79 3825.21 1632.47 3824.33 1631.15 3823.1 1630.12 3821.52 1629.39 3819.94 1628.65 3817.91 1628.29 3815.41 1628.29ZM4121.63 1624.55 4126.03 1624.55 4125.59 1628.95 4121.19 1628.95ZM4100.53 1624.55 4104.82 1624.55 4103.5 1636.76 4112.64 1636.76 4112.31 1640.16 4103.17 1640.16 4098 1689.1C4097.78 1691.22 4098 1692.84 4098.66 1693.94 4099.32 1695.03 4100.83 1695.58 4103.17 1695.58L4106.47 1695.58 4106.14 1699.1 4102.73 1699.1C4098.77 1699.1 4096.19 1698.21 4094.98 1696.41 4093.77 1694.61 4093.34 1692.03 4093.71 1688.66L4098.88 1640.16 4093.82 1640.16 4094.26 1636.76 4099.21 1636.76ZM4052.87 1624.55 4057.27 1624.55 4049.46 1699.1 4045.06 1699.1ZM3958.83 1624.55 3964.55 1624.55 3972.14 1699.1 3967.63 1699.1 3965.76 1679.64 3946.5 1679.64 3940.78 1699.1 3936.38 1699.1ZM3877.05 1624.55 3881.34 1624.55 3880.02 1636.76 3889.16 1636.76 3888.83 1640.16 3879.69 1640.16 3874.52 1689.1C3874.3 1691.22 3874.52 1692.84 3875.18 1693.94 3875.84 1695.03 3877.35 1695.58 3879.69 1695.58L3882.99 1695.58 3882.66 1699.1 3879.25 1699.1C3875.29 1699.1 3872.71 1698.21 3871.5 1696.41 3870.29 1694.61 3869.87 1692.03 3870.23 1688.66L3875.4 1640.16 3870.34 1640.16 3870.78 1636.76 3875.73 1636.76ZM3801.88 1624.55 3816.18 1624.55C3819.41 1624.55 3822.07 1625.04 3824.16 1626.03 3826.25 1627.02 3827.88 1628.38 3829.06 1630.1 3830.23 1631.83 3831 1633.84 3831.37 1636.15 3831.73 1638.46 3831.77 1640.97 3831.48 1643.68L3827.41 1682.17C3827.11 1684.59 3826.56 1686.84 3825.76 1688.93 3824.95 1691.02 3823.83 1692.82 3822.4 1694.32 3820.97 1695.82 3819.17 1697 3817.01 1697.84 3814.85 1698.68 3812.3 1699.1 3809.36 1699.1L3794.07 1699.1ZM3778.39 1624.55 3782.68 1624.55 3774.98 1699.1 3770.69 1699.1 3771.35 1691.96 3771.24 1691.96C3770.36 1693.94 3769 1695.71 3767.17 1697.29 3765.34 1698.87 3762.73 1699.65 3759.36 1699.65 3755.47 1699.65 3752.35 1698.41 3750.01 1695.91 3747.66 1693.42 3746.74 1689.61 3747.26 1684.48L3750.78 1650.06C3751.36 1645.22 3752.94 1641.7 3755.51 1639.5 3758.07 1637.31 3761.19 1636.21 3764.86 1636.21 3768.23 1636.21 3770.82 1636.94 3772.62 1638.4 3774.41 1639.87 3775.64 1641.56 3776.3 1643.46L3776.41 1643.46ZM3694.83 1624.55 3699.12 1624.55 3697.8 1636.76 3706.93 1636.76 3706.6 1640.16 3697.47 1640.16 3692.3 1689.1C3692.08 1691.22 3692.3 1692.84 3692.96 1693.94 3693.62 1695.03 3695.12 1695.58 3697.47 1695.58L3700.77 1695.58 3700.44 1699.1 3697.03 1699.1C3693.07 1699.1 3690.49 1698.21 3689.28 1696.41 3688.07 1694.61 3687.64 1692.03 3688.01 1688.66L3693.18 1640.16 3688.12 1640.16 3688.56 1636.76 3693.51 1636.76ZM3647.16 1624.55 3651.57 1624.55 3651.13 1628.95 3646.72 1628.95ZM3553.12 1624.55 3558.85 1624.55 3566.44 1699.1 3561.93 1699.1 3560.06 1679.64 3540.8 1679.64 3535.08 1699.1 3530.68 1699.1ZM3513.08 1624.55 3517.59 1624.55 3509.78 1699.1 3505.27 1699.1ZM3487.8 1624.55 3493.52 1624.55 3501.11 1699.1 3496.6 1699.1 3494.73 1679.64 3475.48 1679.64 3469.76 1699.1 3465.36 1699.1ZM3380.31 1624C3383.39 1624 3385.9 1624.42 3387.85 1625.26 3389.79 1626.11 3391.29 1627.3 3392.36 1628.84 3393.42 1630.38 3394.1 1632.21 3394.39 1634.34 3394.69 1636.46 3394.69 1638.81 3394.39 1641.37L3393.73 1647.31 3389.55 1647.31 3390.32 1640.71C3390.54 1638.81 3390.56 1637.05 3390.38 1635.44 3390.19 1633.82 3389.73 1632.45 3389 1631.31 3388.27 1630.18 3387.19 1629.3 3385.76 1628.67 3384.33 1628.05 3382.47 1627.74 3380.2 1627.74 3378.15 1627.74 3376.39 1628.07 3374.92 1628.73 3373.45 1629.39 3372.22 1630.3 3371.23 1631.48 3370.24 1632.65 3369.49 1634.02 3368.98 1635.6 3368.46 1637.18 3368.1 1638.88 3367.88 1640.71L3363.7 1681.4C3363.48 1683.38 3363.49 1685.25 3363.75 1687.01 3364.01 1688.77 3364.54 1690.31 3365.35 1691.63 3366.15 1692.95 3367.29 1693.99 3368.76 1694.76 3370.22 1695.53 3372.02 1695.91 3374.15 1695.91 3378.18 1695.91 3381.1 1694.72 3382.9 1692.34 3384.69 1689.96 3385.77 1686.93 3386.14 1683.27L3387.9 1665.79 3377.78 1665.79 3378.11 1662.05 3392.52 1662.05 3388.56 1699.1 3384.71 1699.1 3385.48 1692.18C3384.6 1694.23 3383.23 1695.99 3381.35 1697.45 3379.48 1698.92 3376.72 1699.65 3373.05 1699.65 3370.26 1699.65 3367.93 1699.14 3366.06 1698.11 3364.19 1697.09 3362.71 1695.71 3361.61 1693.99 3360.51 1692.27 3359.75 1690.23 3359.35 1687.89 3358.95 1685.54 3358.89 1683.05 3359.19 1680.41L3363.26 1641.04C3363.55 1638.62 3364.08 1636.37 3364.85 1634.28 3365.62 1632.19 3366.69 1630.38 3368.04 1628.84 3369.4 1627.3 3371.09 1626.11 3373.1 1625.26 3375.12 1624.42 3377.52 1624 3380.31 1624Z" fill="#FFFFFF" fill-rule="evenodd"/><path d="M2944.51 1465.83C2942.48 1466.04 2940.47 1466.87 2938.55 1468.55 2934.48 1472.12 2933.73 1478.13 2938.31 1481.66 2947.21 1488.52 2956.45 1494.88 2966.03 1500.74 2969.69 1502.97 2976.4 1507.06 2980.29 1506.96 2984.84 1506.85 2981.01 1499.48 2980.07 1497.87 2974.91 1489.1 2967.51 1481.93 2960.72 1474.46 2956.77 1470.12 2950.58 1465.19 2944.51 1465.83ZM2944.74 1451.2C2954 1450.14 2963.5 1450.61 2971.94 1452 2975.53 1452.6 2978.36 1453.36 2980.44 1454.3 2988.71 1458.03 2992.92 1465.77 2992.57 1475.3 2992.33 1481.72 2993.67 1487.97 2996.42 1493.77 2996.49 1493.91 2996.56 1493.91 2996.64 1493.78 2998.17 1491.3 3000 1489.04 3002.12 1487.01 3007.61 1481.74 3013.28 1476.68 3019.15 1471.84 3019.2 1471.79 3019.27 1471.78 3019.34 1471.81 3036.75 1480.77 3055.83 1483.7 3075.25 1482.77 3094.25 1481.84 3112.71 1478.24 3130.63 1471.94 3130.77 1471.89 3130.9 1471.91 3131.02 1472 3151.1 1486.74 3177.29 1484.76 3199.16 1475.7 3218.64 1467.64 3239.27 1461.98 3261.24 1456.54 3262.31 1456.28 3263.86 1456.46 3265.01 1456.97 3271.65 1459.88 3278.61 1461.25 3285.91 1461.08 3286.8 1461.06 3288.26 1461.74 3288.88 1462.53 3294.88 1470.05 3274.98 1474.54 3270.83 1475.6 3254.69 1479.74 3239.39 1490.06 3225.85 1499.47 3200.94 1516.77 3175.72 1534.96 3149.46 1548.61 3135.05 1556.1 3120.05 1562.09 3104.44 1566.57 3104.37 1566.59 3104.33 1566.66 3104.35 1566.73 3104.36 1566.76 3104.38 1566.78 3104.4 1566.8 3108.53 1569.93 3112.48 1573.24 3116.25 1576.75 3119.1 1579.41 3121.25 1582.33 3122.7 1585.51 3126.42 1593.69 3119.12 1597.88 3112.68 1600.09 3102.15 1603.7 3090.83 1604.94 3080.34 1605.83 3077.87 1606.04 3075.36 1606.06 3072.81 1605.87 3063.5 1605.18 3032.07 1602.68 3029.33 1591.27 3027.4 1583.22 3040.34 1573.22 3045.88 1568.79 3045.96 1568.73 3045.97 1568.62 3045.91 1568.54 3045.88 1568.51 3045.85 1568.49 3045.81 1568.48 3034.65 1566.11 3023.95 1561.75 3014.69 1555.19 3006.28 1549.22 2999.35 1543.12 2994 1534.13 2993.92 1533.99 2993.81 1533.9 2993.68 1533.84 2990.04 1532.29 2988.13 1533.66 2985.44 1535.9 2979.18 1541.13 2965.36 1537.65 2961.16 1531.07 2958.72 1527.24 2959.48 1522.18 2962.64 1519.07 2964.23 1517.51 2966.33 1516.52 2968.93 1516.11 2969.01 1516.09 2969.06 1516.02 2969.04 1515.95 2969.04 1515.91 2969.02 1515.88 2968.99 1515.86 2965.6 1513.68 2962.61 1512.38 2958.16 1510.5 2948.67 1506.49 2938.86 1503.25 2929.1 1499.99 2925.21 1498.68 2922.49 1497.59 2920.92 1496.7 2913.31 1492.37 2906.9 1483.65 2908.16 1474.44 2909.01 1468.2 2913.87 1462.86 2919 1459.6 2926.47 1454.86 2935.48 1452.26 2944.74 1451.2ZM3075.01 1387.04C3078.96 1386.64 3083.04 1389.15 3086.4 1395.11 3091.76 1404.61 3096.72 1423.15 3088.82 1432.59 3088.72 1432.7 3088.67 1432.82 3088.66 1432.96 3088.43 1436.78 3088.93 1438.99 3091.71 1441.6 3100.14 1449.52 3110.02 1456.22 3119.22 1463.25 3119.38 1463.37 3119.37 1463.46 3119.18 1463.52 3091.23 1472.41 3057 1475.29 3029.38 1463.81 3029.22 1463.74 3029.21 1463.65 3029.34 1463.54 3038.71 1455.97 3048.08 1449.31 3057.44 1443.56 3061.48 1441.08 3063.28 1437.52 3062.82 1432.87 3062.8 1432.71 3062.74 1432.58 3062.64 1432.46 3055.01 1423.28 3059.51 1405.93 3064.34 1396.42 3067.23 1390.76 3071.06 1387.44 3075.01 1387.04Z" fill="#FFFFFF" fill-rule="evenodd"/></g></svg>