<svg width="381" height="219" xmlns="http://www.w3.org/2000/svg" xmlns:xlink="http://www.w3.org/1999/xlink" xml:space="preserve" overflow="hidden"><defs><clipPath id="clip0"><rect x="504" y="976" width="381" height="219"/></clipPath></defs><g clip-path="url(#clip0)" transform="translate(-504 -976)"><path d="M540.411 1054.83C538.39 1055.04 536.382 1055.87 534.473 1057.55 530.41 1061.12 529.661 1067.13 534.231 1070.66 543.11 1077.52 552.326 1083.88 561.877 1089.74 565.526 1091.97 572.22 1096.06 576.103 1095.96 580.638 1095.85 576.822 1088.48 575.883 1086.87 570.735 1078.1 563.358 1070.93 556.58 1063.46 552.646 1059.12 546.472 1054.19 540.411 1054.83ZM540.641 1040.2C549.874 1039.14 559.352 1039.61 567.774 1041 571.349 1041.6 574.174 1042.36 576.248 1043.3 584.494 1047.03 588.694 1054.77 588.346 1064.3 588.108 1070.72 589.443 1076.97 592.189 1082.77 592.254 1082.91 592.326 1082.91 592.405 1082.78 593.933 1080.3 595.755 1078.04 597.87 1076.01 603.346 1070.74 609.008 1065.68 614.855 1060.84 614.907 1060.79 614.983 1060.78 615.044 1060.81 632.413 1069.77 651.443 1072.7 670.812 1071.77 689.759 1070.84 708.171 1067.24 726.046 1060.94 726.187 1060.89 726.316 1060.91 726.434 1061 746.46 1075.74 772.585 1073.76 794.396 1064.7 813.827 1056.64 834.399 1050.98 856.32 1045.54 857.378 1045.28 858.925 1045.46 860.079 1045.97 866.696 1048.88 873.644 1050.25 880.925 1050.08 881.806 1050.06 883.265 1050.74 883.886 1051.53 889.867 1059.05 870.017 1063.54 865.884 1064.6 849.78 1068.73 834.518 1079.06 821.015 1088.47 796.172 1105.77 771.016 1123.96 744.825 1137.61 730.461 1145.1 715.494 1151.09 699.925 1155.57 699.857 1155.59 699.818 1155.66 699.838 1155.73 699.846 1155.76 699.863 1155.78 699.885 1155.8 704.002 1158.93 707.94 1162.24 711.701 1165.75 714.548 1168.41 716.693 1171.33 718.135 1174.51 721.85 1182.69 714.57 1186.88 708.144 1189.09 697.642 1192.7 686.351 1193.94 675.889 1194.83 673.43 1195.04 670.925 1195.06 668.375 1194.87 659.089 1194.18 627.746 1191.68 625.013 1180.26 623.087 1172.22 635.991 1162.22 641.522 1157.79 641.598 1157.73 641.609 1157.62 641.548 1157.54 641.522 1157.51 641.487 1157.49 641.447 1157.48 630.315 1155.11 619.65 1150.75 610.412 1144.18 602.026 1138.22 595.106 1132.12 589.778 1123.13 589.699 1122.99 589.59 1122.9 589.452 1122.84 585.821 1121.29 583.917 1122.66 581.242 1124.9 574.993 1130.13 561.207 1126.65 557.02 1120.07 554.588 1116.24 555.341 1111.18 558.492 1108.07 560.082 1106.51 562.175 1105.52 564.772 1105.11 564.846 1105.09 564.896 1105.02 564.882 1104.95 564.876 1104.91 564.855 1104.88 564.825 1104.86 561.454 1102.68 558.466 1101.38 554.028 1099.5 544.566 1095.49 534.782 1092.25 525.047 1088.99 521.168 1087.68 518.449 1086.59 516.889 1085.7 509.291 1081.37 502.906 1072.65 504.157 1063.44 505.003 1057.2 509.856 1051.86 514.972 1048.6 522.418 1043.86 531.407 1041.26 540.641 1040.2ZM670.573 976.041C674.516 975.639 678.579 978.145 681.935 984.112 687.277 993.607 692.226 1012.15 684.342 1021.59 684.25 1021.7 684.201 1021.82 684.192 1021.96 683.954 1025.78 684.461 1027.99 687.228 1030.6 695.641 1038.52 705.496 1045.22 714.671 1052.25 714.83 1052.37 714.813 1052.46 714.623 1052.52 686.752 1061.41 652.615 1064.29 625.066 1052.81 624.904 1052.74 624.891 1052.65 625.026 1052.54 634.372 1044.97 643.714 1038.31 653.051 1032.56 657.082 1030.08 658.869 1026.52 658.41 1021.87 658.396 1021.71 658.338 1021.58 658.238 1021.46 650.623 1012.28 655.118 994.93 659.935 985.422 662.809 979.755 666.631 976.444 670.573 976.041Z" fill-rule="evenodd"/></g></svg>