<svg width="1281" height="321" xmlns="http://www.w3.org/2000/svg" xmlns:xlink="http://www.w3.org/1999/xlink" xml:space="preserve" overflow="hidden"><defs><clipPath id="clip0"><rect x="1450" y="728" width="1281" height="321"/></clipPath></defs><g clip-path="url(#clip0)" transform="translate(-1450 -728)"><path d="M2690.15 825.064C2685.53 825.064 2682.19 826.51 2680.12 829.401 2678.06 832.292 2677.03 836.134 2677.03 840.925L2677.03 857.53 2702.77 857.53 2702.77 840.925C2702.77 836.134 2701.78 832.292 2699.8 829.401 2697.82 826.51 2694.6 825.064 2690.15 825.064ZM2463.29 825.064C2458.67 825.064 2455.33 826.51 2453.27 829.401 2451.21 832.292 2450.18 836.134 2450.18 840.925L2450.18 857.53 2475.91 857.53 2475.91 840.925C2475.91 836.134 2474.92 832.292 2472.94 829.401 2470.96 826.51 2467.75 825.064 2463.29 825.064ZM2609.06 804.493 2636.28 804.493 2636.28 945.017 2609.06 945.017ZM2690.15 802.51C2703.68 802.51 2713.53 806.145 2719.72 813.415 2725.91 820.685 2729 830.681 2729 843.404L2729 877.357 2677.03 877.357 2677.03 908.585C2677.03 913.376 2678.14 917.218 2680.37 920.109 2682.6 923.001 2686.02 924.447 2690.64 924.447 2695.1 924.447 2698.31 923.042 2700.29 920.233 2702.27 917.425 2703.26 913.542 2703.26 908.585L2703.26 889.501 2729 889.501 2729 906.107C2729 918.829 2725.91 928.825 2719.72 936.095 2713.53 943.365 2703.68 947 2690.15 947 2683.38 947 2677.44 945.967 2672.33 943.902 2667.21 941.837 2663.01 938.904 2659.71 935.104 2656.41 931.304 2653.93 926.801 2652.28 921.596 2650.63 916.392 2649.81 910.65 2649.81 904.372L2649.81 845.139C2649.81 832.416 2653.11 822.131 2659.71 814.283 2666.31 806.435 2676.45 802.51 2690.15 802.51ZM2568.47 802.51C2577.05 802.51 2583.61 805.319 2588.15 810.937 2592.68 816.554 2594.95 825.559 2594.95 837.951L2594.95 945.017 2567.73 945.017 2567.73 839.19C2567.73 834.894 2566.94 831.425 2565.38 828.781 2563.81 826.138 2560.63 824.816 2555.85 824.816 2551.06 824.816 2547.81 826.138 2546.07 828.781 2544.34 831.425 2543.48 834.894 2543.48 839.19L2543.48 945.017 2516.25 945.017 2516.25 804.493 2543.48 804.493 2543.48 818.868 2543.97 818.868C2545.62 814.737 2548.3 810.978 2552.01 807.591 2555.73 804.204 2561.21 802.51 2568.47 802.51ZM2463.29 802.51C2476.82 802.51 2486.68 806.145 2492.87 813.415 2499.05 820.685 2502.15 830.681 2502.15 843.404L2502.15 877.357 2450.18 877.357 2450.18 908.585C2450.18 913.376 2451.29 917.218 2453.52 920.109 2455.75 923.001 2459.17 924.447 2463.79 924.447 2468.24 924.447 2471.46 923.042 2473.44 920.233 2475.42 917.425 2476.41 913.542 2476.41 908.585L2476.41 889.501 2502.15 889.501 2502.15 906.107C2502.15 918.829 2499.05 928.825 2492.87 936.095 2486.68 943.365 2476.82 947 2463.29 947 2456.53 947 2450.59 945.967 2445.48 943.902 2440.36 941.837 2436.15 938.904 2432.85 935.104 2429.55 931.304 2427.08 926.801 2425.43 921.596 2423.78 916.392 2422.95 910.65 2422.95 904.372L2422.95 845.139C2422.95 832.416 2426.25 822.131 2432.85 814.283 2439.45 806.435 2449.6 802.51 2463.29 802.51ZM2025.45 800.032 2025.45 866.205 2035.85 866.205C2045.09 866.205 2049.71 861.578 2049.71 852.326L2049.71 813.663C2049.71 804.576 2045.09 800.032 2035.85 800.032ZM2609.06 776.983 2636.28 776.983 2636.28 798.297 2609.06 798.297ZM2090.04 776.983 2122.96 776.983 2141.27 871.657 2141.52 871.657 2157.85 776.983 2193.49 776.983 2193.49 945.017 2167.75 945.017 2167.75 835.968 2167.01 835.968 2147.95 945.017 2134.84 945.017 2113.8 835.968 2113.31 835.968 2113.31 945.017 2090.04 945.017ZM1997.24 776.983 2039.06 776.983C2053.25 776.983 2063.28 780.329 2069.13 787.021 2074.99 793.712 2077.92 802.923 2077.92 814.654L2077.92 850.095C2077.92 861.826 2074.99 871.079 2069.13 877.853 2063.28 884.628 2053.25 888.014 2039.06 888.014L2025.45 888.014 2025.45 945.017 1997.24 945.017ZM1901 776.983 1929.21 776.983 1929.21 850.839 1959.9 776.983 1987.62 776.983 1954.95 852.574 1988.36 945.017 1958.66 945.017 1929.21 863.231 1929.21 945.017 1901 945.017ZM2369.53 775C2377.28 775 2383.76 776.033 2388.95 778.098 2394.15 780.164 2398.28 783.055 2401.33 786.773 2404.38 790.49 2406.57 794.951 2407.89 800.156 2409.21 805.361 2409.87 811.019 2409.87 817.133L2409.87 832.003 2384.13 832.003 2384.13 814.902C2384.13 809.615 2383.06 805.567 2380.91 802.758 2378.77 799.95 2375.14 798.545 2370.02 798.545 2364.91 798.545 2361.2 800.156 2358.89 803.378 2356.58 806.6 2355.42 810.772 2355.42 815.893L2355.42 906.107C2355.42 911.229 2356.54 915.401 2358.76 918.623 2360.99 921.844 2364.5 923.455 2369.28 923.455 2378.52 923.455 2383.14 918.086 2383.14 907.346L2383.14 877.605 2369.78 877.605 2369.78 855.3 2409.87 855.3 2409.87 945.017 2389.57 945.017 2389.57 926.677C2387.76 932.956 2384.75 937.913 2380.54 941.547 2376.33 945.182 2370.35 947 2362.6 947 2356.49 947 2351.21 945.843 2346.76 943.53 2342.31 941.217 2338.63 938.037 2335.75 933.988 2332.86 929.94 2330.72 925.149 2329.31 919.614 2327.91 914.079 2327.21 908.089 2327.21 901.646L2327.21 820.355C2327.21 813.746 2328.03 807.674 2329.68 802.139 2331.33 796.603 2333.85 791.812 2337.23 787.764 2340.61 783.716 2344.99 780.577 2350.35 778.346 2355.71 776.116 2362.1 775 2369.53 775ZM2249.23 775C2256.98 775 2263.46 776.033 2268.65 778.098 2273.85 780.164 2277.98 783.055 2281.03 786.773 2284.08 790.49 2286.27 794.951 2287.59 800.156 2288.91 805.361 2289.57 811.019 2289.57 817.133L2289.57 832.003 2263.83 832.003 2263.83 814.902C2263.83 809.615 2262.76 805.567 2260.61 802.758 2258.47 799.95 2254.84 798.545 2249.72 798.545 2244.61 798.545 2240.9 800.156 2238.59 803.378 2236.28 806.6 2235.12 810.772 2235.12 815.893L2235.12 906.107C2235.12 911.229 2236.23 915.401 2238.46 918.623 2240.69 921.844 2244.19 923.455 2248.98 923.455 2258.22 923.455 2262.84 918.086 2262.84 907.346L2262.84 877.605 2249.47 877.605 2249.47 855.3 2289.57 855.3 2289.57 945.017 2269.27 945.017 2269.27 926.677C2267.46 932.956 2264.45 937.913 2260.24 941.547 2256.03 945.182 2250.05 947 2242.3 947 2236.19 947 2230.91 945.843 2226.46 943.53 2222 941.217 2218.33 938.037 2215.45 933.988 2212.56 929.94 2210.41 925.149 2209.01 919.614 2207.61 914.079 2206.91 908.089 2206.91 901.646L2206.91 820.355C2206.91 813.746 2207.73 807.674 2209.38 802.139 2211.03 796.603 2213.55 791.812 2216.93 787.764 2220.31 783.716 2224.69 780.577 2230.05 778.346 2235.41 776.116 2241.8 775 2249.23 775Z" fill="#595959" fill-rule="evenodd"/><path d="M2579.14 1001.39C2578.85 1001.75 2578.48 1002.12 2578.04 1002.49 2577.6 1002.85 2577 1003.27 2576.23 1003.75 2575.46 1004.23 2574.43 1004.78 2573.15 1005.4 2571.87 1006.02 2570.24 1006.78 2568.26 1007.65 2566.58 1008.46 2565.09 1009.19 2563.81 1009.85 2562.53 1010.51 2561.45 1011.27 2560.57 1012.11 2559.69 1012.95 2559 1013.98 2558.48 1015.19 2557.97 1016.4 2557.6 1017.88 2557.38 1019.64L2556.83 1024.81C2556.39 1028.62 2556.93 1031.44 2558.43 1033.28 2559.93 1035.11 2562.26 1036.02 2565.41 1036.02 2568.26 1036.02 2570.77 1035.13 2572.93 1033.33 2575.09 1031.53 2576.36 1028.88 2576.72 1025.36ZM2458.95 1001.39C2458.66 1001.75 2458.29 1002.12 2457.85 1002.49 2457.41 1002.85 2456.81 1003.27 2456.04 1003.75 2455.27 1004.23 2454.24 1004.78 2452.96 1005.4 2451.68 1006.02 2450.05 1006.78 2448.07 1007.65 2446.39 1008.46 2444.9 1009.19 2443.62 1009.85 2442.34 1010.51 2441.26 1011.27 2440.38 1012.11 2439.5 1012.95 2438.8 1013.98 2438.29 1015.19 2437.78 1016.4 2437.41 1017.88 2437.19 1019.64L2436.64 1024.81C2436.2 1028.62 2436.74 1031.44 2438.24 1033.28 2439.74 1035.11 2442.06 1036.02 2445.22 1036.02 2448.07 1036.02 2450.58 1035.13 2452.74 1033.33 2454.9 1031.53 2456.17 1028.88 2456.53 1025.36ZM2400.57 1001.39C2400.28 1001.75 2399.91 1002.12 2399.47 1002.49 2399.03 1002.85 2398.43 1003.27 2397.66 1003.75 2396.89 1004.23 2395.87 1004.78 2394.58 1005.4 2393.3 1006.02 2391.67 1006.78 2389.69 1007.65 2388.01 1008.46 2386.53 1009.19 2385.24 1009.85 2383.96 1010.51 2382.88 1011.27 2382 1012.11 2381.12 1012.95 2380.43 1013.98 2379.91 1015.19 2379.4 1016.4 2379.03 1017.88 2378.82 1019.64L2378.27 1024.81C2377.83 1028.62 2378.36 1031.44 2379.86 1033.28 2381.36 1035.11 2383.69 1036.02 2386.84 1036.02 2389.69 1036.02 2392.2 1035.13 2394.36 1033.33 2396.53 1031.53 2397.79 1028.88 2398.16 1025.36ZM2270.14 979.835C2263.47 979.835 2259.7 983.72 2258.82 991.491L2257.5 1003.81 2278.38 1003.81 2279.59 992.26C2279.95 988.228 2279.35 985.149 2277.77 983.023 2276.2 980.897 2273.65 979.835 2270.14 979.835ZM1957.64 979.835C1950.97 979.835 1947.2 983.72 1946.32 991.491L1945 1003.81 1965.88 1003.81 1967.09 992.26C1967.46 988.228 1966.85 985.149 1965.28 983.023 1963.7 980.897 1961.16 979.835 1957.64 979.835ZM2307.58 979.834C2301.13 979.834 2297.47 983.426 2296.59 990.61L2293.18 1024.7C2292.82 1028.36 2293.4 1031.19 2294.94 1033.17 2296.48 1035.14 2298.9 1036.13 2302.2 1036.13 2305.35 1036.13 2307.95 1035 2310 1032.73 2312.05 1030.45 2313.29 1027.19 2313.73 1022.94L2317.03 991.82C2317.47 987.935 2316.74 984.966 2314.83 982.913 2312.93 980.861 2310.51 979.834 2307.58 979.834ZM2661.39 976.756 2665.79 976.756 2659.31 1039.1 2654.91 1039.1ZM2600.05 976.756 2604.44 976.756 2610.49 1026.13 2610.6 1026.13 2627.41 976.756 2631.7 976.756 2609.39 1041.41C2608.44 1044.2 2607.28 1046.16 2605.93 1047.3 2604.57 1048.43 2602.39 1049 2599.39 1049L2595.76 1049 2596.2 1045.48 2599.17 1045.48C2601.29 1045.48 2602.74 1045.1 2603.51 1044.33 2604.28 1043.56 2604.99 1042.18 2605.65 1040.2L2608.18 1032.95 2607.19 1032.95ZM2187.5 976.756 2191.9 976.756 2185.41 1039.1 2181.02 1039.1ZM2718.01 976.206C2727.54 976.206 2731.82 980.751 2730.87 989.841L2730.32 995.119 2726.14 995.119 2726.69 989.841C2727.06 986.322 2726.51 983.775 2725.05 982.199 2723.58 980.622 2721.24 979.835 2718.01 979.835 2714.79 979.835 2712.41 980.568 2710.87 982.034 2709.33 983.5 2708.42 985.553 2708.12 988.192L2707.9 990.171C2707.68 992.443 2707.99 994.459 2708.84 996.219 2709.68 997.978 2711.42 999.994 2714.06 1002.27L2720.65 1007.87C2723.87 1010.66 2726 1013.3 2727.02 1015.79 2728.05 1018.28 2728.38 1021.14 2728.01 1024.37L2727.79 1026.46C2727.35 1030.78 2726.05 1034.06 2723.89 1036.3 2721.73 1038.54 2718.23 1039.65 2713.4 1039.65 2708.34 1039.65 2704.7 1038.35 2702.46 1035.75 2700.23 1033.15 2699.33 1029.61 2699.77 1025.14L2700.43 1018.98 2704.61 1018.98 2703.95 1025.25C2703.58 1028.62 2704.15 1031.26 2705.65 1033.17 2707.15 1035.07 2709.73 1036.02 2713.4 1036.02 2716.91 1036.02 2719.41 1035.2 2720.87 1033.55 2722.34 1031.9 2723.25 1029.5 2723.62 1026.35L2723.84 1024.37C2724.13 1021.73 2723.86 1019.44 2723.01 1017.5 2722.17 1015.55 2720.36 1013.37 2717.57 1010.95L2710.98 1005.24C2708.2 1002.82 2706.22 1000.43 2705.05 998.088 2703.87 995.742 2703.47 992.993 2703.84 989.841L2704.06 987.862C2704.5 984.27 2705.83 981.429 2708.07 979.34 2710.3 977.25 2713.62 976.206 2718.01 976.206ZM2685.65 976.206C2690.71 976.206 2694.3 977.525 2696.42 980.164 2698.54 982.804 2699.35 986.652 2698.84 991.71L2698.4 995.889 2694.11 995.889 2694.55 991.491C2694.92 987.678 2694.39 984.783 2692.96 982.804 2691.53 980.824 2689.06 979.835 2685.54 979.835 2678.87 979.835 2675.1 983.72 2674.22 991.491L2670.82 1023.93C2670.45 1027.74 2671.11 1030.71 2672.79 1032.84 2674.48 1034.96 2677.04 1036.02 2680.49 1036.02 2683.78 1036.02 2686.31 1035.18 2688.07 1033.5 2689.83 1031.81 2690.89 1029.13 2691.26 1025.47L2691.91 1018.43 2696.2 1018.43 2695.43 1025.47C2694.92 1030.31 2693.43 1033.88 2690.98 1036.19 2688.53 1038.5 2684.99 1039.65 2680.38 1039.65 2675.39 1039.65 2671.71 1038.17 2669.33 1035.2 2666.95 1032.23 2666.05 1028.14 2666.64 1022.94L2669.94 991.71C2670.45 986.652 2672.06 982.804 2674.77 980.164 2677.48 977.525 2681.11 976.206 2685.65 976.206ZM2572.11 976.206C2577.02 976.206 2580.44 977.507 2582.38 980.109 2584.32 982.712 2585.04 986.359 2584.53 991.051L2579.58 1039.1 2575.19 1039.1 2575.84 1032.95 2575.62 1032.95C2574.6 1034.85 2573.17 1036.45 2571.34 1037.73 2569.51 1039.01 2567.2 1039.65 2564.42 1039.65 2560.31 1039.65 2557.16 1038.46 2554.97 1036.08 2552.77 1033.7 2551.93 1029.98 2552.44 1024.92L2552.99 1019.64C2553.28 1017.22 2553.81 1015.21 2554.58 1013.59 2555.35 1011.98 2556.36 1010.62 2557.6 1009.52 2558.85 1008.42 2560.3 1007.47 2561.94 1006.67 2563.59 1005.86 2565.48 1005.02 2567.6 1004.14 2572.07 1002.3 2575.2 1000.75 2577 999.463 2578.79 998.18 2579.76 996.695 2579.91 995.009L2580.24 990.831C2580.61 987.312 2580.2 984.6 2579.03 982.694 2577.86 980.788 2575.52 979.835 2572 979.835 2568.7 979.835 2566.28 980.696 2564.75 982.419 2563.21 984.141 2562.29 986.652 2562 989.951L2561.34 995.889 2557.16 995.889 2557.71 989.731C2558.23 985.479 2559.64 982.162 2561.94 979.78 2564.25 977.397 2567.64 976.206 2572.11 976.206ZM2539.97 976.206C2543.85 976.206 2546.82 977.489 2548.87 980.055 2550.92 982.62 2551.65 986.579 2551.07 991.93L2546.23 1039.1 2541.83 1039.1 2546.78 991.93C2547.22 987.972 2546.76 984.966 2545.41 982.913 2544.05 980.861 2541.72 979.835 2538.43 979.835 2535.13 979.835 2532.46 981.063 2530.41 983.518 2528.35 985.974 2527.15 989.071 2526.78 992.81L2521.94 1039.1 2517.55 1039.1 2524.03 976.756 2528.43 976.756 2527.66 983.793 2527.77 983.793C2528.65 981.887 2530.08 980.146 2532.05 978.57 2534.03 976.994 2536.67 976.206 2539.97 976.206ZM2451.92 976.206C2456.83 976.206 2460.25 977.507 2462.19 980.109 2464.13 982.712 2464.85 986.359 2464.34 991.051L2459.39 1039.1 2455 1039.1 2455.65 1032.95 2455.43 1032.95C2454.41 1034.85 2452.98 1036.45 2451.15 1037.73 2449.32 1039.01 2447.01 1039.65 2444.23 1039.65 2440.12 1039.65 2436.97 1038.46 2434.78 1036.08 2432.58 1033.7 2431.74 1029.98 2432.25 1024.92L2432.8 1019.64C2433.09 1017.22 2433.62 1015.21 2434.39 1013.59 2435.16 1011.98 2436.17 1010.62 2437.41 1009.52 2438.66 1008.42 2440.11 1007.47 2441.75 1006.67 2443.4 1005.86 2445.29 1005.02 2447.41 1004.14 2451.88 1002.3 2455.01 1000.75 2456.81 999.463 2458.6 998.18 2459.57 996.695 2459.72 995.009L2460.05 990.831C2460.42 987.312 2460.01 984.6 2458.84 982.694 2457.67 980.788 2455.32 979.835 2451.81 979.835 2448.51 979.835 2446.09 980.696 2444.56 982.419 2443.02 984.141 2442.1 986.652 2441.81 989.951L2441.15 995.889 2436.97 995.889 2437.52 989.731C2438.04 985.479 2439.45 982.162 2441.75 979.78 2444.06 977.397 2447.45 976.206 2451.92 976.206ZM2393.54 976.206C2398.45 976.206 2401.87 977.507 2403.81 980.109 2405.76 982.712 2406.47 986.359 2405.96 991.051L2401.01 1039.1 2396.62 1039.1 2397.28 1032.95 2397.06 1032.95C2396.03 1034.85 2394.6 1036.45 2392.77 1037.73 2390.94 1039.01 2388.63 1039.65 2385.85 1039.65 2381.75 1039.65 2378.6 1038.46 2376.4 1036.08 2374.2 1033.7 2373.36 1029.98 2373.87 1024.92L2374.42 1019.64C2374.71 1017.22 2375.24 1015.21 2376.01 1013.59 2376.78 1011.98 2377.79 1010.62 2379.03 1009.52 2380.28 1008.42 2381.73 1007.47 2383.38 1006.67 2385.02 1005.86 2386.91 1005.02 2389.03 1004.14 2393.5 1002.3 2396.64 1000.75 2398.43 999.463 2400.23 998.18 2401.2 996.695 2401.34 995.009L2401.67 990.831C2402.04 987.312 2401.64 984.6 2400.46 982.694 2399.29 980.788 2396.95 979.835 2393.43 979.835 2390.13 979.835 2387.72 980.696 2386.18 982.419 2384.64 984.141 2383.72 986.652 2383.43 989.951L2382.77 995.889 2378.6 995.889 2379.14 989.731C2379.66 985.479 2381.07 982.162 2383.38 979.78 2385.68 977.397 2389.07 976.206 2393.54 976.206ZM2270.36 976.206C2275.19 976.206 2278.76 977.617 2281.07 980.439 2283.38 983.262 2284.24 987.239 2283.65 992.37L2282.11 1007.32 2257.06 1007.32 2255.41 1023.16C2254.97 1027.34 2255.67 1030.53 2257.5 1032.73 2259.33 1034.93 2262.04 1036.02 2265.63 1036.02 2269.07 1036.02 2271.6 1035.07 2273.21 1033.17 2274.82 1031.26 2275.85 1028.29 2276.29 1024.26L2276.84 1018.43 2281.01 1018.43 2280.35 1024.37C2279.77 1029.65 2278.32 1033.51 2276.01 1035.97 2273.71 1038.43 2270.21 1039.65 2265.52 1039.65 2260.47 1039.65 2256.66 1038.19 2254.09 1035.26 2251.53 1032.32 2250.54 1028.22 2251.12 1022.94L2254.42 991.491C2254.93 986.505 2256.53 982.712 2259.2 980.109 2261.88 977.507 2265.59 976.206 2270.36 976.206ZM2209.78 976.206C2219.3 976.206 2223.59 980.751 2222.64 989.841L2222.09 995.119 2217.91 995.119 2218.46 989.841C2218.83 986.322 2218.28 983.775 2216.81 982.199 2215.35 980.622 2213 979.835 2209.78 979.835 2206.56 979.835 2204.17 980.568 2202.64 982.034 2201.1 983.5 2200.18 985.553 2199.89 988.192L2199.67 990.171C2199.45 992.443 2199.76 994.459 2200.6 996.219 2201.45 997.978 2203.19 999.994 2205.82 1002.27L2212.42 1007.87C2215.64 1010.66 2217.76 1013.3 2218.79 1015.79 2219.82 1018.28 2220.15 1021.14 2219.78 1024.37L2219.56 1026.46C2219.12 1030.78 2217.82 1034.06 2215.66 1036.3 2213.5 1038.54 2210 1039.65 2205.16 1039.65 2200.11 1039.65 2196.46 1038.35 2194.23 1035.75 2192 1033.15 2191.1 1029.61 2191.54 1025.14L2192.2 1018.98 2196.37 1018.98 2195.71 1025.25C2195.35 1028.62 2195.92 1031.26 2197.42 1033.17 2198.92 1035.07 2201.5 1036.02 2205.16 1036.02 2208.68 1036.02 2211.17 1035.2 2212.64 1033.55 2214.1 1031.9 2215.02 1029.5 2215.38 1026.35L2215.6 1024.37C2215.9 1021.73 2215.62 1019.44 2214.78 1017.5 2213.94 1015.55 2212.12 1013.37 2209.34 1010.95L2202.75 1005.24C2199.96 1002.82 2197.98 1000.43 2196.81 998.088 2195.64 995.742 2195.24 992.993 2195.6 989.841L2195.82 987.862C2196.26 984.27 2197.6 981.429 2199.83 979.34 2202.07 977.25 2205.38 976.206 2209.78 976.206ZM2165.14 976.206C2174.66 976.206 2178.95 980.751 2177.99 989.841L2177.44 995.119 2173.27 995.119 2173.82 989.841C2174.18 986.322 2173.64 983.775 2172.17 982.199 2170.7 980.622 2168.36 979.835 2165.14 979.835 2161.91 979.835 2159.53 980.568 2157.99 982.034 2156.46 983.5 2155.54 985.553 2155.25 988.192L2155.03 990.171C2154.81 992.443 2155.12 994.459 2155.96 996.219 2156.8 997.978 2158.54 999.994 2161.18 1002.27L2167.77 1007.87C2171 1010.66 2173.12 1013.3 2174.15 1015.79 2175.17 1018.28 2175.5 1021.14 2175.14 1024.37L2174.92 1026.46C2174.48 1030.78 2173.18 1034.06 2171.02 1036.3 2168.85 1038.54 2165.36 1039.65 2160.52 1039.65 2155.47 1039.65 2151.82 1038.35 2149.59 1035.75 2147.35 1033.15 2146.46 1029.61 2146.9 1025.14L2147.55 1018.98 2151.73 1018.98 2151.07 1025.25C2150.71 1028.62 2151.27 1031.26 2152.77 1033.17 2154.28 1035.07 2156.86 1036.02 2160.52 1036.02 2164.04 1036.02 2166.53 1035.2 2167.99 1033.55 2169.46 1031.9 2170.38 1029.5 2170.74 1026.35L2170.96 1024.37C2171.25 1021.73 2170.98 1019.44 2170.14 1017.5 2169.29 1015.55 2167.48 1013.37 2164.7 1010.95L2158.1 1005.24C2155.32 1002.82 2153.34 1000.43 2152.17 998.088 2151 995.742 2150.6 992.993 2150.96 989.841L2151.18 987.862C2151.62 984.27 2152.96 981.429 2155.19 979.34 2157.43 977.25 2160.74 976.206 2165.14 976.206ZM2130.8 976.206C2140.32 976.206 2144.61 980.751 2143.65 989.841L2143.1 995.119 2138.93 995.119 2139.48 989.841C2139.84 986.322 2139.29 983.775 2137.83 982.199 2136.36 980.622 2134.02 979.835 2130.8 979.835 2127.57 979.835 2125.19 980.568 2123.65 982.034 2122.12 983.5 2121.2 985.553 2120.91 988.192L2120.69 990.171C2120.47 992.443 2120.78 994.459 2121.62 996.219 2122.46 997.978 2124.2 999.994 2126.84 1002.27L2133.43 1007.87C2136.66 1010.66 2138.78 1013.3 2139.81 1015.79 2140.83 1018.28 2141.16 1021.14 2140.8 1024.37L2140.58 1026.46C2140.14 1030.78 2138.84 1034.06 2136.68 1036.3 2134.51 1038.54 2131.02 1039.65 2126.18 1039.65 2121.13 1039.65 2117.48 1038.35 2115.25 1035.75 2113.01 1033.15 2112.12 1029.61 2112.56 1025.14L2113.21 1018.98 2117.39 1018.98 2116.73 1025.25C2116.36 1028.62 2116.93 1031.26 2118.43 1033.17 2119.94 1035.07 2122.52 1036.02 2126.18 1036.02 2129.7 1036.02 2132.19 1035.2 2133.65 1033.55 2135.12 1031.9 2136.03 1029.5 2136.4 1026.35L2136.62 1024.37C2136.91 1021.73 2136.64 1019.44 2135.8 1017.5 2134.95 1015.55 2133.14 1013.37 2130.36 1010.95L2123.76 1005.24C2120.98 1002.82 2119 1000.43 2117.83 998.088 2116.66 995.742 2116.26 992.993 2116.62 989.841L2116.84 987.862C2117.28 984.27 2118.62 981.429 2120.85 979.34 2123.09 977.25 2126.4 976.206 2130.8 976.206ZM1997.39 976.206C2001.27 976.206 2004.24 977.489 2006.29 980.055 2008.34 982.62 2009.08 986.579 2008.49 991.93L2003.66 1039.1 1999.26 1039.1 2004.21 991.93C2004.65 987.972 2004.19 984.966 2002.83 982.913 2001.48 980.861 1999.15 979.835 1995.85 979.835 1992.56 979.835 1989.88 981.063 1987.83 983.518 1985.78 985.974 1984.57 989.071 1984.21 992.81L1979.37 1039.1 1974.98 1039.1 1981.46 976.756 1985.85 976.756 1985.08 983.793 1985.19 983.793C1986.07 981.887 1987.5 980.146 1989.48 978.57 1991.46 976.994 1994.1 976.206 1997.39 976.206ZM1957.86 976.206C1962.69 976.206 1966.27 977.617 1968.57 980.439 1970.88 983.262 1971.74 987.239 1971.16 992.37L1969.62 1007.32 1944.56 1007.32 1942.92 1023.16C1942.48 1027.34 1943.17 1030.53 1945 1032.73 1946.83 1034.93 1949.55 1036.02 1953.13 1036.02 1956.58 1036.02 1959.11 1035.07 1960.72 1033.17 1962.33 1031.26 1963.35 1028.29 1963.79 1024.26L1964.34 1018.43 1968.52 1018.43 1967.86 1024.37C1967.27 1029.65 1965.83 1033.51 1963.52 1035.97 1961.21 1038.43 1957.71 1039.65 1953.02 1039.65 1947.97 1039.65 1944.16 1038.19 1941.6 1035.26 1939.03 1032.32 1938.04 1028.22 1938.63 1022.94L1941.93 991.491C1942.44 986.505 1944.03 982.712 1946.71 980.109 1949.38 977.507 1953.1 976.206 1957.86 976.206ZM2502.19 971.367 2488.9 1015.9 2506.59 1015.9 2502.3 971.367ZM2096.98 971.367 2083.68 1015.9 2101.37 1015.9 2097.09 971.367ZM2031.73 971.367 2018.44 1015.9 2036.13 1015.9 2031.84 971.367ZM2347.52 968.288 2340.38 1035.36 2350.38 1035.36C2355 1035.36 2358.37 1034.16 2360.49 1031.74 2362.62 1029.32 2363.86 1026.2 2364.23 1022.39L2368.4 982.693C2368.62 980.714 2368.6 978.845 2368.35 977.085 2368.09 975.326 2367.52 973.786 2366.65 972.467 2365.77 971.147 2364.54 970.121 2362.96 969.388 2361.39 968.655 2359.36 968.288 2356.86 968.288ZM2662.71 964.55 2667.11 964.55 2666.67 968.948 2662.27 968.948ZM2641.64 964.55 2645.93 964.55 2644.61 976.755 2653.73 976.755 2653.4 980.164 2644.28 980.164 2639.11 1029.1C2638.89 1031.22 2639.11 1032.84 2639.77 1033.94 2640.43 1035.03 2641.93 1035.58 2644.28 1035.58L2647.57 1035.58 2647.25 1039.1 2643.84 1039.1C2639.88 1039.1 2637.3 1038.21 2636.09 1036.41 2634.88 1034.61 2634.46 1032.03 2634.83 1028.66L2639.99 980.164 2634.94 980.164 2635.38 976.755 2640.32 976.755ZM2594.03 964.55 2598.43 964.55 2590.62 1039.1 2586.23 1039.1ZM2500.1 964.55 2505.82 964.55 2513.4 1039.1 2508.9 1039.1 2507.03 1019.64 2487.8 1019.64 2482.08 1039.1 2477.69 1039.1ZM2418.43 964.55 2422.72 964.55 2421.4 976.755 2430.52 976.755 2430.19 980.164 2421.07 980.164 2415.9 1029.1C2415.68 1031.22 2415.9 1032.84 2416.56 1033.94 2417.22 1035.03 2418.72 1035.58 2421.07 1035.58L2424.36 1035.58 2424.03 1039.1 2420.63 1039.1C2416.67 1039.1 2414.09 1038.21 2412.88 1036.41 2411.67 1034.61 2411.25 1032.03 2411.62 1028.66L2416.78 980.164 2411.73 980.164 2412.17 976.755 2417.11 976.755ZM2343.35 964.55 2357.63 964.55C2360.86 964.55 2363.51 965.044 2365.6 966.034 2367.69 967.024 2369.32 968.38 2370.49 970.103 2371.66 971.825 2372.43 973.841 2372.8 976.15 2373.17 978.46 2373.2 980.971 2372.91 983.683L2368.84 1022.17C2368.55 1024.59 2368 1026.84 2367.19 1028.93 2366.39 1031.02 2365.27 1032.82 2363.84 1034.32 2362.41 1035.82 2360.62 1037 2358.46 1037.84 2356.3 1038.68 2353.75 1039.1 2350.82 1039.1L2335.55 1039.1ZM2319.89 964.55 2324.17 964.55 2316.48 1039.1 2312.2 1039.1 2312.85 1031.96 2312.74 1031.96C2311.87 1033.94 2310.51 1035.71 2308.68 1037.29 2306.85 1038.87 2304.25 1039.65 2300.88 1039.65 2296.99 1039.65 2293.88 1038.41 2291.54 1035.91 2289.19 1033.42 2288.28 1029.61 2288.79 1024.48L2292.31 990.06C2292.89 985.222 2294.47 981.704 2297.03 979.505 2299.59 977.305 2302.71 976.206 2306.37 976.206 2309.74 976.206 2312.32 976.939 2314.12 978.405 2315.91 979.871 2317.14 981.557 2317.8 983.463L2317.91 983.463ZM2236.43 964.55 2240.71 964.55 2239.39 976.755 2248.51 976.755 2248.19 980.164 2239.06 980.164 2233.9 1029.1C2233.68 1031.22 2233.9 1032.84 2234.56 1033.94 2235.22 1035.03 2236.72 1035.58 2239.06 1035.58L2242.36 1035.58 2242.03 1039.1 2238.62 1039.1C2234.67 1039.1 2232.09 1038.21 2230.88 1036.41 2229.67 1034.61 2229.25 1032.03 2229.61 1028.66L2234.78 980.164 2229.72 980.164 2230.16 976.755 2235.11 976.755ZM2188.82 964.55 2193.21 964.55 2192.77 968.948 2188.38 968.948ZM2094.89 964.55 2100.6 964.55 2108.19 1039.1 2103.68 1039.1 2101.81 1019.64 2082.58 1019.64 2076.87 1039.1 2072.47 1039.1ZM2054.89 964.55 2059.4 964.55 2051.59 1039.1 2047.09 1039.1ZM2029.64 964.55 2035.36 964.55 2042.94 1039.1 2038.44 1039.1 2036.57 1019.64 2017.34 1019.64 2011.62 1039.1 2007.23 1039.1ZM1922.28 964C1925.36 964 1927.87 964.421 1929.81 965.264 1931.75 966.107 1933.25 967.299 1934.32 968.838 1935.38 970.378 1936.06 972.21 1936.35 974.336 1936.64 976.462 1936.64 978.808 1936.35 981.374L1935.69 987.311 1931.51 987.311 1932.28 980.714C1932.5 978.808 1932.52 977.048 1932.34 975.436 1932.16 973.823 1931.7 972.449 1930.96 971.312 1930.23 970.176 1929.15 969.296 1927.72 968.673 1926.29 968.05 1924.44 967.738 1922.17 967.738 1920.12 967.738 1918.36 968.068 1916.9 968.728 1915.43 969.388 1914.21 970.304 1913.22 971.477 1912.23 972.65 1911.48 974.024 1910.97 975.601 1910.45 977.177 1910.09 978.881 1909.87 980.714L1905.69 1021.4C1905.47 1023.38 1905.49 1025.25 1905.75 1027.01 1906 1028.77 1906.53 1030.31 1907.34 1031.63 1908.14 1032.95 1909.28 1033.99 1910.75 1034.76 1912.21 1035.53 1914.01 1035.91 1916.13 1035.91 1920.16 1035.91 1923.07 1034.72 1924.87 1032.34 1926.66 1029.96 1927.74 1026.93 1928.11 1023.27L1929.87 1005.79 1919.76 1005.79 1920.09 1002.05 1934.48 1002.05 1930.53 1039.1 1926.68 1039.1 1927.45 1032.18C1926.57 1034.23 1925.2 1035.99 1923.33 1037.45 1921.46 1038.92 1918.69 1039.65 1915.03 1039.65 1912.25 1039.65 1909.92 1039.14 1908.05 1038.11 1906.18 1037.09 1904.7 1035.71 1903.6 1033.99 1902.5 1032.27 1901.75 1030.23 1901.35 1027.89 1900.95 1025.54 1900.89 1023.05 1901.18 1020.41L1905.25 981.044C1905.54 978.625 1906.07 976.371 1906.84 974.281 1907.61 972.192 1908.68 970.378 1910.03 968.838 1911.39 967.299 1913.07 966.107 1915.09 965.264 1917.1 964.421 1919.5 964 1922.28 964Z" fill="#595959" fill-rule="evenodd"/><path d="M1486.41 806.827C1484.39 807.04 1482.38 807.872 1480.47 809.551 1476.41 813.123 1475.66 819.135 1480.23 822.663 1489.11 829.519 1498.33 835.877 1507.88 841.737 1511.53 843.973 1518.22 848.061 1522.1 847.964 1526.64 847.849 1522.82 840.476 1521.88 838.87 1516.74 830.103 1509.36 822.931 1502.58 815.456 1498.65 811.12 1492.47 806.188 1486.41 806.827ZM1486.64 792.199C1495.87 791.136 1505.35 791.608 1513.77 793.004 1517.35 793.598 1520.17 794.364 1522.25 795.302 1530.49 799.028 1534.69 806.773 1534.35 816.303 1534.11 822.724 1535.44 828.969 1538.19 834.773 1538.25 834.909 1538.33 834.911 1538.4 834.782 1539.93 832.3 1541.75 830.042 1543.87 828.008 1549.35 822.739 1555.01 817.682 1560.85 812.837 1560.91 812.792 1560.98 812.783 1561.04 812.815 1578.41 821.767 1597.44 824.705 1616.81 823.765 1635.76 822.845 1654.17 819.236 1672.05 812.938 1672.19 812.888 1672.32 812.907 1672.43 812.995 1692.46 827.739 1718.58 825.759 1740.4 816.704 1759.83 808.638 1780.4 802.976 1802.32 797.538 1803.38 797.277 1804.92 797.463 1806.08 797.97 1812.7 800.884 1819.64 802.253 1826.92 802.08 1827.81 802.058 1829.26 802.742 1829.89 803.527 1835.87 811.051 1816.02 815.536 1811.88 816.599 1795.78 820.735 1780.52 831.06 1767.01 840.467 1742.17 857.768 1717.02 875.964 1690.82 889.614 1676.46 897.099 1661.49 903.086 1645.92 907.572 1645.86 907.591 1645.82 907.663 1645.84 907.732 1645.85 907.76 1645.86 907.784 1645.89 907.802 1650 910.927 1653.94 914.243 1657.7 917.751 1660.55 920.409 1662.69 923.327 1664.14 926.505 1667.85 934.686 1660.57 938.885 1654.14 941.09 1643.64 944.702 1632.35 945.941 1621.89 946.832 1619.43 947.044 1616.93 947.056 1614.37 946.867 1605.09 946.179 1573.75 943.679 1571.01 932.265 1569.09 924.221 1581.99 914.219 1587.52 909.795 1587.6 909.731 1587.61 909.617 1587.55 909.542 1587.52 909.511 1587.49 909.489 1587.45 909.482 1576.31 907.114 1565.65 902.752 1556.41 896.185 1548.03 890.223 1541.11 884.123 1535.78 875.126 1535.7 874.994 1535.59 874.898 1535.45 874.84 1531.82 873.287 1529.92 874.659 1527.24 876.9 1520.99 882.13 1507.21 878.65 1503.02 872.066 1500.59 868.238 1501.34 863.179 1504.49 860.074 1506.08 858.513 1508.18 857.524 1510.77 857.106 1510.85 857.093 1510.9 857.021 1510.88 856.947 1510.88 856.912 1510.86 856.88 1510.83 856.859 1507.45 854.685 1504.47 853.375 1500.03 851.497 1490.57 847.488 1480.78 844.255 1471.05 840.987 1467.17 839.685 1464.45 838.589 1462.89 837.701 1455.29 833.375 1448.91 824.652 1450.16 815.439 1451 809.198 1455.86 803.862 1460.97 800.603 1468.42 795.86 1477.41 793.262 1486.64 792.199ZM1616.57 728.042C1620.52 727.639 1624.58 730.145 1627.94 736.112 1633.28 745.608 1638.23 764.148 1630.34 773.59 1630.25 773.699 1630.2 773.823 1630.19 773.961 1629.95 777.78 1630.46 779.99 1633.23 782.596 1641.64 790.516 1651.5 797.216 1660.67 804.245 1660.83 804.369 1660.81 804.462 1660.62 804.523 1632.75 813.414 1598.61 816.29 1571.07 804.806 1570.9 804.738 1570.89 804.648 1571.03 804.537 1580.37 796.969 1589.71 790.311 1599.05 784.563 1603.08 782.084 1604.87 778.519 1604.41 773.868 1604.4 773.715 1604.34 773.578 1604.24 773.458 1596.62 764.276 1601.12 746.93 1605.93 737.422 1608.81 731.755 1612.63 728.444 1616.57 728.042Z" fill="#595959" fill-rule="evenodd"/></g></svg>