<svg width="1279" height="219" xmlns="http://www.w3.org/2000/svg" xmlns:xlink="http://www.w3.org/1999/xlink" xml:space="preserve" overflow="hidden"><defs><clipPath id="clip0"><rect x="1447" y="1731" width="1279" height="219"/></clipPath></defs><g clip-path="url(#clip0)" transform="translate(-1447 -1731)"><path d="M2687.15 1828.06C2682.53 1828.06 2679.19 1829.51 2677.12 1832.4 2675.06 1835.29 2674.03 1839.13 2674.03 1843.93L2674.03 1860.53 2699.77 1860.53 2699.77 1843.93C2699.77 1839.13 2698.78 1835.29 2696.8 1832.4 2694.82 1829.51 2691.6 1828.06 2687.15 1828.06ZM2460.29 1828.06C2455.67 1828.06 2452.33 1829.51 2450.27 1832.4 2448.21 1835.29 2447.18 1839.13 2447.18 1843.93L2447.18 1860.53 2472.91 1860.53 2472.91 1843.93C2472.91 1839.13 2471.92 1835.29 2469.94 1832.4 2467.96 1829.51 2464.75 1828.06 2460.29 1828.06ZM2606.06 1807.49 2633.28 1807.49 2633.28 1948.02 2606.06 1948.02ZM2687.15 1805.51C2700.68 1805.51 2710.53 1809.15 2716.72 1816.41 2722.91 1823.68 2726 1833.68 2726 1846.4L2726 1880.36 2674.03 1880.36 2674.03 1911.59C2674.03 1916.38 2675.14 1920.22 2677.37 1923.11 2679.6 1926 2683.02 1927.45 2687.64 1927.45 2692.1 1927.45 2695.31 1926.04 2697.29 1923.23 2699.27 1920.42 2700.26 1916.54 2700.26 1911.59L2700.26 1892.5 2726 1892.5 2726 1909.11C2726 1921.83 2722.91 1931.83 2716.72 1939.09 2710.53 1946.36 2700.68 1950 2687.15 1950 2680.38 1950 2674.44 1948.97 2669.33 1946.9 2664.21 1944.84 2660.01 1941.9 2656.71 1938.1 2653.41 1934.3 2650.93 1929.8 2649.28 1924.6 2647.63 1919.39 2646.81 1913.65 2646.81 1907.37L2646.81 1848.14C2646.81 1835.42 2650.11 1825.13 2656.71 1817.28 2663.31 1809.43 2673.45 1805.51 2687.15 1805.51ZM2565.47 1805.51C2574.05 1805.51 2580.61 1808.32 2585.15 1813.94 2589.68 1819.55 2591.95 1828.56 2591.95 1840.95L2591.95 1948.02 2564.73 1948.02 2564.73 1842.19C2564.73 1837.89 2563.94 1834.42 2562.38 1831.78 2560.81 1829.14 2557.63 1827.82 2552.85 1827.82 2548.06 1827.82 2544.81 1829.14 2543.07 1831.78 2541.34 1834.42 2540.48 1837.89 2540.48 1842.19L2540.48 1948.02 2513.25 1948.02 2513.25 1807.49 2540.48 1807.49 2540.48 1821.87 2540.97 1821.87C2542.62 1817.74 2545.3 1813.98 2549.01 1810.59 2552.73 1807.2 2558.21 1805.51 2565.47 1805.51ZM2460.29 1805.51C2473.82 1805.51 2483.68 1809.15 2489.87 1816.41 2496.05 1823.68 2499.15 1833.68 2499.15 1846.4L2499.15 1880.36 2447.18 1880.36 2447.18 1911.59C2447.18 1916.38 2448.29 1920.22 2450.52 1923.11 2452.75 1926 2456.17 1927.45 2460.79 1927.45 2465.24 1927.45 2468.46 1926.04 2470.44 1923.23 2472.42 1920.42 2473.41 1916.54 2473.41 1911.59L2473.41 1892.5 2499.15 1892.5 2499.15 1909.11C2499.15 1921.83 2496.05 1931.83 2489.87 1939.09 2483.68 1946.36 2473.82 1950 2460.29 1950 2453.53 1950 2447.59 1948.97 2442.48 1946.9 2437.36 1944.84 2433.15 1941.9 2429.85 1938.1 2426.55 1934.3 2424.08 1929.8 2422.43 1924.6 2420.78 1919.39 2419.95 1913.65 2419.95 1907.37L2419.95 1848.14C2419.95 1835.42 2423.25 1825.13 2429.85 1817.28 2436.45 1809.43 2446.6 1805.51 2460.29 1805.51ZM2022.45 1803.03 2022.45 1869.2 2032.85 1869.2C2042.09 1869.2 2046.71 1864.58 2046.71 1855.33L2046.71 1816.66C2046.71 1807.58 2042.09 1803.03 2032.85 1803.03ZM2606.06 1779.98 2633.28 1779.98 2633.28 1801.3 2606.06 1801.3ZM2087.04 1779.98 2119.96 1779.98 2138.27 1874.66 2138.52 1874.66 2154.85 1779.98 2190.49 1779.98 2190.49 1948.02 2164.75 1948.02 2164.75 1838.97 2164.01 1838.97 2144.95 1948.02 2131.84 1948.02 2110.8 1838.97 2110.31 1838.97 2110.31 1948.02 2087.04 1948.02ZM1994.24 1779.98 2036.06 1779.98C2050.25 1779.98 2060.28 1783.33 2066.13 1790.02 2071.99 1796.71 2074.92 1805.92 2074.92 1817.65L2074.92 1853.1C2074.92 1864.83 2071.99 1874.08 2066.13 1880.85 2060.28 1887.63 2050.25 1891.01 2036.06 1891.01L2022.45 1891.01 2022.45 1948.02 1994.24 1948.02ZM1898 1779.98 1926.21 1779.98 1926.21 1853.84 1956.9 1779.98 1984.62 1779.98 1951.95 1855.57 1985.36 1948.02 1955.66 1948.02 1926.21 1866.23 1926.21 1948.02 1898 1948.02ZM2366.53 1778C2374.28 1778 2380.76 1779.03 2385.95 1781.1 2391.15 1783.16 2395.28 1786.05 2398.33 1789.77 2401.38 1793.49 2403.57 1797.95 2404.89 1803.16 2406.21 1808.36 2406.87 1814.02 2406.87 1820.13L2406.87 1835 2381.13 1835 2381.13 1817.9C2381.13 1812.61 2380.06 1808.57 2377.91 1805.76 2375.77 1802.95 2372.14 1801.54 2367.02 1801.54 2361.91 1801.54 2358.2 1803.16 2355.89 1806.38 2353.58 1809.6 2352.42 1813.77 2352.42 1818.89L2352.42 1909.11C2352.42 1914.23 2353.54 1918.4 2355.76 1921.62 2357.99 1924.84 2361.5 1926.46 2366.28 1926.46 2375.52 1926.46 2380.14 1921.09 2380.14 1910.35L2380.14 1880.61 2366.78 1880.61 2366.78 1858.3 2406.87 1858.3 2406.87 1948.02 2386.57 1948.02 2386.57 1929.68C2384.76 1935.96 2381.75 1940.91 2377.54 1944.55 2373.33 1948.18 2367.35 1950 2359.6 1950 2353.49 1950 2348.21 1948.84 2343.76 1946.53 2339.31 1944.22 2335.63 1941.04 2332.75 1936.99 2329.86 1932.94 2327.72 1928.15 2326.31 1922.61 2324.91 1917.08 2324.21 1911.09 2324.21 1904.65L2324.21 1823.35C2324.21 1816.75 2325.03 1810.67 2326.68 1805.14 2328.33 1799.6 2330.85 1794.81 2334.23 1790.76 2337.61 1786.72 2341.99 1783.58 2347.35 1781.35 2352.71 1779.12 2359.1 1778 2366.53 1778ZM2246.23 1778C2253.98 1778 2260.46 1779.03 2265.65 1781.1 2270.85 1783.16 2274.98 1786.05 2278.03 1789.77 2281.08 1793.49 2283.27 1797.95 2284.59 1803.16 2285.91 1808.36 2286.57 1814.02 2286.57 1820.13L2286.57 1835 2260.83 1835 2260.83 1817.9C2260.83 1812.61 2259.76 1808.57 2257.61 1805.76 2255.47 1802.95 2251.84 1801.54 2246.72 1801.54 2241.61 1801.54 2237.9 1803.16 2235.59 1806.38 2233.28 1809.6 2232.12 1813.77 2232.12 1818.89L2232.12 1909.11C2232.12 1914.23 2233.23 1918.4 2235.46 1921.62 2237.69 1924.84 2241.19 1926.46 2245.98 1926.46 2255.22 1926.46 2259.84 1921.09 2259.84 1910.35L2259.84 1880.61 2246.47 1880.61 2246.47 1858.3 2286.57 1858.3 2286.57 1948.02 2266.27 1948.02 2266.27 1929.68C2264.46 1935.96 2261.45 1940.91 2257.24 1944.55 2253.03 1948.18 2247.05 1950 2239.3 1950 2233.19 1950 2227.91 1948.84 2223.46 1946.53 2219 1944.22 2215.33 1941.04 2212.45 1936.99 2209.56 1932.94 2207.41 1928.15 2206.01 1922.61 2204.61 1917.08 2203.91 1911.09 2203.91 1904.65L2203.91 1823.35C2203.91 1816.75 2204.73 1810.67 2206.38 1805.14 2208.03 1799.6 2210.55 1794.81 2213.93 1790.76 2217.31 1786.72 2221.69 1783.58 2227.05 1781.35 2232.41 1779.12 2238.8 1778 2246.23 1778Z" fill="#D9D9D9" fill-rule="evenodd"/><path d="M1483.41 1809.83C1481.39 1810.04 1479.38 1810.87 1477.47 1812.55 1473.41 1816.12 1472.66 1822.13 1477.23 1825.66 1486.11 1832.52 1495.33 1838.88 1504.88 1844.74 1508.53 1846.97 1515.22 1851.06 1519.1 1850.96 1523.64 1850.85 1519.82 1843.48 1518.88 1841.87 1513.74 1833.1 1506.36 1825.93 1499.58 1818.46 1495.65 1814.12 1489.47 1809.19 1483.41 1809.83ZM1483.64 1795.2C1492.87 1794.14 1502.35 1794.61 1510.77 1796 1514.35 1796.6 1517.17 1797.36 1519.25 1798.3 1527.49 1802.03 1531.69 1809.77 1531.35 1819.3 1531.11 1825.72 1532.44 1831.97 1535.19 1837.77 1535.25 1837.91 1535.33 1837.91 1535.4 1837.78 1536.93 1835.3 1538.75 1833.04 1540.87 1831.01 1546.35 1825.74 1552.01 1820.68 1557.85 1815.84 1557.91 1815.79 1557.98 1815.78 1558.04 1815.81 1575.41 1824.77 1594.44 1827.7 1613.81 1826.77 1632.76 1825.84 1651.17 1822.24 1669.05 1815.94 1669.19 1815.89 1669.32 1815.91 1669.43 1816 1689.46 1830.74 1715.58 1828.76 1737.4 1819.7 1756.83 1811.64 1777.4 1805.98 1799.32 1800.54 1800.38 1800.28 1801.92 1800.46 1803.08 1800.97 1809.7 1803.88 1816.64 1805.25 1823.92 1805.08 1824.81 1805.06 1826.26 1805.74 1826.89 1806.53 1832.87 1814.05 1813.02 1818.54 1808.88 1819.6 1792.78 1823.74 1777.52 1834.06 1764.01 1843.47 1739.17 1860.77 1714.02 1878.96 1687.82 1892.61 1673.46 1900.1 1658.49 1906.09 1642.92 1910.57 1642.86 1910.59 1642.82 1910.66 1642.84 1910.73 1642.85 1910.76 1642.86 1910.78 1642.89 1910.8 1647 1913.93 1650.94 1917.24 1654.7 1920.75 1657.55 1923.41 1659.69 1926.33 1661.14 1929.51 1664.85 1937.69 1657.57 1941.89 1651.14 1944.09 1640.64 1947.7 1629.35 1948.94 1618.89 1949.83 1616.43 1950.04 1613.93 1950.06 1611.37 1949.87 1602.09 1949.18 1570.75 1946.68 1568.01 1935.27 1566.09 1927.22 1578.99 1917.22 1584.52 1912.8 1584.6 1912.73 1584.61 1912.62 1584.55 1912.54 1584.52 1912.51 1584.49 1912.49 1584.45 1912.48 1573.31 1910.11 1562.65 1905.75 1553.41 1899.19 1545.03 1893.22 1538.11 1887.12 1532.78 1878.13 1532.7 1877.99 1532.59 1877.9 1532.45 1877.84 1528.82 1876.29 1526.92 1877.66 1524.24 1879.9 1517.99 1885.13 1504.21 1881.65 1500.02 1875.07 1497.59 1871.24 1498.34 1866.18 1501.49 1863.07 1503.08 1861.51 1505.18 1860.52 1507.77 1860.11 1507.85 1860.09 1507.9 1860.02 1507.88 1859.95 1507.88 1859.91 1507.86 1859.88 1507.83 1859.86 1504.45 1857.69 1501.47 1856.38 1497.03 1854.5 1487.57 1850.49 1477.78 1847.25 1468.05 1843.99 1464.17 1842.68 1461.45 1841.59 1459.89 1840.7 1452.29 1836.38 1445.91 1827.65 1447.16 1818.44 1448 1812.2 1452.86 1806.86 1457.97 1803.6 1465.42 1798.86 1474.41 1796.26 1483.64 1795.2ZM1613.57 1731.04C1617.52 1730.64 1621.58 1733.15 1624.94 1739.11 1630.28 1748.61 1635.23 1767.15 1627.34 1776.59 1627.25 1776.7 1627.2 1776.82 1627.19 1776.96 1626.95 1780.78 1627.46 1782.99 1630.23 1785.6 1638.64 1793.52 1648.5 1800.22 1657.67 1807.25 1657.83 1807.37 1657.81 1807.46 1657.62 1807.52 1629.75 1816.41 1595.61 1819.29 1568.07 1807.81 1567.9 1807.74 1567.89 1807.65 1568.03 1807.54 1577.37 1799.97 1586.71 1793.31 1596.05 1787.56 1600.08 1785.08 1601.87 1781.52 1601.41 1776.87 1601.4 1776.72 1601.34 1776.58 1601.24 1776.46 1593.62 1767.28 1598.12 1749.93 1602.93 1740.42 1605.81 1734.76 1609.63 1731.44 1613.57 1731.04Z" fill="#D9D9D9" fill-rule="evenodd"/></g></svg>