<svg width="381" height="219" xmlns="http://www.w3.org/2000/svg" xmlns:xlink="http://www.w3.org/1999/xlink" xml:space="preserve" overflow="hidden"><defs><clipPath id="clip0"><rect x="485" y="1373" width="381" height="219"/></clipPath></defs><g clip-path="url(#clip0)" transform="translate(-485 -1373)"><path d="M521.411 1451.83C519.39 1452.04 517.382 1452.87 515.474 1454.55 511.411 1458.12 510.661 1464.13 515.231 1467.66 524.11 1474.52 533.326 1480.88 542.877 1486.74 546.526 1488.97 553.22 1493.06 557.103 1492.96 561.638 1492.85 557.822 1485.48 556.883 1483.87 551.735 1475.1 544.358 1467.93 537.58 1460.46 533.646 1456.12 527.472 1451.19 521.411 1451.83ZM521.641 1437.2C530.874 1436.14 540.352 1436.61 548.774 1438 552.349 1438.6 555.174 1439.36 557.248 1440.3 565.494 1444.03 569.694 1451.77 569.346 1461.3 569.108 1467.72 570.443 1473.97 573.189 1479.77 573.254 1479.91 573.326 1479.91 573.405 1479.78 574.933 1477.3 576.755 1475.04 578.87 1473.01 584.346 1467.74 590.008 1462.68 595.855 1457.84 595.907 1457.79 595.982 1457.78 596.044 1457.81 613.412 1466.77 632.443 1469.7 651.812 1468.77 670.759 1467.84 689.171 1464.24 707.046 1457.94 707.187 1457.89 707.316 1457.91 707.434 1458 727.46 1472.74 753.585 1470.76 775.396 1461.7 794.827 1453.64 815.399 1447.98 837.32 1442.54 838.378 1442.28 839.924 1442.46 841.079 1442.97 847.696 1445.88 854.644 1447.25 861.925 1447.08 862.806 1447.06 864.265 1447.74 864.886 1448.53 870.866 1456.05 851.017 1460.54 846.883 1461.6 830.78 1465.73 815.518 1476.06 802.015 1485.47 777.172 1502.77 752.016 1520.96 725.825 1534.61 711.46 1542.1 696.494 1548.09 680.925 1552.57 680.857 1552.59 680.818 1552.66 680.838 1552.73 680.846 1552.76 680.863 1552.78 680.885 1552.8 685.002 1555.93 688.94 1559.24 692.701 1562.75 695.548 1565.41 697.693 1568.33 699.135 1571.51 702.85 1579.69 695.57 1583.88 689.144 1586.09 678.642 1589.7 667.351 1590.94 656.889 1591.83 654.43 1592.04 651.925 1592.06 649.375 1591.87 640.089 1591.18 608.746 1588.68 606.013 1577.26 604.087 1569.22 616.991 1559.22 622.522 1554.79 622.598 1554.73 622.609 1554.62 622.548 1554.54 622.522 1554.51 622.487 1554.49 622.447 1554.48 611.315 1552.11 600.65 1547.75 591.412 1541.18 583.026 1535.22 576.106 1529.12 570.778 1520.13 570.699 1519.99 570.59 1519.9 570.452 1519.84 566.821 1518.29 564.917 1519.66 562.242 1521.9 555.993 1527.13 542.207 1523.65 538.02 1517.07 535.588 1513.24 536.341 1508.18 539.492 1505.07 541.082 1503.51 543.175 1502.52 545.772 1502.11 545.846 1502.09 545.896 1502.02 545.882 1501.95 545.876 1501.91 545.855 1501.88 545.826 1501.86 542.454 1499.68 539.466 1498.38 535.028 1496.5 525.566 1492.49 515.782 1489.25 506.047 1485.99 502.169 1484.68 499.449 1483.59 497.889 1482.7 490.292 1478.37 483.906 1469.65 485.157 1460.44 486.003 1454.2 490.856 1448.86 495.972 1445.6 503.418 1440.86 512.407 1438.26 521.641 1437.2ZM651.573 1373.04C655.516 1372.64 659.579 1375.15 662.935 1381.11 668.277 1390.61 673.226 1409.15 665.342 1418.59 665.25 1418.7 665.201 1418.82 665.192 1418.96 664.954 1422.78 665.461 1424.99 668.228 1427.6 676.641 1435.52 686.495 1442.22 695.671 1449.25 695.83 1449.37 695.813 1449.46 695.622 1449.52 667.752 1458.41 633.615 1461.29 606.066 1449.81 605.904 1449.74 605.891 1449.65 606.026 1449.54 615.372 1441.97 624.714 1435.31 634.051 1429.56 638.082 1427.08 639.868 1423.52 639.41 1418.87 639.396 1418.71 639.338 1418.58 639.238 1418.46 631.623 1409.28 636.118 1391.93 640.935 1382.42 643.808 1376.76 647.631 1373.44 651.573 1373.04Z" fill="#D9D9D9" fill-rule="evenodd"/></g></svg>