<svg width="381" height="219" xmlns="http://www.w3.org/2000/svg" xmlns:xlink="http://www.w3.org/1999/xlink" xml:space="preserve" overflow="hidden"><defs><clipPath id="clip0"><rect x="821" y="1095" width="381" height="219"/></clipPath></defs><g clip-path="url(#clip0)" transform="translate(-821 -1095)"><path d="M857.411 1173.83C855.39 1174.04 853.382 1174.87 851.473 1176.55 847.41 1180.12 846.661 1186.13 851.231 1189.66 860.11 1196.52 869.325 1202.88 878.877 1208.74 882.526 1210.97 889.22 1215.06 893.103 1214.96 897.638 1214.85 893.821 1207.48 892.883 1205.87 887.735 1197.1 880.358 1189.93 873.58 1182.46 869.646 1178.12 863.472 1173.19 857.411 1173.83ZM857.641 1159.2C866.874 1158.14 876.352 1158.61 884.774 1160 888.349 1160.6 891.174 1161.36 893.248 1162.3 901.494 1166.03 905.694 1173.77 905.346 1183.3 905.108 1189.72 906.443 1195.97 909.189 1201.77 909.254 1201.91 909.326 1201.91 909.405 1201.78 910.933 1199.3 912.754 1197.04 914.87 1195.01 920.346 1189.74 926.008 1184.68 931.855 1179.84 931.907 1179.79 931.982 1179.78 932.044 1179.81 949.412 1188.77 968.443 1191.7 987.812 1190.77 1006.76 1189.84 1025.17 1186.24 1043.05 1179.94 1043.19 1179.89 1043.32 1179.91 1043.43 1180 1063.46 1194.74 1089.58 1192.76 1111.4 1183.7 1130.83 1175.64 1151.4 1169.98 1173.32 1164.54 1174.38 1164.28 1175.92 1164.46 1177.08 1164.97 1183.7 1167.88 1190.64 1169.25 1197.92 1169.08 1198.81 1169.06 1200.26 1169.74 1200.89 1170.53 1206.87 1178.05 1187.02 1182.54 1182.88 1183.6 1166.78 1187.74 1151.52 1198.06 1138.01 1207.47 1113.17 1224.77 1088.02 1242.96 1061.82 1256.61 1047.46 1264.1 1032.49 1270.09 1016.92 1274.57 1016.86 1274.59 1016.82 1274.66 1016.84 1274.73 1016.85 1274.76 1016.86 1274.78 1016.89 1274.8 1021 1277.93 1024.94 1281.24 1028.7 1284.75 1031.55 1287.41 1033.69 1290.33 1035.14 1293.51 1038.85 1301.69 1031.57 1305.89 1025.14 1308.09 1014.64 1311.7 1003.35 1312.94 992.889 1313.83 990.43 1314.04 987.925 1314.06 985.375 1313.87 976.089 1313.18 944.746 1310.68 942.013 1299.27 940.087 1291.22 952.991 1281.22 958.522 1276.8 958.598 1276.73 958.609 1276.62 958.548 1276.54 958.522 1276.51 958.487 1276.49 958.447 1276.48 947.315 1274.11 936.65 1269.75 927.412 1263.19 919.026 1257.22 912.106 1251.12 906.778 1242.13 906.699 1241.99 906.59 1241.9 906.452 1241.84 902.821 1240.29 900.917 1241.66 898.242 1243.9 891.992 1249.13 878.207 1245.65 874.02 1239.07 871.588 1235.24 872.341 1230.18 875.492 1227.07 877.082 1225.51 879.175 1224.52 881.772 1224.11 881.846 1224.09 881.896 1224.02 881.882 1223.95 881.875 1223.91 881.855 1223.88 881.825 1223.86 878.454 1221.69 875.466 1220.38 871.028 1218.5 861.566 1214.49 851.782 1211.25 842.047 1207.99 838.168 1206.68 835.449 1205.59 833.889 1204.7 826.291 1200.38 819.906 1191.65 821.157 1182.44 822.003 1176.2 826.855 1170.86 831.972 1167.6 839.418 1162.86 848.407 1160.26 857.641 1159.2ZM987.573 1095.04C991.516 1094.64 995.579 1097.15 998.935 1103.11 1004.28 1112.61 1009.23 1131.15 1001.34 1140.59 1001.25 1140.7 1001.2 1140.82 1001.19 1140.96 1000.95 1144.78 1001.46 1146.99 1004.23 1149.6 1012.64 1157.52 1022.5 1164.22 1031.67 1171.25 1031.83 1171.37 1031.81 1171.46 1031.62 1171.52 1003.75 1180.41 969.615 1183.29 942.066 1171.81 941.904 1171.74 941.891 1171.65 942.026 1171.54 951.372 1163.97 960.714 1157.31 970.051 1151.56 974.082 1149.08 975.868 1145.52 975.41 1140.87 975.396 1140.71 975.338 1140.58 975.238 1140.46 967.623 1131.28 972.118 1113.93 976.935 1104.42 979.808 1098.76 983.631 1095.44 987.573 1095.04Z" fill="#595959" fill-rule="evenodd"/></g></svg>