<svg width="381" height="219" xmlns="http://www.w3.org/2000/svg" xmlns:xlink="http://www.w3.org/1999/xlink" xml:space="preserve" overflow="hidden"><defs><clipPath id="clip0"><rect x="104" y="821" width="381" height="219"/></clipPath></defs><g clip-path="url(#clip0)" transform="translate(-104 -821)"><path d="M140.411 899.827C138.39 900.04 136.382 900.872 134.474 902.551 130.411 906.123 129.661 912.134 134.231 915.662 143.11 922.519 152.326 928.877 161.877 934.736 165.526 936.972 172.221 941.061 176.103 940.964 180.638 940.849 176.822 933.475 175.883 931.87 170.735 923.103 163.358 915.931 156.58 908.456 152.646 904.12 146.472 899.188 140.411 899.827ZM140.641 885.199C149.875 884.136 159.352 884.608 167.774 886.004 171.35 886.598 174.174 887.363 176.249 888.301 184.494 892.028 188.694 899.772 188.346 909.303 188.108 915.724 189.444 921.969 192.189 927.773 192.254 927.908 192.326 927.911 192.405 927.782 193.933 925.3 195.755 923.042 197.87 921.008 203.347 915.739 209.008 910.682 214.855 905.836 214.908 905.792 214.983 905.783 215.044 905.814 232.413 914.767 251.443 917.705 270.812 916.765 289.759 915.845 308.171 912.236 326.046 905.938 326.187 905.888 326.316 905.907 326.434 905.995 346.46 920.739 372.585 918.758 394.396 909.704 413.827 901.638 434.399 895.975 456.32 890.537 457.378 890.277 458.925 890.463 460.079 890.97 466.696 893.884 473.644 895.253 480.925 895.08 481.806 895.058 483.265 895.742 483.886 896.527 489.867 904.051 470.017 908.535 465.883 909.598 449.78 913.735 434.518 924.059 421.015 933.466 396.172 950.768 371.016 968.964 344.825 982.614 330.461 990.099 315.494 996.086 299.925 1000.57 299.857 1000.59 299.818 1000.66 299.838 1000.73 299.846 1000.76 299.863 1000.78 299.885 1000.8 304.002 1003.93 307.94 1007.24 311.701 1010.75 314.548 1013.41 316.693 1016.33 318.135 1019.51 321.851 1027.69 314.57 1031.88 308.144 1034.09 297.642 1037.7 286.351 1038.94 275.889 1039.83 273.43 1040.04 270.925 1040.06 268.375 1039.87 259.089 1039.18 227.746 1036.68 225.013 1025.26 223.087 1017.22 235.991 1007.22 241.522 1002.79 241.598 1002.73 241.61 1002.62 241.548 1002.54 241.522 1002.51 241.487 1002.49 241.447 1002.48 230.315 1000.11 219.65 995.752 210.413 989.185 202.026 983.222 195.107 977.123 189.779 968.126 189.699 967.994 189.59 967.898 189.453 967.839 185.821 966.287 183.917 967.659 181.242 969.899 174.993 975.13 161.207 971.65 157.021 965.065 154.588 961.237 155.341 956.179 158.493 953.074 160.082 951.513 162.175 950.524 164.773 950.106 164.847 950.093 164.896 950.021 164.882 949.947 164.876 949.911 164.856 949.88 164.826 949.859 161.454 947.685 158.466 946.375 154.028 944.496 144.566 940.487 134.782 937.255 125.047 933.987 121.169 932.685 118.45 931.589 116.89 930.701 109.292 926.375 102.906 917.651 104.157 908.439 105.004 902.198 109.856 896.862 114.972 893.603 122.418 888.859 131.408 886.262 140.641 885.199ZM270.573 821.041C274.516 820.639 278.579 823.145 281.935 829.112 287.277 838.607 292.226 857.148 284.342 866.59 284.25 866.699 284.201 866.822 284.192 866.96 283.954 870.78 284.461 872.989 287.228 875.596 295.641 883.516 305.496 890.215 314.671 897.245 314.83 897.369 314.813 897.461 314.623 897.523 286.752 906.414 252.615 909.289 225.066 897.805 224.904 897.738 224.891 897.648 225.026 897.536 234.373 889.969 243.714 883.31 253.051 877.563 257.083 875.084 258.869 871.519 258.41 866.868 258.396 866.715 258.338 866.578 258.238 866.458 250.623 857.276 255.118 839.93 259.935 830.422 262.809 824.755 266.631 821.444 270.573 821.041Z" fill="#00338D" fill-rule="evenodd"/></g></svg>