<svg width="381" height="219" xmlns="http://www.w3.org/2000/svg" xmlns:xlink="http://www.w3.org/1999/xlink" xml:space="preserve" overflow="hidden"><defs><clipPath id="clip0"><rect x="812" y="1559" width="381" height="219"/></clipPath></defs><g clip-path="url(#clip0)" transform="translate(-812 -1559)"><path d="M848.411 1637.83C846.39 1638.04 844.382 1638.87 842.473 1640.55 838.41 1644.12 837.661 1650.13 842.231 1653.66 851.11 1660.52 860.326 1666.88 869.877 1672.74 873.526 1674.97 880.22 1679.06 884.103 1678.96 888.638 1678.85 884.822 1671.48 883.883 1669.87 878.735 1661.1 871.358 1653.93 864.58 1646.46 860.646 1642.12 854.472 1637.19 848.411 1637.83ZM848.641 1623.2C857.874 1622.14 867.352 1622.61 875.774 1624 879.349 1624.6 882.174 1625.36 884.248 1626.3 892.494 1630.03 896.694 1637.77 896.346 1647.3 896.108 1653.72 897.443 1659.97 900.189 1665.77 900.254 1665.91 900.326 1665.91 900.405 1665.78 901.933 1663.3 903.755 1661.04 905.87 1659.01 911.346 1653.74 917.008 1648.68 922.855 1643.84 922.907 1643.79 922.983 1643.78 923.044 1643.81 940.413 1652.77 959.443 1655.7 978.812 1654.77 997.759 1653.84 1016.17 1650.24 1034.05 1643.94 1034.19 1643.89 1034.32 1643.91 1034.43 1644 1054.46 1658.74 1080.58 1656.76 1102.4 1647.7 1121.83 1639.64 1142.4 1633.98 1164.32 1628.54 1165.38 1628.28 1166.92 1628.46 1168.08 1628.97 1174.7 1631.88 1181.64 1633.25 1188.92 1633.08 1189.81 1633.06 1191.26 1633.74 1191.89 1634.53 1197.87 1642.05 1178.02 1646.54 1173.88 1647.6 1157.78 1651.73 1142.52 1662.06 1129.01 1671.47 1104.17 1688.77 1079.02 1706.96 1052.82 1720.61 1038.46 1728.1 1023.49 1734.09 1007.92 1738.57 1007.86 1738.59 1007.82 1738.66 1007.84 1738.73 1007.85 1738.76 1007.86 1738.78 1007.89 1738.8 1012 1741.93 1015.94 1745.24 1019.7 1748.75 1022.55 1751.41 1024.69 1754.33 1026.14 1757.51 1029.85 1765.69 1022.57 1769.88 1016.14 1772.09 1005.64 1775.7 994.351 1776.94 983.889 1777.83 981.43 1778.04 978.925 1778.06 976.375 1777.87 967.089 1777.18 935.746 1774.68 933.013 1763.26 931.087 1755.22 943.991 1745.22 949.522 1740.79 949.598 1740.73 949.609 1740.62 949.548 1740.54 949.522 1740.51 949.487 1740.49 949.447 1740.48 938.315 1738.11 927.65 1733.75 918.412 1727.18 910.026 1721.22 903.106 1715.12 897.778 1706.13 897.699 1705.99 897.59 1705.9 897.452 1705.84 893.821 1704.29 891.917 1705.66 889.242 1707.9 882.993 1713.13 869.207 1709.65 865.02 1703.07 862.588 1699.24 863.341 1694.18 866.492 1691.07 868.082 1689.51 870.175 1688.52 872.772 1688.11 872.846 1688.09 872.896 1688.02 872.882 1687.95 872.876 1687.91 872.855 1687.88 872.825 1687.86 869.454 1685.68 866.466 1684.38 862.028 1682.5 852.566 1678.49 842.782 1675.25 833.047 1671.99 829.168 1670.68 826.449 1669.59 824.889 1668.7 817.291 1664.37 810.906 1655.65 812.157 1646.44 813.003 1640.2 817.856 1634.86 822.972 1631.6 830.418 1626.86 839.407 1624.26 848.641 1623.2ZM978.573 1559.04C982.516 1558.64 986.579 1561.15 989.935 1567.11 995.277 1576.61 1000.23 1595.15 992.342 1604.59 992.25 1604.7 992.201 1604.82 992.192 1604.96 991.954 1608.78 992.461 1610.99 995.228 1613.6 1003.64 1621.52 1013.5 1628.22 1022.67 1635.25 1022.83 1635.37 1022.81 1635.46 1022.62 1635.52 994.752 1644.41 960.615 1647.29 933.066 1635.81 932.904 1635.74 932.891 1635.65 933.026 1635.54 942.372 1627.97 951.714 1621.31 961.051 1615.56 965.082 1613.08 966.869 1609.52 966.41 1604.87 966.396 1604.71 966.338 1604.58 966.238 1604.46 958.623 1595.28 963.118 1577.93 967.935 1568.42 970.809 1562.76 974.631 1559.44 978.573 1559.04Z" fill="#FFFFFF" fill-rule="evenodd"/></g></svg>