<svg width="1279" height="219" xmlns="http://www.w3.org/2000/svg" xmlns:xlink="http://www.w3.org/1999/xlink" xml:space="preserve" overflow="hidden"><defs><clipPath id="clip0"><rect x="104" y="446" width="1279" height="219"/></clipPath></defs><g clip-path="url(#clip0)" transform="translate(-104 -446)"><path d="M1344.15 543.772C1339.53 543.772 1336.19 545.21 1334.12 548.085 1332.06 550.959 1331.03 554.778 1331.03 559.542L1331.03 576.051 1356.77 576.051 1356.77 559.542C1356.77 554.778 1355.78 550.959 1353.8 548.085 1351.82 545.21 1348.6 543.772 1344.15 543.772ZM1117.29 543.772C1112.67 543.772 1109.33 545.21 1107.27 548.085 1105.21 550.959 1104.18 554.778 1104.18 559.542L1104.18 576.051 1129.91 576.051 1129.91 559.542C1129.91 554.778 1128.92 550.959 1126.94 548.085 1124.96 545.21 1121.75 543.772 1117.29 543.772ZM1263.06 523.322 1290.28 523.322 1290.28 663.029 1263.06 663.029ZM1344.15 521.35C1357.67 521.35 1367.53 524.964 1373.72 532.192 1379.91 539.419 1383 549.357 1383 562.006L1383 595.762 1331.03 595.762 1331.03 626.809C1331.03 631.572 1332.14 635.391 1334.37 638.266 1336.6 641.14 1340.02 642.578 1344.64 642.578 1349.1 642.578 1352.31 641.182 1354.29 638.389 1356.27 635.597 1357.26 631.737 1357.26 626.809L1357.26 607.836 1383 607.836 1383 624.345C1383 636.993 1379.91 646.931 1373.72 654.158 1367.53 661.386 1357.67 665 1344.15 665 1337.38 665 1331.44 663.973 1326.33 661.92 1321.21 659.867 1317.01 656.951 1313.71 653.173 1310.41 649.395 1307.93 644.919 1306.28 639.744 1304.63 634.57 1303.81 628.862 1303.81 622.62L1303.81 563.731C1303.81 551.082 1307.11 540.857 1313.71 533.054 1320.31 525.252 1330.45 521.35 1344.15 521.35ZM1222.47 521.35C1231.05 521.35 1237.61 524.143 1242.15 529.728 1246.68 535.313 1248.95 544.265 1248.95 556.585L1248.95 663.029 1221.73 663.029 1221.73 557.817C1221.73 553.546 1220.94 550.097 1219.38 547.468 1217.81 544.84 1214.63 543.526 1209.85 543.526 1205.06 543.526 1201.81 544.84 1200.07 547.468 1198.34 550.097 1197.48 553.546 1197.48 557.817L1197.48 663.029 1170.25 663.029 1170.25 523.322 1197.48 523.322 1197.48 537.612 1197.97 537.612C1199.62 533.506 1202.3 529.769 1206.01 526.401 1209.73 523.034 1215.21 521.35 1222.47 521.35ZM1117.29 521.35C1130.82 521.35 1140.68 524.964 1146.87 532.192 1153.05 539.419 1156.15 549.357 1156.15 562.006L1156.15 595.762 1104.18 595.762 1104.18 626.809C1104.18 631.572 1105.29 635.391 1107.52 638.266 1109.75 641.14 1113.17 642.578 1117.79 642.578 1122.24 642.578 1125.46 641.182 1127.44 638.389 1129.42 635.597 1130.41 631.737 1130.41 626.809L1130.41 607.836 1156.15 607.836 1156.15 624.345C1156.15 636.993 1153.05 646.931 1146.87 654.158 1140.68 661.386 1130.82 665 1117.29 665 1110.53 665 1104.59 663.973 1099.48 661.92 1094.36 659.867 1090.15 656.951 1086.85 653.173 1083.55 649.395 1081.08 644.919 1079.43 639.744 1077.78 634.57 1076.95 628.862 1076.95 622.62L1076.95 563.731C1076.95 551.082 1080.25 540.857 1086.85 533.054 1093.45 525.252 1103.6 521.35 1117.29 521.35ZM679.453 518.886 679.453 584.674 689.847 584.674C699.087 584.674 703.706 580.075 703.706 570.876L703.706 532.438C703.706 523.404 699.087 518.886 689.847 518.886ZM1263.06 495.971 1290.28 495.971 1290.28 517.162 1263.06 517.162ZM744.045 495.971 776.959 495.971 795.272 590.095 795.52 590.095 811.853 495.971 847.49 495.971 847.49 663.029 821.752 663.029 821.752 554.614 821.009 554.614 801.954 663.029 788.838 663.029 767.802 554.614 767.307 554.614 767.307 663.029 744.045 663.029ZM651.241 495.971 693.065 495.971C707.253 495.971 717.276 499.298 723.133 505.951 728.99 512.603 731.918 521.761 731.918 533.424L731.918 568.659C731.918 580.321 728.99 589.52 723.133 596.255 717.276 602.99 707.253 606.357 693.065 606.357L679.453 606.357 679.453 663.029 651.241 663.029ZM555 495.971 583.213 495.971 583.213 569.398 613.9 495.971 641.617 495.971 608.95 571.123 642.359 663.029 612.662 663.029 583.213 581.718 583.213 663.029 555 663.029ZM1023.53 494C1031.28 494 1037.76 495.027 1042.95 497.08 1048.15 499.133 1052.28 502.008 1055.33 505.704 1058.38 509.4 1060.57 513.835 1061.89 519.009 1063.21 524.184 1063.87 529.81 1063.87 535.888L1063.87 550.671 1038.13 550.671 1038.13 533.67C1038.13 528.414 1037.06 524.389 1034.91 521.597 1032.77 518.804 1029.14 517.408 1024.02 517.408 1018.91 517.408 1015.2 519.009 1012.89 522.213 1010.58 525.416 1009.42 529.563 1009.42 534.656L1009.42 624.345C1009.42 629.437 1010.54 633.584 1012.76 636.788 1014.99 639.991 1018.5 641.592 1023.28 641.592 1032.52 641.592 1037.14 636.254 1037.14 625.577L1037.14 596.009 1023.78 596.009 1023.78 573.833 1063.87 573.833 1063.87 663.029 1043.57 663.029 1043.57 644.795C1041.76 651.038 1038.75 655.966 1034.54 659.579 1030.33 663.193 1024.35 665 1016.6 665 1010.49 665 1005.21 663.85 1000.76 661.55 996.305 659.251 992.635 656.089 989.747 652.064 986.86 648.04 984.715 643.276 983.313 637.773 981.911 632.27 981.209 626.316 981.209 619.909L981.209 539.091C981.209 532.52 982.034 526.484 983.684 520.981 985.334 515.478 987.85 510.714 991.232 506.69 994.614 502.665 998.986 499.544 1004.35 497.327 1009.71 495.109 1016.1 494 1023.53 494ZM903.227 494C910.981 494 917.457 495.027 922.654 497.08 927.851 499.133 931.976 502.008 935.028 505.704 938.08 509.4 940.266 513.835 941.586 519.009 942.906 524.184 943.566 529.81 943.566 535.888L943.566 550.671 917.828 550.671 917.828 533.67C917.828 528.414 916.756 524.389 914.611 521.597 912.466 518.804 908.836 517.408 903.722 517.408 898.607 517.408 894.895 519.009 892.585 522.213 890.276 525.416 889.121 529.563 889.121 534.656L889.121 624.345C889.121 629.437 890.234 633.584 892.462 636.788 894.689 639.991 898.195 641.592 902.98 641.592 912.219 641.592 916.838 636.254 916.838 625.577L916.838 596.009 903.474 596.009 903.474 573.833 943.566 573.833 943.566 663.029 923.272 663.029 923.272 644.795C921.458 651.038 918.447 655.966 914.239 659.579 910.033 663.193 904.052 665 896.298 665 890.193 665 884.914 663.85 880.459 661.55 876.004 659.251 872.334 656.089 869.447 652.064 866.559 648.04 864.414 643.276 863.012 637.773 861.61 632.27 860.909 626.316 860.909 619.909L860.909 539.091C860.909 532.52 861.734 526.484 863.383 520.981 865.033 515.478 867.549 510.714 870.931 506.69 874.313 502.665 878.686 499.544 884.048 497.327 889.41 495.109 895.802 494 903.227 494Z" fill="#00338D" fill-rule="evenodd"/><path d="M140.411 524.827C138.39 525.04 136.382 525.872 134.474 527.551 130.411 531.123 129.661 537.134 134.231 540.663 143.11 547.519 152.326 553.877 161.877 559.737 165.526 561.973 172.221 566.061 176.103 565.964 180.638 565.849 176.822 558.476 175.883 556.87 170.735 548.103 163.358 540.931 156.58 533.456 152.646 529.12 146.472 524.188 140.411 524.827ZM140.641 510.199C149.875 509.136 159.352 509.608 167.774 511.004 171.35 511.598 174.174 512.363 176.249 513.301 184.494 517.028 188.694 524.773 188.346 534.303 188.108 540.724 189.444 546.969 192.189 552.773 192.254 552.909 192.326 552.911 192.405 552.782 193.933 550.3 195.755 548.042 197.87 546.008 203.347 540.739 209.008 535.682 214.855 530.837 214.908 530.792 214.983 530.783 215.044 530.815 232.413 539.767 251.443 542.705 270.812 541.765 289.759 540.845 308.171 537.236 326.046 530.938 326.187 530.888 326.316 530.907 326.434 530.995 346.46 545.739 372.585 543.759 394.396 534.704 413.827 526.638 434.399 520.976 456.32 515.537 457.378 515.277 458.925 515.463 460.079 515.97 466.696 518.884 473.644 520.253 480.925 520.08 481.806 520.058 483.265 520.742 483.886 521.527 489.867 529.051 470.017 533.536 465.883 534.599 449.78 538.735 434.518 549.06 421.015 558.466 396.172 575.768 371.016 593.964 344.825 607.614 330.461 615.099 315.494 621.086 299.925 625.573 299.857 625.591 299.818 625.663 299.838 625.732 299.846 625.76 299.863 625.784 299.885 625.802 304.002 628.927 307.94 632.244 311.701 635.751 314.548 638.409 316.693 641.327 318.135 644.505 321.851 652.686 314.57 656.885 308.144 659.09 297.642 662.702 286.351 663.941 275.889 664.832 273.43 665.044 270.925 665.056 268.375 664.867 259.089 664.179 227.746 661.679 225.013 650.265 223.087 642.221 235.991 632.219 241.522 627.795 241.598 627.731 241.61 627.618 241.548 627.542 241.522 627.511 241.487 627.489 241.447 627.482 230.315 625.114 219.65 620.752 210.413 614.185 202.026 608.223 195.107 602.123 189.779 593.126 189.699 592.994 189.59 592.899 189.453 592.84 185.821 591.287 183.917 592.659 181.242 594.9 174.993 600.13 161.207 596.65 157.021 590.066 154.588 586.238 155.341 581.179 158.493 578.074 160.082 576.513 162.175 575.524 164.773 575.106 164.847 575.093 164.896 575.021 164.882 574.947 164.876 574.912 164.856 574.88 164.826 574.859 161.454 572.685 158.466 571.375 154.028 569.497 144.566 565.488 134.782 562.255 125.047 558.987 121.169 557.685 118.45 556.589 116.89 555.701 109.292 551.375 102.906 542.652 104.157 533.439 105.004 527.198 109.856 521.862 114.972 518.603 122.418 513.859 131.408 511.262 140.641 510.199ZM270.573 446.041C274.516 445.639 278.579 448.145 281.935 454.112 287.277 463.607 292.226 482.148 284.342 491.59 284.25 491.699 284.201 491.823 284.192 491.96 283.954 495.78 284.461 497.989 287.228 500.596 295.641 508.516 305.496 515.215 314.671 522.245 314.83 522.369 314.813 522.462 314.623 522.523 286.752 531.414 252.615 534.29 225.066 522.805 224.904 522.738 224.891 522.648 225.026 522.537 234.373 514.969 243.714 508.311 253.051 502.563 257.083 500.084 258.869 496.519 258.41 491.868 258.396 491.715 258.338 491.578 258.238 491.458 250.623 482.276 255.118 464.93 259.935 455.422 262.809 449.755 266.631 446.444 270.573 446.041Z" fill="#00338D" fill-rule="evenodd"/></g></svg>