<svg width="2546" height="531" xmlns="http://www.w3.org/2000/svg" xmlns:xlink="http://www.w3.org/1999/xlink" xml:space="preserve" overflow="hidden"><defs><clipPath id="clip0"><rect x="346" y="302" width="2546" height="531"/></clipPath></defs><g clip-path="url(#clip0)" transform="translate(-346 -302)"><text fill="#00338D" font-family="KPMG Bold,KPMG Bold_MSFontService,sans-serif" font-weight="700" font-size="248" transform="matrix(1 0 0 1 811.372 640)">KPMG Genie<tspan font-family="KPMG Light,KPMG Light_MSFontService,sans-serif" font-style="italic" font-weight="300" font-size="110" x="0" y="112">GenAI Assisted Data Analytics</tspan></text><path d="M500.362 461.808C492.733 452.555 497.236 435.076 502.061 425.495 507.818 414.073 517.376 412.149 524.099 424.175 529.45 433.743 534.408 452.426 526.51 461.941 526.419 462.051 526.369 462.175 526.36 462.314 526.121 466.163 526.629 468.39 529.402 471.016 537.829 478.998 547.7 485.748 556.892 492.832 557.051 492.957 557.034 493.05 556.843 493.112 528.925 502.072 494.729 504.969 467.132 493.397 466.97 493.329 466.957 493.238 467.093 493.126 476.455 485.5 485.812 478.79 495.166 472.998 499.204 470.501 500.993 466.908 500.534 462.221 500.519 462.067 500.462 461.929 500.362 461.808Z" fill="#00338D" fill-rule="evenodd"/><path d="M406.826 545.08C403.454 542.912 400.466 541.605 396.028 539.731 386.566 535.732 376.783 532.507 367.047 529.247 363.169 527.948 360.45 526.855 358.89 525.97 351.292 521.654 344.906 512.952 346.158 503.761 347.004 497.536 351.856 492.213 356.973 488.962 371.864 479.499 392.93 478.597 409.774 481.382 413.35 481.974 416.175 482.738 418.249 483.674 426.495 487.391 430.695 495.117 430.346 504.624 430.108 511.029 431.444 517.259 434.189 523.048 434.254 523.183 434.326 523.186 434.405 523.057 435.933 520.582 437.755 518.329 439.87 516.3 445.347 511.044 451.008 505.999 456.855 501.166 456.908 501.121 456.983 501.112 457.045 501.144 474.413 510.075 493.443 513.005 512.812 512.068 531.759 511.149 550.171 507.549 568.046 501.267 568.187 501.217 568.316 501.236 568.434 501.324 588.46 516.031 614.585 514.056 636.396 505.024 655.826 496.978 676.399 491.329 698.32 485.904 699.377 485.645 700.924 485.83 702.079 486.335 708.695 489.242 715.644 490.609 722.924 490.436 723.806 490.414 725.265 491.096 725.886 491.879 731.866 499.384 712.017 503.858 707.883 504.918 691.779 509.045 676.518 519.344 663.014 528.728 638.172 545.987 613.016 564.139 586.825 577.755 572.461 585.222 557.494 591.193 541.925 595.669 541.857 595.687 541.818 595.759 541.838 595.829 541.846 595.856 541.863 595.88 541.885 595.898 546.002 599.016 549.94 602.324 553.701 605.823 556.548 608.474 558.693 611.385 560.135 614.555 563.85 622.716 556.57 626.905 550.144 629.104 539.642 632.707 528.351 633.944 517.889 634.832 515.43 635.043 512.925 635.055 510.375 634.867 501.089 634.181 469.746 631.687 467.013 620.301 465.087 612.277 477.991 602.299 483.522 597.886 483.598 597.822 483.61 597.709 483.548 597.634 483.522 597.602 483.487 597.581 483.447 597.574 472.315 595.211 461.65 590.86 452.413 584.31 444.026 578.362 437.107 572.277 431.779 563.303 431.699 563.171 431.591 563.075 431.453 563.017 427.821 561.468 425.917 562.836 423.242 565.071 416.993 570.289 403.208 566.818 399.021 560.25 396.588 556.431 397.342 551.385 400.493 548.288 402.082 546.73 404.176 545.743 406.773 545.327 406.847 545.313 406.896 545.242 406.883 545.168 406.876 545.132 406.856 545.101 406.826 545.08ZM398.58 503.779C393.336 498.011 384.107 491.188 376.474 497.888 372.411 501.452 371.662 507.448 376.232 510.968 385.111 517.807 394.326 524.149 403.877 529.995 407.526 532.225 414.221 536.304 418.103 536.207 422.638 536.092 418.822 528.737 417.883 527.135 412.736 518.389 405.358 511.236 398.58 503.779Z" fill="#00338D" fill-rule="evenodd"/></g></svg>