<svg width="2546" height="521" xmlns="http://www.w3.org/2000/svg" xmlns:xlink="http://www.w3.org/1999/xlink" xml:space="preserve" overflow="hidden"><defs><clipPath id="clip0"><rect x="346" y="849" width="2546" height="521"/></clipPath></defs><g clip-path="url(#clip0)" transform="translate(-346 -849)"><text fill="#00338D" font-family="KPMG Bold,KPMG Bold_MSFontService,sans-serif" font-weight="700" font-size="248" transform="matrix(1 0 0 1 811.372 1187)">KPMG Genie</text><path d="M500.362 1008.27C492.733 999.125 497.236 981.852 502.061 972.383 507.818 961.096 517.376 959.194 524.099 971.078 529.45 980.534 534.408 998.998 526.51 1008.4 526.419 1008.51 526.369 1008.63 526.36 1008.77 526.121 1012.57 526.629 1014.77 529.402 1017.37 537.829 1025.26 547.7 1031.93 556.892 1038.93 557.051 1039.05 557.034 1039.14 556.843 1039.21 528.925 1048.06 494.729 1050.92 467.132 1039.49 466.97 1039.42 466.957 1039.33 467.093 1039.22 476.455 1031.68 485.812 1025.05 495.166 1019.33 499.204 1016.86 500.993 1013.31 500.534 1008.68 500.519 1008.52 500.462 1008.39 500.362 1008.27Z" fill="#00338D" fill-rule="evenodd"/><path d="M406.826 1092.08C403.454 1089.91 400.466 1088.61 396.028 1086.73 386.566 1082.73 376.783 1079.51 367.047 1076.25 363.169 1074.95 360.45 1073.86 358.89 1072.97 351.292 1068.65 344.906 1059.95 346.158 1050.76 347.004 1044.54 351.856 1039.21 356.973 1035.96 371.864 1026.5 392.93 1025.6 409.774 1028.38 413.35 1028.97 416.175 1029.74 418.249 1030.67 426.495 1034.39 430.695 1042.12 430.346 1051.62 430.108 1058.03 431.444 1064.26 434.189 1070.05 434.254 1070.18 434.326 1070.19 434.405 1070.06 435.933 1067.58 437.755 1065.33 439.87 1063.3 445.347 1058.04 451.008 1053 456.855 1048.17 456.908 1048.12 456.983 1048.11 457.045 1048.14 474.413 1057.07 493.443 1060 512.812 1059.07 531.759 1058.15 550.171 1054.55 568.046 1048.27 568.187 1048.22 568.316 1048.24 568.434 1048.32 588.46 1063.03 614.585 1061.06 636.396 1052.02 655.826 1043.98 676.399 1038.33 698.32 1032.9 699.377 1032.65 700.924 1032.83 702.079 1033.34 708.695 1036.24 715.644 1037.61 722.924 1037.44 723.806 1037.41 725.265 1038.1 725.886 1038.88 731.866 1046.38 712.017 1050.86 707.883 1051.92 691.779 1056.05 676.518 1066.34 663.014 1075.73 638.172 1092.99 613.016 1111.14 586.825 1124.75 572.461 1132.22 557.494 1138.19 541.925 1142.67 541.857 1142.69 541.818 1142.76 541.838 1142.83 541.846 1142.86 541.863 1142.88 541.885 1142.9 546.002 1146.02 549.94 1149.32 553.701 1152.82 556.548 1155.47 558.693 1158.39 560.135 1161.56 563.85 1169.72 556.57 1173.9 550.144 1176.1 539.642 1179.71 528.351 1180.94 517.889 1181.83 515.43 1182.04 512.925 1182.06 510.375 1181.87 501.089 1181.18 469.746 1178.69 467.013 1167.3 465.087 1159.28 477.991 1149.3 483.522 1144.89 483.598 1144.82 483.61 1144.71 483.548 1144.63 483.522 1144.6 483.487 1144.58 483.447 1144.57 472.315 1142.21 461.65 1137.86 452.413 1131.31 444.026 1125.36 437.107 1119.28 431.779 1110.3 431.699 1110.17 431.591 1110.08 431.453 1110.02 427.821 1108.47 425.917 1109.84 423.242 1112.07 416.993 1117.29 403.208 1113.82 399.021 1107.25 396.588 1103.43 397.342 1098.39 400.493 1095.29 402.082 1093.73 404.176 1092.74 406.773 1092.33 406.847 1092.31 406.896 1092.24 406.883 1092.17 406.876 1092.13 406.856 1092.1 406.826 1092.08ZM398.58 1050.78C393.336 1045.01 384.107 1038.19 376.474 1044.89 372.411 1048.45 371.662 1054.45 376.232 1057.97 385.111 1064.81 394.326 1071.15 403.877 1077 407.526 1079.23 414.221 1083.3 418.103 1083.21 422.638 1083.09 418.822 1075.74 417.883 1074.14 412.736 1065.39 405.358 1058.24 398.58 1050.78Z" fill="#00338D" fill-rule="evenodd"/></g></svg>