<svg width="2547" height="530" xmlns="http://www.w3.org/2000/svg" xmlns:xlink="http://www.w3.org/1999/xlink" xml:space="preserve" overflow="hidden"><defs><clipPath id="clip0"><rect x="2465" y="1281" width="2547" height="530"/></clipPath></defs><g clip-path="url(#clip0)" transform="translate(-2465 -1281)"><text fill="#FFFFFF" font-family="KPMG Bold,KPMG Bold_MSFontService,sans-serif" font-weight="700" font-size="248" transform="matrix(1 0 0 1 2930.71 1618)">KPMG Genie<tspan font-family="KPMG Light,KPMG Light_MSFontService,sans-serif" font-style="italic" font-weight="300" font-size="110" x="0" y="112">GenAI Assisted Data Analytics</tspan></text><path d="M2619.36 1440.27C2611.73 1431.12 2616.24 1413.85 2621.06 1404.38 2626.82 1393.1 2636.38 1391.19 2643.1 1403.08 2648.45 1412.53 2653.41 1431 2645.51 1440.4 2645.42 1440.51 2645.37 1440.63 2645.36 1440.77 2645.12 1444.57 2645.63 1446.77 2648.4 1449.37 2656.83 1457.26 2666.7 1463.93 2675.89 1470.93 2676.05 1471.05 2676.03 1471.14 2675.84 1471.21 2647.92 1480.06 2613.73 1482.92 2586.13 1471.49 2585.97 1471.42 2585.96 1471.33 2586.09 1471.22 2595.45 1463.68 2604.81 1457.05 2614.17 1451.33 2618.2 1448.86 2619.99 1445.31 2619.53 1440.68 2619.52 1440.53 2619.46 1440.39 2619.36 1440.27Z" fill="#00338D" fill-rule="evenodd"/><path d="M2525.83 1523.5C2522.45 1521.32 2519.47 1520 2515.03 1518.12 2505.57 1514.09 2495.78 1510.85 2486.05 1507.56 2482.17 1506.26 2479.45 1505.16 2477.89 1504.27 2470.29 1499.92 2463.91 1491.16 2465.16 1481.91 2466 1475.65 2470.86 1470.29 2475.97 1467.02 2490.86 1457.5 2511.93 1456.59 2528.77 1459.39 2532.35 1459.99 2535.17 1460.76 2537.25 1461.7 2545.49 1465.44 2549.69 1473.21 2549.35 1482.78 2549.11 1489.23 2550.44 1495.5 2553.19 1501.33 2553.25 1501.46 2553.33 1501.46 2553.41 1501.33 2554.93 1498.84 2556.75 1496.58 2558.87 1494.53 2564.35 1489.24 2570.01 1484.17 2575.85 1479.3 2575.91 1479.26 2575.98 1479.25 2576.04 1479.28 2593.41 1488.27 2612.44 1491.22 2631.81 1490.27 2650.76 1489.35 2669.17 1485.73 2687.05 1479.4 2687.19 1479.35 2687.32 1479.37 2687.43 1479.46 2707.46 1494.26 2733.58 1492.28 2755.4 1483.19 2774.83 1475.09 2795.4 1469.4 2817.32 1463.94 2818.38 1463.68 2819.92 1463.87 2821.08 1464.38 2827.7 1467.3 2834.64 1468.68 2841.92 1468.5 2842.81 1468.48 2844.26 1469.17 2844.89 1469.96 2850.87 1477.51 2831.02 1482.01 2826.88 1483.08 2810.78 1487.23 2795.52 1497.6 2782.01 1507.04 2757.17 1524.41 2732.02 1542.68 2705.82 1556.39 2691.46 1563.9 2676.49 1569.91 2660.93 1574.42 2660.86 1574.43 2660.82 1574.51 2660.84 1574.58 2660.85 1574.6 2660.86 1574.63 2660.89 1574.65 2665 1577.78 2668.94 1581.11 2672.7 1584.63 2675.55 1587.3 2677.69 1590.23 2679.14 1593.42 2682.85 1601.64 2675.57 1605.85 2669.14 1608.07 2658.64 1611.69 2647.35 1612.94 2636.89 1613.83 2634.43 1614.04 2631.93 1614.06 2629.37 1613.87 2620.09 1613.18 2588.75 1610.67 2586.01 1599.21 2584.09 1591.13 2596.99 1581.09 2602.52 1576.65 2602.6 1576.58 2602.61 1576.47 2602.55 1576.39 2602.52 1576.36 2602.49 1576.34 2602.45 1576.33 2591.31 1573.95 2580.65 1569.58 2571.41 1562.98 2563.03 1557 2556.11 1550.87 2550.78 1541.84 2550.7 1541.71 2550.59 1541.61 2550.45 1541.55 2546.82 1539.99 2544.92 1541.37 2542.24 1543.62 2535.99 1548.87 2522.21 1545.38 2518.02 1538.77 2515.59 1534.92 2516.34 1529.85 2519.49 1526.73 2521.08 1525.16 2523.18 1524.17 2525.77 1523.75 2525.85 1523.73 2525.9 1523.66 2525.88 1523.59 2525.88 1523.55 2525.86 1523.52 2525.83 1523.5ZM2517.58 1481.93C2512.34 1476.13 2503.11 1469.26 2495.47 1476 2491.41 1479.59 2490.66 1485.63 2495.23 1489.17 2504.11 1496.05 2513.33 1502.43 2522.88 1508.32 2526.53 1510.56 2533.22 1514.67 2537.1 1514.57 2541.64 1514.45 2537.82 1507.05 2536.88 1505.44 2531.74 1496.64 2524.36 1489.44 2517.58 1481.93Z" fill="#00338D" fill-rule="evenodd"/></g></svg>