<svg width="2547" height="521" xmlns="http://www.w3.org/2000/svg" xmlns:xlink="http://www.w3.org/1999/xlink" xml:space="preserve" overflow="hidden"><defs><clipPath id="clip0"><rect x="2465" y="1827" width="2547" height="521"/></clipPath></defs><g clip-path="url(#clip0)" transform="translate(-2465 -1827)"><text fill="#FFFFFF" font-family="KPMG Bold,KPMG Bold_MSFontService,sans-serif" font-weight="700" font-size="248" transform="matrix(1 0 0 1 2930.71 2165)">KPMG Genie</text><path d="M2619.36 1986.81C2611.73 1977.56 2616.24 1960.08 2621.06 1950.49 2626.82 1939.07 2636.38 1937.15 2643.1 1949.17 2648.45 1958.74 2653.41 1977.43 2645.51 1986.94 2645.42 1987.05 2645.37 1987.18 2645.36 1987.31 2645.12 1991.16 2645.63 1993.39 2648.4 1996.02 2656.83 2004 2666.7 2010.75 2675.89 2017.83 2676.05 2017.96 2676.03 2018.05 2675.84 2018.11 2647.92 2027.07 2613.73 2029.97 2586.13 2018.4 2585.97 2018.33 2585.96 2018.24 2586.09 2018.13 2595.45 2010.5 2604.81 2003.79 2614.17 1998 2618.2 1995.5 2619.99 1991.91 2619.53 1987.22 2619.52 1987.07 2619.46 1986.93 2619.36 1986.81Z" fill="#00338D" fill-rule="evenodd"/><path d="M2525.83 2070.08C2522.45 2067.91 2519.47 2066.61 2515.03 2064.73 2505.57 2060.73 2495.78 2057.51 2486.05 2054.25 2482.17 2052.95 2479.45 2051.86 2477.89 2050.97 2470.29 2046.65 2463.91 2037.95 2465.16 2028.76 2466 2022.54 2470.86 2017.21 2475.97 2013.96 2490.86 2004.5 2511.93 2003.6 2528.77 2006.38 2532.35 2006.97 2535.17 2007.74 2537.25 2008.67 2545.49 2012.39 2549.69 2020.12 2549.35 2029.62 2549.11 2036.03 2550.44 2042.26 2553.19 2048.05 2553.25 2048.18 2553.33 2048.19 2553.41 2048.06 2554.93 2045.58 2556.75 2043.33 2558.87 2041.3 2564.35 2036.04 2570.01 2031 2575.85 2026.17 2575.91 2026.12 2575.98 2026.11 2576.04 2026.14 2593.41 2035.07 2612.44 2038 2631.81 2037.07 2650.76 2036.15 2669.17 2032.55 2687.05 2026.27 2687.19 2026.22 2687.32 2026.24 2687.43 2026.32 2707.46 2041.03 2733.58 2039.06 2755.4 2030.02 2774.83 2021.98 2795.4 2016.33 2817.32 2010.9 2818.38 2010.65 2819.92 2010.83 2821.08 2011.34 2827.7 2014.24 2834.64 2015.61 2841.92 2015.44 2842.81 2015.41 2844.26 2016.1 2844.89 2016.88 2850.87 2024.38 2831.02 2028.86 2826.88 2029.92 2810.78 2034.05 2795.52 2044.34 2782.01 2053.73 2757.17 2070.99 2732.02 2089.14 2705.82 2102.75 2691.46 2110.22 2676.49 2116.19 2660.93 2120.67 2660.86 2120.69 2660.82 2120.76 2660.84 2120.83 2660.85 2120.86 2660.86 2120.88 2660.89 2120.9 2665 2124.02 2668.94 2127.32 2672.7 2130.82 2675.55 2133.47 2677.69 2136.39 2679.14 2139.56 2682.85 2147.72 2675.57 2151.9 2669.14 2154.1 2658.64 2157.71 2647.35 2158.94 2636.89 2159.83 2634.43 2160.04 2631.93 2160.06 2629.37 2159.87 2620.09 2159.18 2588.75 2156.69 2586.01 2145.3 2584.09 2137.28 2596.99 2127.3 2602.52 2122.89 2602.6 2122.82 2602.61 2122.71 2602.55 2122.63 2602.52 2122.6 2602.49 2122.58 2602.45 2122.57 2591.31 2120.21 2580.65 2115.86 2571.41 2109.31 2563.03 2103.36 2556.11 2097.28 2550.78 2088.3 2550.7 2088.17 2550.59 2088.08 2550.45 2088.02 2546.82 2086.47 2544.92 2087.84 2542.24 2090.07 2535.99 2095.29 2522.21 2091.82 2518.02 2085.25 2515.59 2081.43 2516.34 2076.39 2519.49 2073.29 2521.08 2071.73 2523.18 2070.74 2525.77 2070.33 2525.85 2070.31 2525.9 2070.24 2525.88 2070.17 2525.88 2070.13 2525.86 2070.1 2525.83 2070.08ZM2517.58 2028.78C2512.34 2023.01 2503.11 2016.19 2495.47 2022.89 2491.41 2026.45 2490.66 2032.45 2495.23 2035.97 2504.11 2042.81 2513.33 2049.15 2522.88 2055 2526.53 2057.23 2533.22 2061.3 2537.1 2061.21 2541.64 2061.09 2537.82 2053.74 2536.88 2052.14 2531.74 2043.39 2524.36 2036.24 2517.58 2028.78Z" fill="#00338D" fill-rule="evenodd"/></g></svg>