<svg width="2547" height="531" xmlns="http://www.w3.org/2000/svg" xmlns:xlink="http://www.w3.org/1999/xlink" xml:space="preserve" overflow="hidden"><defs><clipPath id="clip0"><rect x="2781" y="302" width="2547" height="531"/></clipPath></defs><g clip-path="url(#clip0)" transform="translate(-2781 -302)"><text fill="#FFFFFF" font-family="KPMG Bold,KPMG Bold_MSFontService,sans-serif" font-weight="700" font-size="248" transform="matrix(1 0 0 1 3246.78 640)">KPMG Genie<tspan font-family="KPMG Light,KPMG Light_MSFontService,sans-serif" font-style="italic" font-weight="300" font-size="110" x="0" y="112">GenAI Assisted Data Analytics</tspan></text><path d="M2935.36 461.808C2927.73 452.555 2932.24 435.076 2937.06 425.495 2942.82 414.073 2952.38 412.149 2959.1 424.175 2964.45 433.743 2969.41 452.426 2961.51 461.941 2961.42 462.051 2961.37 462.175 2961.36 462.314 2961.12 466.163 2961.63 468.39 2964.4 471.016 2972.83 478.998 2982.7 485.748 2991.89 492.832 2992.05 492.957 2992.03 493.05 2991.84 493.112 2963.92 502.072 2929.73 504.969 2902.13 493.397 2901.97 493.329 2901.96 493.238 2902.09 493.126 2911.45 485.5 2920.81 478.79 2930.17 472.998 2934.2 470.501 2935.99 466.908 2935.53 462.221 2935.52 462.067 2935.46 461.929 2935.36 461.808Z" fill="#FFFFFF" fill-rule="evenodd"/><path d="M2841.83 545.08C2838.45 542.912 2835.47 541.605 2831.03 539.731 2821.57 535.732 2811.78 532.507 2802.05 529.247 2798.17 527.948 2795.45 526.855 2793.89 525.97 2786.29 521.654 2779.91 512.952 2781.16 503.761 2782 497.536 2786.86 492.213 2791.97 488.962 2806.86 479.499 2827.93 478.597 2844.77 481.382 2848.35 481.974 2851.17 482.738 2853.25 483.674 2861.49 487.391 2865.69 495.117 2865.35 504.624 2865.11 511.029 2866.44 517.259 2869.19 523.048 2869.25 523.183 2869.33 523.186 2869.41 523.057 2870.93 520.582 2872.75 518.329 2874.87 516.3 2880.35 511.044 2886.01 505.999 2891.85 501.166 2891.91 501.121 2891.98 501.112 2892.04 501.144 2909.41 510.075 2928.44 513.005 2947.81 512.068 2966.76 511.149 2985.17 507.549 3003.05 501.267 3003.19 501.217 3003.32 501.236 3003.43 501.324 3023.46 516.031 3049.58 514.056 3071.4 505.024 3090.83 496.978 3111.4 491.329 3133.32 485.904 3134.38 485.645 3135.92 485.83 3137.08 486.335 3143.7 489.242 3150.64 490.609 3157.92 490.436 3158.81 490.414 3160.26 491.096 3160.89 491.879 3166.87 499.384 3147.02 503.858 3142.88 504.918 3126.78 509.045 3111.52 519.344 3098.01 528.728 3073.17 545.987 3048.02 564.139 3021.82 577.755 3007.46 585.222 2992.49 591.193 2976.93 595.669 2976.86 595.687 2976.82 595.759 2976.84 595.829 2976.85 595.856 2976.86 595.88 2976.89 595.898 2981 599.016 2984.94 602.324 2988.7 605.823 2991.55 608.474 2993.69 611.385 2995.14 614.555 2998.85 622.716 2991.57 626.905 2985.14 629.104 2974.64 632.707 2963.35 633.944 2952.89 634.832 2950.43 635.043 2947.93 635.055 2945.37 634.867 2936.09 634.181 2904.75 631.687 2902.01 620.301 2900.09 612.277 2912.99 602.299 2918.52 597.886 2918.6 597.822 2918.61 597.709 2918.55 597.634 2918.52 597.602 2918.49 597.581 2918.45 597.574 2907.32 595.211 2896.65 590.86 2887.41 584.31 2879.03 578.362 2872.11 572.277 2866.78 563.303 2866.7 563.171 2866.59 563.075 2866.45 563.017 2862.82 561.468 2860.92 562.836 2858.24 565.071 2851.99 570.289 2838.21 566.818 2834.02 560.25 2831.59 556.431 2832.34 551.385 2835.49 548.288 2837.08 546.73 2839.18 545.743 2841.77 545.327 2841.85 545.313 2841.9 545.242 2841.88 545.168 2841.88 545.132 2841.86 545.101 2841.83 545.08ZM2833.58 503.779C2828.34 498.011 2819.11 491.188 2811.47 497.888 2807.41 501.452 2806.66 507.448 2811.23 510.968 2820.11 517.807 2829.33 524.149 2838.88 529.995 2842.53 532.225 2849.22 536.304 2853.1 536.207 2857.64 536.092 2853.82 528.737 2852.88 527.135 2847.74 518.389 2840.36 511.236 2833.58 503.779Z" fill="#FFFFFF" fill-rule="evenodd"/></g></svg>