<svg width="2547" height="521" xmlns="http://www.w3.org/2000/svg" xmlns:xlink="http://www.w3.org/1999/xlink" xml:space="preserve" overflow="hidden"><defs><clipPath id="clip0"><rect x="2781" y="849" width="2547" height="521"/></clipPath></defs><g clip-path="url(#clip0)" transform="translate(-2781 -849)"><text fill="#FFFFFF" font-family="KPMG Bold,KPMG Bold_MSFontService,sans-serif" font-weight="700" font-size="248" transform="matrix(1 0 0 1 3246.78 1187)">KPMG Genie</text><path d="M2935.36 1008.27C2927.73 999.125 2932.24 981.852 2937.06 972.383 2942.82 961.096 2952.38 959.194 2959.1 971.078 2964.45 980.534 2969.41 998.998 2961.51 1008.4 2961.42 1008.51 2961.37 1008.63 2961.36 1008.77 2961.12 1012.57 2961.63 1014.77 2964.4 1017.37 2972.83 1025.26 2982.7 1031.93 2991.89 1038.93 2992.05 1039.05 2992.03 1039.14 2991.84 1039.21 2963.92 1048.06 2929.73 1050.92 2902.13 1039.49 2901.97 1039.42 2901.96 1039.33 2902.09 1039.22 2911.45 1031.68 2920.81 1025.05 2930.17 1019.33 2934.2 1016.86 2935.99 1013.31 2935.53 1008.68 2935.52 1008.52 2935.46 1008.39 2935.36 1008.27Z" fill="#FFFFFF" fill-rule="evenodd"/><path d="M2841.83 1092.08C2838.45 1089.91 2835.47 1088.61 2831.03 1086.73 2821.57 1082.73 2811.78 1079.51 2802.05 1076.25 2798.17 1074.95 2795.45 1073.86 2793.89 1072.97 2786.29 1068.65 2779.91 1059.95 2781.16 1050.76 2782 1044.54 2786.86 1039.21 2791.97 1035.96 2806.86 1026.5 2827.93 1025.6 2844.77 1028.38 2848.35 1028.97 2851.17 1029.74 2853.25 1030.67 2861.49 1034.39 2865.69 1042.12 2865.35 1051.62 2865.11 1058.03 2866.44 1064.26 2869.19 1070.05 2869.25 1070.18 2869.33 1070.19 2869.41 1070.06 2870.93 1067.58 2872.75 1065.33 2874.87 1063.3 2880.35 1058.04 2886.01 1053 2891.85 1048.17 2891.91 1048.12 2891.98 1048.11 2892.04 1048.14 2909.41 1057.07 2928.44 1060 2947.81 1059.07 2966.76 1058.15 2985.17 1054.55 3003.05 1048.27 3003.19 1048.22 3003.32 1048.24 3003.43 1048.32 3023.46 1063.03 3049.58 1061.06 3071.4 1052.02 3090.83 1043.98 3111.4 1038.33 3133.32 1032.9 3134.38 1032.65 3135.92 1032.83 3137.08 1033.34 3143.7 1036.24 3150.64 1037.61 3157.92 1037.44 3158.81 1037.41 3160.26 1038.1 3160.89 1038.88 3166.87 1046.38 3147.02 1050.86 3142.88 1051.92 3126.78 1056.05 3111.52 1066.34 3098.01 1075.73 3073.17 1092.99 3048.02 1111.14 3021.82 1124.75 3007.46 1132.22 2992.49 1138.19 2976.93 1142.67 2976.86 1142.69 2976.82 1142.76 2976.84 1142.83 2976.85 1142.86 2976.86 1142.88 2976.89 1142.9 2981 1146.02 2984.94 1149.32 2988.7 1152.82 2991.55 1155.47 2993.69 1158.39 2995.14 1161.56 2998.85 1169.72 2991.57 1173.9 2985.14 1176.1 2974.64 1179.71 2963.35 1180.94 2952.89 1181.83 2950.43 1182.04 2947.93 1182.06 2945.37 1181.87 2936.09 1181.18 2904.75 1178.69 2902.01 1167.3 2900.09 1159.28 2912.99 1149.3 2918.52 1144.89 2918.6 1144.82 2918.61 1144.71 2918.55 1144.63 2918.52 1144.6 2918.49 1144.58 2918.45 1144.57 2907.32 1142.21 2896.65 1137.86 2887.41 1131.31 2879.03 1125.36 2872.11 1119.28 2866.78 1110.3 2866.7 1110.17 2866.59 1110.08 2866.45 1110.02 2862.82 1108.47 2860.92 1109.84 2858.24 1112.07 2851.99 1117.29 2838.21 1113.82 2834.02 1107.25 2831.59 1103.43 2832.34 1098.39 2835.49 1095.29 2837.08 1093.73 2839.18 1092.74 2841.77 1092.33 2841.85 1092.31 2841.9 1092.24 2841.88 1092.17 2841.88 1092.13 2841.86 1092.1 2841.83 1092.08ZM2833.58 1050.78C2828.34 1045.01 2819.11 1038.19 2811.47 1044.89 2807.41 1048.45 2806.66 1054.45 2811.23 1057.97 2820.11 1064.81 2829.33 1071.15 2838.88 1077 2842.53 1079.23 2849.22 1083.3 2853.1 1083.21 2857.64 1083.09 2853.82 1075.74 2852.88 1074.14 2847.74 1065.39 2840.36 1058.24 2833.58 1050.78Z" fill="#FFFFFF" fill-rule="evenodd"/></g></svg>